M48
; DRILL file KiCad 10.0.3 date 2026-07-21T18:44:06
; FORMAT={-:-/ absolute / metric / decimal}
; #@! TF.CreationDate,2026-07-21T18:44:06+05:30
; #@! TF.GenerationSoftware,Kicad,Pcbnew,10.0.3
; #@! TF.FileFunction,Plated,1,2,PTH
FMAT,2
METRIC
; #@! TA.AperFunction,Plated,PTH,ComponentDrill
T1C0.800
; #@! TA.AperFunction,Plated,PTH,ComponentDrill
T2C0.900
; #@! TA.AperFunction,Plated,PTH,ComponentDrill
T3C1.000
; #@! TA.AperFunction,Plated,PTH,ComponentDrill
T4C1.100
; #@! TA.AperFunction,Plated,PTH,ComponentDrill
T5C1.200
; #@! TA.AperFunction,Plated,PTH,ComponentDrill
T6C1.300
%
G90
G05
T1
X132.0Y-78.38
X132.0Y-86.0
X136.5Y-102.69
X136.5Y-110.31
X154.19Y-105.132
X154.19Y-110.132
X155.0Y-89.0
X160.0Y-89.0
X161.81Y-105.132
X161.81Y-110.132
T2
X128.96Y-106.5
X131.5Y-106.5
X167.0Y-89.69
X167.0Y-97.31
X167.0Y-102.19
X167.0Y-109.81
T3
X157.5Y-94.632
X157.5Y-99.632
X173.968Y-88.5
X177.768Y-88.5
T4
X142.0Y-88.84
X142.0Y-99.0
X142.0Y-102.84
X142.0Y-113.0
X149.0Y-88.84
X149.0Y-99.0
X149.0Y-102.84
X149.0Y-113.0
X160.92Y-82.0
X163.46Y-82.0
X166.0Y-82.0
T5
X137.5Y-80.5
X152.5Y-80.5
T6
X132.5Y-91.0
X132.5Y-96.0
X176.0Y-102.0
X176.0Y-107.0
M30
