%TF.GenerationSoftware,KiCad,Pcbnew,10.0.3*%
%TF.CreationDate,2026-07-21T18:44:11+05:30*%
%TF.ProjectId,Tranformerless_powersupply,5472616e-666f-4726-9d65-726c6573735f,rev?*%
%TF.SameCoordinates,Original*%
%TF.FileFunction,Legend,Bot*%
%TF.FilePolarity,Positive*%
%FSLAX46Y46*%
G04 Gerber Fmt 4.6, Leading zero omitted, Abs format (unit mm)*
G04 Created by KiCad (PCBNEW 10.0.3) date 2026-07-21 18:44:11*
%MOMM*%
%LPD*%
G01*
G04 APERTURE LIST*
%ADD10C,0.300000*%
%ADD11C,0.010000*%
G04 APERTURE END LIST*
D10*
X178659774Y-94300828D02*
X178159774Y-95800828D01*
X178159774Y-95800828D02*
X177659774Y-94300828D01*
X176302632Y-95800828D02*
X176802632Y-95086542D01*
X177159775Y-95800828D02*
X177159775Y-94300828D01*
X177159775Y-94300828D02*
X176588346Y-94300828D01*
X176588346Y-94300828D02*
X176445489Y-94372257D01*
X176445489Y-94372257D02*
X176374060Y-94443685D01*
X176374060Y-94443685D02*
X176302632Y-94586542D01*
X176302632Y-94586542D02*
X176302632Y-94800828D01*
X176302632Y-94800828D02*
X176374060Y-94943685D01*
X176374060Y-94943685D02*
X176445489Y-95015114D01*
X176445489Y-95015114D02*
X176588346Y-95086542D01*
X176588346Y-95086542D02*
X177159775Y-95086542D01*
X175659775Y-95800828D02*
X175659775Y-94300828D01*
X174802632Y-95800828D02*
X175445489Y-94943685D01*
X174802632Y-94300828D02*
X175659775Y-95157971D01*
D11*
%TO.C,REF\u002A\u002A*%
X136341386Y-96195877D02*
X136317673Y-96210647D01*
X136291022Y-96232227D01*
X136291022Y-96553773D01*
X136291107Y-96647830D01*
X136291471Y-96721932D01*
X136292276Y-96778704D01*
X136293687Y-96820768D01*
X136295867Y-96850748D01*
X136298979Y-96871267D01*
X136303186Y-96884949D01*
X136308652Y-96894416D01*
X136312528Y-96899082D01*
X136343966Y-96919575D01*
X136379767Y-96918739D01*
X136411127Y-96901264D01*
X136437778Y-96879684D01*
X136437778Y-96232227D01*
X136411127Y-96210647D01*
X136385406Y-96194949D01*
X136364400Y-96189067D01*
X136341386Y-96195877D01*
G36*
X136385406Y-96194949D02*
G01*
X136411127Y-96210647D01*
X136437778Y-96232227D01*
X136437778Y-96879684D01*
X136411127Y-96901264D01*
X136379767Y-96918739D01*
X136343966Y-96919575D01*
X136312528Y-96899082D01*
X136308652Y-96894416D01*
X136303186Y-96884949D01*
X136298979Y-96871267D01*
X136295867Y-96850748D01*
X136293687Y-96820768D01*
X136292276Y-96778704D01*
X136291471Y-96721932D01*
X136291107Y-96647830D01*
X136291022Y-96553773D01*
X136291022Y-96232227D01*
X136317673Y-96210647D01*
X136341386Y-96195877D01*
X136364400Y-96189067D01*
X136385406Y-96194949D01*
G37*
X143453822Y-96211645D02*
X143447242Y-96219218D01*
X143442079Y-96228987D01*
X143438164Y-96243571D01*
X143435324Y-96265585D01*
X143433387Y-96297648D01*
X143432183Y-96342375D01*
X143431539Y-96402385D01*
X143431284Y-96480294D01*
X143431245Y-96555956D01*
X143431314Y-96649802D01*
X143431638Y-96723689D01*
X143432386Y-96780232D01*
X143433732Y-96822049D01*
X143435846Y-96851757D01*
X143438900Y-96871973D01*
X143443066Y-96885314D01*
X143448516Y-96894398D01*
X143453822Y-96900267D01*
X143486826Y-96919947D01*
X143521991Y-96918181D01*
X143553455Y-96896717D01*
X143560684Y-96888337D01*
X143566334Y-96878614D01*
X143570599Y-96864861D01*
X143573673Y-96844389D01*
X143575752Y-96814512D01*
X143577030Y-96772541D01*
X143577701Y-96715789D01*
X143577959Y-96641567D01*
X143578000Y-96557537D01*
X143578000Y-96244485D01*
X143550291Y-96216776D01*
X143516137Y-96193463D01*
X143483006Y-96192623D01*
X143453822Y-96211645D01*
G36*
X143516137Y-96193463D02*
G01*
X143550291Y-96216776D01*
X143578000Y-96244485D01*
X143578000Y-96557537D01*
X143577959Y-96641567D01*
X143577701Y-96715789D01*
X143577030Y-96772541D01*
X143575752Y-96814512D01*
X143573673Y-96844389D01*
X143570599Y-96864861D01*
X143566334Y-96878614D01*
X143560684Y-96888337D01*
X143553455Y-96896717D01*
X143521991Y-96918181D01*
X143486826Y-96919947D01*
X143453822Y-96900267D01*
X143448516Y-96894398D01*
X143443066Y-96885314D01*
X143438900Y-96871973D01*
X143435846Y-96851757D01*
X143433732Y-96822049D01*
X143432386Y-96780232D01*
X143431638Y-96723689D01*
X143431314Y-96649802D01*
X143431245Y-96555956D01*
X143431284Y-96480294D01*
X143431539Y-96402385D01*
X143432183Y-96342375D01*
X143433387Y-96297648D01*
X143435324Y-96265585D01*
X143438164Y-96243571D01*
X143442079Y-96228987D01*
X143447242Y-96219218D01*
X143453822Y-96211645D01*
X143483006Y-96192623D01*
X143516137Y-96193463D01*
G37*
X142803043Y-90946571D02*
X142706768Y-90970809D01*
X142620184Y-91013641D01*
X142545373Y-91073419D01*
X142484418Y-91148494D01*
X142439399Y-91237220D01*
X142413136Y-91333530D01*
X142407286Y-91430795D01*
X142422140Y-91524654D01*
X142455840Y-91612511D01*
X142506528Y-91691770D01*
X142572345Y-91759836D01*
X142651434Y-91814112D01*
X142741934Y-91852002D01*
X142793200Y-91864426D01*
X142837698Y-91871947D01*
X142871999Y-91874919D01*
X142904960Y-91873094D01*
X142945434Y-91866225D01*
X142978531Y-91859250D01*
X143071947Y-91827741D01*
X143155619Y-91776617D01*
X143227665Y-91707429D01*
X143286200Y-91621728D01*
X143300148Y-91594489D01*
X143316586Y-91558122D01*
X143326894Y-91527582D01*
X143332460Y-91495450D01*
X143334669Y-91454307D01*
X143334948Y-91408222D01*
X143330861Y-91323865D01*
X143317446Y-91254586D01*
X143292256Y-91193961D01*
X143252846Y-91135567D01*
X143214298Y-91091302D01*
X143142406Y-91025484D01*
X143067313Y-90980053D01*
X142984562Y-90952850D01*
X142906928Y-90942576D01*
X142803043Y-90946571D01*
G36*
X142984562Y-90952850D02*
G01*
X143067313Y-90980053D01*
X143142406Y-91025484D01*
X143214298Y-91091302D01*
X143252846Y-91135567D01*
X143292256Y-91193961D01*
X143317446Y-91254586D01*
X143330861Y-91323865D01*
X143334948Y-91408222D01*
X143334669Y-91454307D01*
X143332460Y-91495450D01*
X143326894Y-91527582D01*
X143316586Y-91558122D01*
X143300148Y-91594489D01*
X143286200Y-91621728D01*
X143227665Y-91707429D01*
X143155619Y-91776617D01*
X143071947Y-91827741D01*
X142978531Y-91859250D01*
X142945434Y-91866225D01*
X142904960Y-91873094D01*
X142871999Y-91874919D01*
X142837698Y-91871947D01*
X142793200Y-91864426D01*
X142741934Y-91852002D01*
X142651434Y-91814112D01*
X142572345Y-91759836D01*
X142506528Y-91691770D01*
X142455840Y-91612511D01*
X142422140Y-91524654D01*
X142407286Y-91430795D01*
X142413136Y-91333530D01*
X142439399Y-91237220D01*
X142484418Y-91148494D01*
X142545373Y-91073419D01*
X142620184Y-91013641D01*
X142706768Y-90970809D01*
X142803043Y-90946571D01*
X142906928Y-90942576D01*
X142984562Y-90952850D01*
G37*
X135566935Y-96189163D02*
X135488228Y-96189542D01*
X135427137Y-96190333D01*
X135381183Y-96191670D01*
X135347886Y-96193683D01*
X135324764Y-96196506D01*
X135309338Y-96200269D01*
X135299129Y-96205105D01*
X135294187Y-96208822D01*
X135268543Y-96241358D01*
X135265441Y-96275138D01*
X135281289Y-96305826D01*
X135291652Y-96318089D01*
X135302804Y-96326450D01*
X135318965Y-96331657D01*
X135344358Y-96334457D01*
X135383202Y-96335596D01*
X135439720Y-96335821D01*
X135450820Y-96335822D01*
X135596756Y-96335822D01*
X135596756Y-96606756D01*
X135596852Y-96692154D01*
X135597289Y-96757864D01*
X135598288Y-96806774D01*
X135600072Y-96841773D01*
X135602863Y-96865749D01*
X135606883Y-96881593D01*
X135612355Y-96892191D01*
X135619334Y-96900267D01*
X135652266Y-96920112D01*
X135686646Y-96918548D01*
X135717824Y-96895906D01*
X135720114Y-96893100D01*
X135727571Y-96882492D01*
X135733253Y-96870081D01*
X135737399Y-96852850D01*
X135740250Y-96827784D01*
X135742046Y-96791867D01*
X135743028Y-96742083D01*
X135743436Y-96675417D01*
X135743511Y-96599589D01*
X135743511Y-96335822D01*
X135882873Y-96335822D01*
X135942678Y-96335418D01*
X135984082Y-96333840D01*
X136011252Y-96330547D01*
X136028354Y-96324992D01*
X136039557Y-96316631D01*
X136040917Y-96315178D01*
X136057275Y-96281939D01*
X136055828Y-96244362D01*
X136037022Y-96211645D01*
X136029750Y-96205298D01*
X136020373Y-96200266D01*
X136006391Y-96196396D01*
X135985304Y-96193537D01*
X135954611Y-96191535D01*
X135911811Y-96190239D01*
X135854405Y-96189498D01*
X135779890Y-96189158D01*
X135685767Y-96189068D01*
X135665740Y-96189067D01*
X135566935Y-96189163D01*
G36*
X135685767Y-96189068D02*
G01*
X135779890Y-96189158D01*
X135854405Y-96189498D01*
X135911811Y-96190239D01*
X135954611Y-96191535D01*
X135985304Y-96193537D01*
X136006391Y-96196396D01*
X136020373Y-96200266D01*
X136029750Y-96205298D01*
X136037022Y-96211645D01*
X136055828Y-96244362D01*
X136057275Y-96281939D01*
X136040917Y-96315178D01*
X136039557Y-96316631D01*
X136028354Y-96324992D01*
X136011252Y-96330547D01*
X135984082Y-96333840D01*
X135942678Y-96335418D01*
X135882873Y-96335822D01*
X135743511Y-96335822D01*
X135743511Y-96599589D01*
X135743436Y-96675417D01*
X135743028Y-96742083D01*
X135742046Y-96791867D01*
X135740250Y-96827784D01*
X135737399Y-96852850D01*
X135733253Y-96870081D01*
X135727571Y-96882492D01*
X135720114Y-96893100D01*
X135717824Y-96895906D01*
X135686646Y-96918548D01*
X135652266Y-96920112D01*
X135619334Y-96900267D01*
X135612355Y-96892191D01*
X135606883Y-96881593D01*
X135602863Y-96865749D01*
X135600072Y-96841773D01*
X135598288Y-96806774D01*
X135597289Y-96757864D01*
X135596852Y-96692154D01*
X135596756Y-96606756D01*
X135596756Y-96335822D01*
X135450820Y-96335822D01*
X135439720Y-96335821D01*
X135383202Y-96335596D01*
X135344358Y-96334457D01*
X135318965Y-96331657D01*
X135302804Y-96326450D01*
X135291652Y-96318089D01*
X135281289Y-96305826D01*
X135265441Y-96275138D01*
X135268543Y-96241358D01*
X135294187Y-96208822D01*
X135299129Y-96205105D01*
X135309338Y-96200269D01*
X135324764Y-96196506D01*
X135347886Y-96193683D01*
X135381183Y-96191670D01*
X135427137Y-96190333D01*
X135488228Y-96189542D01*
X135566935Y-96189163D01*
X135665740Y-96189067D01*
X135685767Y-96189068D01*
G37*
X134301177Y-96194533D02*
X134269798Y-96216776D01*
X134242089Y-96244485D01*
X134242089Y-96553920D01*
X134242162Y-96645799D01*
X134242505Y-96717840D01*
X134243308Y-96772780D01*
X134244759Y-96813360D01*
X134247048Y-96842317D01*
X134250364Y-96862391D01*
X134254895Y-96876321D01*
X134260831Y-96886845D01*
X134265486Y-96893100D01*
X134296217Y-96917673D01*
X134331504Y-96920341D01*
X134363755Y-96905271D01*
X134374412Y-96896374D01*
X134381536Y-96884557D01*
X134385833Y-96865526D01*
X134388009Y-96834992D01*
X134388772Y-96788662D01*
X134388845Y-96752871D01*
X134388845Y-96618045D01*
X134885556Y-96618045D01*
X134885556Y-96740700D01*
X134886069Y-96796787D01*
X134888124Y-96835333D01*
X134892492Y-96861361D01*
X134899944Y-96879897D01*
X134908953Y-96893100D01*
X134939856Y-96917604D01*
X134974804Y-96920506D01*
X135008262Y-96903089D01*
X135017396Y-96893959D01*
X135023848Y-96881855D01*
X135028103Y-96863001D01*
X135030648Y-96833620D01*
X135031971Y-96789937D01*
X135032557Y-96728175D01*
X135032625Y-96714000D01*
X135033109Y-96597631D01*
X135033359Y-96501727D01*
X135033277Y-96424177D01*
X135032769Y-96362869D01*
X135031738Y-96315690D01*
X135030087Y-96280530D01*
X135027721Y-96255276D01*
X135024543Y-96237817D01*
X135020456Y-96226041D01*
X135015366Y-96217835D01*
X135009734Y-96211645D01*
X134977872Y-96191844D01*
X134944643Y-96194533D01*
X134913265Y-96216776D01*
X134900567Y-96231126D01*
X134892474Y-96246978D01*
X134887958Y-96269554D01*
X134885994Y-96304078D01*
X134885556Y-96355776D01*
X134885556Y-96471289D01*
X134388845Y-96471289D01*
X134388845Y-96352756D01*
X134388338Y-96298148D01*
X134386302Y-96261275D01*
X134381965Y-96237307D01*
X134374553Y-96221415D01*
X134366267Y-96211645D01*
X134334406Y-96191844D01*
X134301177Y-96194533D01*
G36*
X135009734Y-96211645D02*
G01*
X135015366Y-96217835D01*
X135020456Y-96226041D01*
X135024543Y-96237817D01*
X135027721Y-96255276D01*
X135030087Y-96280530D01*
X135031738Y-96315690D01*
X135032769Y-96362869D01*
X135033277Y-96424177D01*
X135033359Y-96501727D01*
X135033109Y-96597631D01*
X135032625Y-96714000D01*
X135032557Y-96728175D01*
X135031971Y-96789937D01*
X135030648Y-96833620D01*
X135028103Y-96863001D01*
X135023848Y-96881855D01*
X135017396Y-96893959D01*
X135008262Y-96903089D01*
X134974804Y-96920506D01*
X134939856Y-96917604D01*
X134908953Y-96893100D01*
X134899944Y-96879897D01*
X134892492Y-96861361D01*
X134888124Y-96835333D01*
X134886069Y-96796787D01*
X134885556Y-96740700D01*
X134885556Y-96618045D01*
X134388845Y-96618045D01*
X134388845Y-96752871D01*
X134388772Y-96788662D01*
X134388009Y-96834992D01*
X134385833Y-96865526D01*
X134381536Y-96884557D01*
X134374412Y-96896374D01*
X134363755Y-96905271D01*
X134331504Y-96920341D01*
X134296217Y-96917673D01*
X134265486Y-96893100D01*
X134260831Y-96886845D01*
X134254895Y-96876321D01*
X134250364Y-96862391D01*
X134247048Y-96842317D01*
X134244759Y-96813360D01*
X134243308Y-96772780D01*
X134242505Y-96717840D01*
X134242162Y-96645799D01*
X134242089Y-96553920D01*
X134242089Y-96244485D01*
X134269798Y-96216776D01*
X134301177Y-96194533D01*
X134334406Y-96191844D01*
X134366267Y-96211645D01*
X134374553Y-96221415D01*
X134381965Y-96237307D01*
X134386302Y-96261275D01*
X134388338Y-96298148D01*
X134388845Y-96352756D01*
X134388845Y-96471289D01*
X134885556Y-96471289D01*
X134885556Y-96355776D01*
X134885994Y-96304078D01*
X134887958Y-96269554D01*
X134892474Y-96246978D01*
X134900567Y-96231126D01*
X134913265Y-96216776D01*
X134944643Y-96194533D01*
X134977872Y-96191844D01*
X135009734Y-96211645D01*
G37*
X139511691Y-96189275D02*
X139382712Y-96193636D01*
X139273009Y-96206861D01*
X139180774Y-96229741D01*
X139104198Y-96263070D01*
X139041473Y-96307638D01*
X138990788Y-96364236D01*
X138950337Y-96433658D01*
X138949541Y-96435351D01*
X138925399Y-96497483D01*
X138916797Y-96552509D01*
X138923769Y-96607887D01*
X138946346Y-96671073D01*
X138950628Y-96680689D01*
X138979828Y-96736966D01*
X139012644Y-96780451D01*
X139054998Y-96817417D01*
X139112810Y-96854135D01*
X139116169Y-96856052D01*
X139166496Y-96880227D01*
X139223379Y-96898282D01*
X139290473Y-96910839D01*
X139371435Y-96918522D01*
X139469918Y-96921953D01*
X139504714Y-96922251D01*
X139670406Y-96922845D01*
X139693803Y-96893100D01*
X139700743Y-96883319D01*
X139706158Y-96871897D01*
X139710235Y-96856095D01*
X139713163Y-96833175D01*
X139715133Y-96800396D01*
X139715775Y-96776089D01*
X139559156Y-96776089D01*
X139465274Y-96776089D01*
X139410336Y-96774483D01*
X139353940Y-96770255D01*
X139307655Y-96764292D01*
X139304861Y-96763790D01*
X139222652Y-96741736D01*
X139158886Y-96708600D01*
X139111548Y-96662847D01*
X139078618Y-96602939D01*
X139072892Y-96587061D01*
X139067279Y-96562333D01*
X139069709Y-96537902D01*
X139081533Y-96505400D01*
X139088660Y-96489434D01*
X139112000Y-96447006D01*
X139140120Y-96417240D01*
X139171060Y-96396511D01*
X139233034Y-96369537D01*
X139312349Y-96349998D01*
X139404747Y-96338746D01*
X139471667Y-96336270D01*
X139559156Y-96335822D01*
X139559156Y-96776089D01*
X139715775Y-96776089D01*
X139716332Y-96755021D01*
X139716950Y-96694311D01*
X139717175Y-96615526D01*
X139717200Y-96553920D01*
X139717200Y-96244485D01*
X139689491Y-96216776D01*
X139677194Y-96205544D01*
X139663897Y-96197853D01*
X139645328Y-96193040D01*
X139617214Y-96190446D01*
X139575283Y-96189410D01*
X139515263Y-96189270D01*
X139511691Y-96189275D01*
G36*
X139715133Y-96800396D02*
G01*
X139713163Y-96833175D01*
X139710235Y-96856095D01*
X139706158Y-96871897D01*
X139700743Y-96883319D01*
X139693803Y-96893100D01*
X139670406Y-96922845D01*
X139504714Y-96922251D01*
X139469918Y-96921953D01*
X139371435Y-96918522D01*
X139290473Y-96910839D01*
X139223379Y-96898282D01*
X139166496Y-96880227D01*
X139116169Y-96856052D01*
X139112810Y-96854135D01*
X139054998Y-96817417D01*
X139012644Y-96780451D01*
X138979828Y-96736966D01*
X138950628Y-96680689D01*
X138946346Y-96671073D01*
X138923769Y-96607887D01*
X138918034Y-96562333D01*
X139067279Y-96562333D01*
X139072892Y-96587061D01*
X139078618Y-96602939D01*
X139111548Y-96662847D01*
X139158886Y-96708600D01*
X139222652Y-96741736D01*
X139304861Y-96763790D01*
X139307655Y-96764292D01*
X139353940Y-96770255D01*
X139410336Y-96774483D01*
X139465274Y-96776089D01*
X139559156Y-96776089D01*
X139559156Y-96335822D01*
X139471667Y-96336270D01*
X139404747Y-96338746D01*
X139312349Y-96349998D01*
X139233034Y-96369537D01*
X139171060Y-96396511D01*
X139140120Y-96417240D01*
X139112000Y-96447006D01*
X139088660Y-96489434D01*
X139081533Y-96505400D01*
X139069709Y-96537902D01*
X139067279Y-96562333D01*
X138918034Y-96562333D01*
X138916797Y-96552509D01*
X138925399Y-96497483D01*
X138949541Y-96435351D01*
X138950337Y-96433658D01*
X138990788Y-96364236D01*
X139041473Y-96307638D01*
X139104198Y-96263070D01*
X139180774Y-96229741D01*
X139273009Y-96206861D01*
X139382712Y-96193636D01*
X139511691Y-96189275D01*
X139515263Y-96189270D01*
X139575283Y-96189410D01*
X139617214Y-96190446D01*
X139645328Y-96193040D01*
X139663897Y-96197853D01*
X139677194Y-96205544D01*
X139689491Y-96216776D01*
X139717200Y-96244485D01*
X139717200Y-96553920D01*
X139717175Y-96615526D01*
X139716950Y-96694311D01*
X139716332Y-96755021D01*
X139715775Y-96776089D01*
X139715133Y-96800396D01*
G37*
X146651371Y-96189066D02*
X146611889Y-96189467D01*
X146496200Y-96192259D01*
X146399311Y-96200550D01*
X146317919Y-96215232D01*
X146248723Y-96237193D01*
X146188420Y-96267322D01*
X146133708Y-96306510D01*
X146114167Y-96323532D01*
X146081750Y-96363363D01*
X146052520Y-96417413D01*
X146029991Y-96477323D01*
X146017679Y-96534739D01*
X146016400Y-96555956D01*
X146024417Y-96614769D01*
X146045899Y-96679013D01*
X146076999Y-96739821D01*
X146113866Y-96788330D01*
X146119854Y-96794182D01*
X146170579Y-96835321D01*
X146226125Y-96867435D01*
X146289696Y-96891365D01*
X146364494Y-96907953D01*
X146453722Y-96918041D01*
X146560582Y-96922469D01*
X146609528Y-96922845D01*
X146671762Y-96922545D01*
X146715528Y-96921292D01*
X146744931Y-96918554D01*
X146764079Y-96913801D01*
X146777077Y-96906501D01*
X146784045Y-96900267D01*
X146790626Y-96892694D01*
X146795788Y-96882924D01*
X146799703Y-96868340D01*
X146802543Y-96846326D01*
X146804480Y-96814264D01*
X146805684Y-96769536D01*
X146806328Y-96709526D01*
X146806583Y-96631617D01*
X146806622Y-96555956D01*
X146806870Y-96455041D01*
X146806817Y-96374427D01*
X146805857Y-96335822D01*
X146659867Y-96335822D01*
X146659867Y-96776089D01*
X146566734Y-96776004D01*
X146510693Y-96774396D01*
X146451999Y-96770256D01*
X146403028Y-96764464D01*
X146401538Y-96764226D01*
X146322392Y-96745090D01*
X146261002Y-96715287D01*
X146214305Y-96672878D01*
X146184635Y-96626961D01*
X146166353Y-96576026D01*
X146167771Y-96528200D01*
X146188988Y-96476933D01*
X146230489Y-96423899D01*
X146287998Y-96384600D01*
X146362750Y-96358331D01*
X146412708Y-96349035D01*
X146469416Y-96342507D01*
X146529519Y-96337782D01*
X146580639Y-96335817D01*
X146583667Y-96335808D01*
X146659867Y-96335822D01*
X146805857Y-96335822D01*
X146805260Y-96311851D01*
X146800998Y-96265055D01*
X146792830Y-96231778D01*
X146779556Y-96209759D01*
X146759974Y-96196739D01*
X146732883Y-96190457D01*
X146697082Y-96188653D01*
X146651371Y-96189066D01*
G36*
X146806817Y-96374427D02*
G01*
X146806870Y-96455041D01*
X146806622Y-96555956D01*
X146806583Y-96631617D01*
X146806328Y-96709526D01*
X146805684Y-96769536D01*
X146804480Y-96814264D01*
X146802543Y-96846326D01*
X146799703Y-96868340D01*
X146795788Y-96882924D01*
X146790626Y-96892694D01*
X146784045Y-96900267D01*
X146777077Y-96906501D01*
X146764079Y-96913801D01*
X146744931Y-96918554D01*
X146715528Y-96921292D01*
X146671762Y-96922545D01*
X146609528Y-96922845D01*
X146560582Y-96922469D01*
X146453722Y-96918041D01*
X146364494Y-96907953D01*
X146289696Y-96891365D01*
X146226125Y-96867435D01*
X146170579Y-96835321D01*
X146119854Y-96794182D01*
X146113866Y-96788330D01*
X146076999Y-96739821D01*
X146045899Y-96679013D01*
X146024417Y-96614769D01*
X146019136Y-96576026D01*
X146166353Y-96576026D01*
X146184635Y-96626961D01*
X146214305Y-96672878D01*
X146261002Y-96715287D01*
X146322392Y-96745090D01*
X146401538Y-96764226D01*
X146403028Y-96764464D01*
X146451999Y-96770256D01*
X146510693Y-96774396D01*
X146566734Y-96776004D01*
X146659867Y-96776089D01*
X146659867Y-96335822D01*
X146583667Y-96335808D01*
X146580639Y-96335817D01*
X146529519Y-96337782D01*
X146469416Y-96342507D01*
X146412708Y-96349035D01*
X146362750Y-96358331D01*
X146287998Y-96384600D01*
X146230489Y-96423899D01*
X146188988Y-96476933D01*
X146167771Y-96528200D01*
X146166353Y-96576026D01*
X146019136Y-96576026D01*
X146016400Y-96555956D01*
X146017679Y-96534739D01*
X146029991Y-96477323D01*
X146052520Y-96417413D01*
X146081750Y-96363363D01*
X146114167Y-96323532D01*
X146133708Y-96306510D01*
X146188420Y-96267322D01*
X146248723Y-96237193D01*
X146317919Y-96215232D01*
X146399311Y-96200550D01*
X146496200Y-96192259D01*
X146611889Y-96189467D01*
X146651371Y-96189066D01*
X146697082Y-96188653D01*
X146732883Y-96190457D01*
X146759974Y-96196739D01*
X146779556Y-96209759D01*
X146792830Y-96231778D01*
X146800998Y-96265055D01*
X146805260Y-96311851D01*
X146805857Y-96335822D01*
X146806817Y-96374427D01*
G37*
X141830114Y-96193448D02*
X141806548Y-96207273D01*
X141775735Y-96229881D01*
X141736078Y-96262338D01*
X141685980Y-96305708D01*
X141623843Y-96361058D01*
X141548072Y-96429451D01*
X141461334Y-96508084D01*
X141280711Y-96671878D01*
X141275067Y-96452029D01*
X141273029Y-96376351D01*
X141271063Y-96319994D01*
X141268734Y-96279706D01*
X141265606Y-96252235D01*
X141261245Y-96234329D01*
X141255216Y-96222737D01*
X141247084Y-96214208D01*
X141242772Y-96210623D01*
X141208241Y-96191670D01*
X141175383Y-96194441D01*
X141149318Y-96210633D01*
X141122667Y-96232199D01*
X141119352Y-96547151D01*
X141118435Y-96639779D01*
X141117968Y-96712544D01*
X141118113Y-96768161D01*
X141119032Y-96809342D01*
X141120887Y-96838803D01*
X141123839Y-96859255D01*
X141128050Y-96873413D01*
X141133682Y-96883991D01*
X141139927Y-96892474D01*
X141153439Y-96908207D01*
X141166883Y-96918636D01*
X141182124Y-96922639D01*
X141201026Y-96919094D01*
X141225455Y-96906879D01*
X141257273Y-96884871D01*
X141298348Y-96851949D01*
X141350542Y-96806991D01*
X141415722Y-96748875D01*
X141489556Y-96682099D01*
X141754845Y-96441458D01*
X141760489Y-96660589D01*
X141762531Y-96736128D01*
X141764502Y-96792354D01*
X141766839Y-96832524D01*
X141769981Y-96859896D01*
X141774364Y-96877728D01*
X141780424Y-96889279D01*
X141788600Y-96897807D01*
X141792784Y-96901282D01*
X141829765Y-96920372D01*
X141864708Y-96917493D01*
X141895136Y-96893100D01*
X141902097Y-96883286D01*
X141907523Y-96871826D01*
X141911603Y-96855968D01*
X141914529Y-96832963D01*
X141916492Y-96800062D01*
X141917683Y-96754516D01*
X141918292Y-96693573D01*
X141918511Y-96614486D01*
X141918534Y-96555956D01*
X141918460Y-96464407D01*
X141918113Y-96392687D01*
X141917301Y-96338045D01*
X141915833Y-96297732D01*
X141913519Y-96268998D01*
X141910167Y-96249093D01*
X141905588Y-96235268D01*
X141899589Y-96224772D01*
X141895136Y-96218811D01*
X141883850Y-96204691D01*
X141873301Y-96194029D01*
X141861893Y-96187892D01*
X141848030Y-96187343D01*
X141830114Y-96193448D01*
G36*
X141861893Y-96187892D02*
G01*
X141873301Y-96194029D01*
X141883850Y-96204691D01*
X141895136Y-96218811D01*
X141899589Y-96224772D01*
X141905588Y-96235268D01*
X141910167Y-96249093D01*
X141913519Y-96268998D01*
X141915833Y-96297732D01*
X141917301Y-96338045D01*
X141918113Y-96392687D01*
X141918460Y-96464407D01*
X141918534Y-96555956D01*
X141918511Y-96614486D01*
X141918292Y-96693573D01*
X141917683Y-96754516D01*
X141916492Y-96800062D01*
X141914529Y-96832963D01*
X141911603Y-96855968D01*
X141907523Y-96871826D01*
X141902097Y-96883286D01*
X141895136Y-96893100D01*
X141864708Y-96917493D01*
X141829765Y-96920372D01*
X141792784Y-96901282D01*
X141788600Y-96897807D01*
X141780424Y-96889279D01*
X141774364Y-96877728D01*
X141769981Y-96859896D01*
X141766839Y-96832524D01*
X141764502Y-96792354D01*
X141762531Y-96736128D01*
X141760489Y-96660589D01*
X141754845Y-96441458D01*
X141489556Y-96682099D01*
X141415722Y-96748875D01*
X141350542Y-96806991D01*
X141298348Y-96851949D01*
X141257273Y-96884871D01*
X141225455Y-96906879D01*
X141201026Y-96919094D01*
X141182124Y-96922639D01*
X141166883Y-96918636D01*
X141153439Y-96908207D01*
X141139927Y-96892474D01*
X141133682Y-96883991D01*
X141128050Y-96873413D01*
X141123839Y-96859255D01*
X141120887Y-96838803D01*
X141119032Y-96809342D01*
X141118113Y-96768161D01*
X141117968Y-96712544D01*
X141118435Y-96639779D01*
X141119352Y-96547151D01*
X141122667Y-96232199D01*
X141149318Y-96210633D01*
X141175383Y-96194441D01*
X141208241Y-96191670D01*
X141242772Y-96210623D01*
X141247084Y-96214208D01*
X141255216Y-96222737D01*
X141261245Y-96234329D01*
X141265606Y-96252235D01*
X141268734Y-96279706D01*
X141271063Y-96319994D01*
X141273029Y-96376351D01*
X141275067Y-96452029D01*
X141280711Y-96671878D01*
X141461334Y-96508084D01*
X141548072Y-96429451D01*
X141623843Y-96361058D01*
X141685980Y-96305708D01*
X141736078Y-96262338D01*
X141775735Y-96229881D01*
X141806548Y-96207273D01*
X141830114Y-96193448D01*
X141848030Y-96187343D01*
X141861893Y-96187892D01*
G37*
X142480081Y-96194599D02*
X142411565Y-96206095D01*
X142358943Y-96223967D01*
X142324708Y-96247499D01*
X142315379Y-96260924D01*
X142305893Y-96292148D01*
X142312277Y-96320395D01*
X142332430Y-96347182D01*
X142363745Y-96359713D01*
X142409183Y-96358696D01*
X142444326Y-96351906D01*
X142522419Y-96338971D01*
X142602226Y-96337742D01*
X142691555Y-96348241D01*
X142716229Y-96352690D01*
X142799291Y-96376108D01*
X142864273Y-96410945D01*
X142910461Y-96456604D01*
X142937145Y-96512494D01*
X142942663Y-96541388D01*
X142939051Y-96600012D01*
X142915729Y-96651879D01*
X142874824Y-96695978D01*
X142818459Y-96731299D01*
X142748760Y-96756829D01*
X142667852Y-96771559D01*
X142577860Y-96774478D01*
X142480910Y-96764575D01*
X142475436Y-96763641D01*
X142436875Y-96756459D01*
X142415494Y-96749521D01*
X142406227Y-96739227D01*
X142404006Y-96721976D01*
X142403956Y-96712841D01*
X142403956Y-96674489D01*
X142472431Y-96674489D01*
X142532900Y-96670347D01*
X142574165Y-96657147D01*
X142598175Y-96633730D01*
X142606877Y-96598936D01*
X142606983Y-96594394D01*
X142601892Y-96564654D01*
X142584433Y-96543419D01*
X142551939Y-96529366D01*
X142501743Y-96521173D01*
X142453123Y-96518161D01*
X142382456Y-96516433D01*
X142331198Y-96519070D01*
X142296239Y-96528800D01*
X142274470Y-96548353D01*
X142262780Y-96580456D01*
X142258060Y-96627838D01*
X142257200Y-96690071D01*
X142258609Y-96759535D01*
X142262848Y-96806786D01*
X142269936Y-96832012D01*
X142271311Y-96833988D01*
X142310228Y-96865508D01*
X142367286Y-96890470D01*
X142438869Y-96908340D01*
X142521358Y-96918586D01*
X142611139Y-96920673D01*
X142704592Y-96914068D01*
X142759556Y-96905956D01*
X142845766Y-96881554D01*
X142925892Y-96841662D01*
X142992977Y-96789887D01*
X143003173Y-96779539D01*
X143036302Y-96736035D01*
X143066194Y-96682118D01*
X143089357Y-96625592D01*
X143102298Y-96574259D01*
X143103858Y-96554544D01*
X143097218Y-96513419D01*
X143079568Y-96462252D01*
X143054297Y-96408394D01*
X143024789Y-96359195D01*
X142998719Y-96326334D01*
X142937765Y-96277452D01*
X142858969Y-96238545D01*
X142765157Y-96210494D01*
X142659150Y-96194179D01*
X142562000Y-96190192D01*
X142480081Y-96194599D01*
G36*
X142659150Y-96194179D02*
G01*
X142765157Y-96210494D01*
X142858969Y-96238545D01*
X142937765Y-96277452D01*
X142998719Y-96326334D01*
X143024789Y-96359195D01*
X143054297Y-96408394D01*
X143079568Y-96462252D01*
X143097218Y-96513419D01*
X143103858Y-96554544D01*
X143102298Y-96574259D01*
X143089357Y-96625592D01*
X143066194Y-96682118D01*
X143036302Y-96736035D01*
X143003173Y-96779539D01*
X142992977Y-96789887D01*
X142925892Y-96841662D01*
X142845766Y-96881554D01*
X142759556Y-96905956D01*
X142704592Y-96914068D01*
X142611139Y-96920673D01*
X142521358Y-96918586D01*
X142438869Y-96908340D01*
X142367286Y-96890470D01*
X142310228Y-96865508D01*
X142271311Y-96833988D01*
X142269936Y-96832012D01*
X142262848Y-96806786D01*
X142258609Y-96759535D01*
X142257200Y-96690071D01*
X142258060Y-96627838D01*
X142262780Y-96580456D01*
X142274470Y-96548353D01*
X142296239Y-96528800D01*
X142331198Y-96519070D01*
X142382456Y-96516433D01*
X142453123Y-96518161D01*
X142501743Y-96521173D01*
X142551939Y-96529366D01*
X142584433Y-96543419D01*
X142601892Y-96564654D01*
X142606983Y-96594394D01*
X142606877Y-96598936D01*
X142598175Y-96633730D01*
X142574165Y-96657147D01*
X142532900Y-96670347D01*
X142472431Y-96674489D01*
X142403956Y-96674489D01*
X142403956Y-96712841D01*
X142404006Y-96721976D01*
X142406227Y-96739227D01*
X142415494Y-96749521D01*
X142436875Y-96756459D01*
X142475436Y-96763641D01*
X142480910Y-96764575D01*
X142577860Y-96774478D01*
X142667852Y-96771559D01*
X142748760Y-96756829D01*
X142818459Y-96731299D01*
X142874824Y-96695978D01*
X142915729Y-96651879D01*
X142939051Y-96600012D01*
X142942663Y-96541388D01*
X142937145Y-96512494D01*
X142910461Y-96456604D01*
X142864273Y-96410945D01*
X142799291Y-96376108D01*
X142716229Y-96352690D01*
X142691555Y-96348241D01*
X142602226Y-96337742D01*
X142522419Y-96338971D01*
X142444326Y-96351906D01*
X142409183Y-96358696D01*
X142363745Y-96359713D01*
X142332430Y-96347182D01*
X142312277Y-96320395D01*
X142305893Y-96292148D01*
X142315379Y-96260924D01*
X142324708Y-96247499D01*
X142358943Y-96223967D01*
X142411565Y-96206095D01*
X142480081Y-96194599D01*
X142562000Y-96190192D01*
X142659150Y-96194179D01*
G37*
X140299657Y-96189260D02*
X140223299Y-96190174D01*
X140164783Y-96192311D01*
X140121745Y-96196175D01*
X140091817Y-96202267D01*
X140072632Y-96211090D01*
X140061824Y-96223146D01*
X140057027Y-96238939D01*
X140055873Y-96258970D01*
X140055867Y-96261335D01*
X140056869Y-96283992D01*
X140061604Y-96301503D01*
X140072667Y-96314574D01*
X140092652Y-96323913D01*
X140124154Y-96330227D01*
X140169768Y-96334222D01*
X140232087Y-96336606D01*
X140313707Y-96338086D01*
X140338723Y-96338414D01*
X140580800Y-96341467D01*
X140584186Y-96406378D01*
X140587571Y-96471289D01*
X140419424Y-96471289D01*
X140353734Y-96471531D01*
X140306828Y-96472556D01*
X140274917Y-96474811D01*
X140254209Y-96478742D01*
X140240916Y-96484798D01*
X140231245Y-96493424D01*
X140231183Y-96493493D01*
X140213644Y-96527112D01*
X140214278Y-96563448D01*
X140232686Y-96594423D01*
X140236329Y-96597607D01*
X140249259Y-96605812D01*
X140266976Y-96611521D01*
X140293430Y-96615162D01*
X140332568Y-96617167D01*
X140388338Y-96617964D01*
X140424006Y-96618045D01*
X140586445Y-96618045D01*
X140586445Y-96776089D01*
X140339839Y-96776089D01*
X140258420Y-96776231D01*
X140196590Y-96776814D01*
X140151363Y-96778068D01*
X140119752Y-96780227D01*
X140098769Y-96783523D01*
X140085427Y-96788189D01*
X140076739Y-96794457D01*
X140074550Y-96796733D01*
X140058386Y-96828280D01*
X140057203Y-96864168D01*
X140070464Y-96895285D01*
X140080957Y-96905271D01*
X140091871Y-96910769D01*
X140108783Y-96915022D01*
X140134367Y-96918180D01*
X140171299Y-96920392D01*
X140222254Y-96921806D01*
X140289906Y-96922572D01*
X140376931Y-96922838D01*
X140396606Y-96922845D01*
X140485089Y-96922787D01*
X140553773Y-96922467D01*
X140605436Y-96921667D01*
X140642855Y-96920167D01*
X140668810Y-96917749D01*
X140686078Y-96914194D01*
X140697438Y-96909282D01*
X140705668Y-96902795D01*
X140710183Y-96898138D01*
X140716979Y-96889889D01*
X140722288Y-96879669D01*
X140726294Y-96864800D01*
X140729179Y-96842602D01*
X140731126Y-96810393D01*
X140732319Y-96765496D01*
X140732939Y-96705228D01*
X140733171Y-96626911D01*
X140733200Y-96560994D01*
X140733129Y-96468628D01*
X140732792Y-96396117D01*
X140732002Y-96340737D01*
X140730574Y-96299765D01*
X140728321Y-96270478D01*
X140725057Y-96250153D01*
X140720596Y-96236066D01*
X140714752Y-96225495D01*
X140709803Y-96218811D01*
X140686406Y-96189067D01*
X140396226Y-96189067D01*
X140299657Y-96189260D01*
G36*
X140709803Y-96218811D02*
G01*
X140714752Y-96225495D01*
X140720596Y-96236066D01*
X140725057Y-96250153D01*
X140728321Y-96270478D01*
X140730574Y-96299765D01*
X140732002Y-96340737D01*
X140732792Y-96396117D01*
X140733129Y-96468628D01*
X140733200Y-96560994D01*
X140733171Y-96626911D01*
X140732939Y-96705228D01*
X140732319Y-96765496D01*
X140731126Y-96810393D01*
X140729179Y-96842602D01*
X140726294Y-96864800D01*
X140722288Y-96879669D01*
X140716979Y-96889889D01*
X140710183Y-96898138D01*
X140705668Y-96902795D01*
X140697438Y-96909282D01*
X140686078Y-96914194D01*
X140668810Y-96917749D01*
X140642855Y-96920167D01*
X140605436Y-96921667D01*
X140553773Y-96922467D01*
X140485089Y-96922787D01*
X140396606Y-96922845D01*
X140376931Y-96922838D01*
X140289906Y-96922572D01*
X140222254Y-96921806D01*
X140171299Y-96920392D01*
X140134367Y-96918180D01*
X140108783Y-96915022D01*
X140091871Y-96910769D01*
X140080957Y-96905271D01*
X140070464Y-96895285D01*
X140057203Y-96864168D01*
X140058386Y-96828280D01*
X140074550Y-96796733D01*
X140076739Y-96794457D01*
X140085427Y-96788189D01*
X140098769Y-96783523D01*
X140119752Y-96780227D01*
X140151363Y-96778068D01*
X140196590Y-96776814D01*
X140258420Y-96776231D01*
X140339839Y-96776089D01*
X140586445Y-96776089D01*
X140586445Y-96618045D01*
X140424006Y-96618045D01*
X140388338Y-96617964D01*
X140332568Y-96617167D01*
X140293430Y-96615162D01*
X140266976Y-96611521D01*
X140249259Y-96605812D01*
X140236329Y-96597607D01*
X140232686Y-96594423D01*
X140214278Y-96563448D01*
X140213644Y-96527112D01*
X140231183Y-96493493D01*
X140231245Y-96493424D01*
X140240916Y-96484798D01*
X140254209Y-96478742D01*
X140274917Y-96474811D01*
X140306828Y-96472556D01*
X140353734Y-96471531D01*
X140419424Y-96471289D01*
X140587571Y-96471289D01*
X140584186Y-96406378D01*
X140580800Y-96341467D01*
X140338723Y-96338414D01*
X140313707Y-96338086D01*
X140232087Y-96336606D01*
X140169768Y-96334222D01*
X140124154Y-96330227D01*
X140092652Y-96323913D01*
X140072667Y-96314574D01*
X140061604Y-96301503D01*
X140056869Y-96283992D01*
X140055867Y-96261335D01*
X140055873Y-96258970D01*
X140057027Y-96238939D01*
X140061824Y-96223146D01*
X140072632Y-96211090D01*
X140091817Y-96202267D01*
X140121745Y-96196175D01*
X140164783Y-96192311D01*
X140223299Y-96190174D01*
X140299657Y-96189260D01*
X140396226Y-96189067D01*
X140686406Y-96189067D01*
X140709803Y-96218811D01*
G37*
X145242794Y-96189146D02*
X145173386Y-96189518D01*
X145120997Y-96190385D01*
X145082847Y-96191946D01*
X145056159Y-96194403D01*
X145038153Y-96197957D01*
X145026049Y-96202810D01*
X145017069Y-96209161D01*
X145013818Y-96212084D01*
X144994043Y-96243142D01*
X144990482Y-96278828D01*
X145003491Y-96310510D01*
X145009506Y-96316913D01*
X145019235Y-96323121D01*
X145034901Y-96327910D01*
X145059408Y-96331514D01*
X145095661Y-96334164D01*
X145146565Y-96336095D01*
X145215026Y-96337539D01*
X145277617Y-96338418D01*
X145525334Y-96341467D01*
X145528719Y-96406378D01*
X145532105Y-96471289D01*
X145363958Y-96471289D01*
X145290959Y-96471919D01*
X145237517Y-96474553D01*
X145200628Y-96480309D01*
X145177288Y-96490304D01*
X145164494Y-96505656D01*
X145159242Y-96527482D01*
X145158445Y-96547738D01*
X145160923Y-96572592D01*
X145170277Y-96590906D01*
X145189383Y-96603637D01*
X145221118Y-96611741D01*
X145268359Y-96616176D01*
X145333983Y-96617899D01*
X145369801Y-96618045D01*
X145530978Y-96618045D01*
X145530978Y-96776089D01*
X145282622Y-96776089D01*
X145201213Y-96776202D01*
X145139342Y-96776712D01*
X145093968Y-96777870D01*
X145062054Y-96779930D01*
X145040559Y-96783146D01*
X145026443Y-96787772D01*
X145016668Y-96794059D01*
X145011689Y-96798667D01*
X144994610Y-96825560D01*
X144989111Y-96849467D01*
X144996963Y-96878667D01*
X145011689Y-96900267D01*
X145019546Y-96907066D01*
X145029688Y-96912346D01*
X145044844Y-96916298D01*
X145067741Y-96919113D01*
X145101109Y-96920982D01*
X145147675Y-96922098D01*
X145210167Y-96922651D01*
X145291314Y-96922833D01*
X145333422Y-96922845D01*
X145423598Y-96922765D01*
X145493924Y-96922398D01*
X145547129Y-96921552D01*
X145585940Y-96920036D01*
X145613087Y-96917659D01*
X145631298Y-96914229D01*
X145643300Y-96909554D01*
X145651822Y-96903444D01*
X145655156Y-96900267D01*
X145661755Y-96892670D01*
X145666927Y-96882870D01*
X145670846Y-96868239D01*
X145673684Y-96846152D01*
X145675615Y-96813982D01*
X145676812Y-96769103D01*
X145677448Y-96708889D01*
X145677697Y-96630713D01*
X145677734Y-96557923D01*
X145677700Y-96464707D01*
X145677465Y-96391431D01*
X145676830Y-96335458D01*
X145675594Y-96294151D01*
X145673556Y-96264872D01*
X145670517Y-96244984D01*
X145666277Y-96231850D01*
X145660635Y-96222832D01*
X145653391Y-96215293D01*
X145651606Y-96213612D01*
X145642945Y-96206172D01*
X145632882Y-96200409D01*
X145618625Y-96196112D01*
X145597383Y-96193064D01*
X145566364Y-96191051D01*
X145522777Y-96189860D01*
X145463831Y-96189275D01*
X145386734Y-96189083D01*
X145332001Y-96189067D01*
X145242794Y-96189146D01*
G36*
X145386734Y-96189083D02*
G01*
X145463831Y-96189275D01*
X145522777Y-96189860D01*
X145566364Y-96191051D01*
X145597383Y-96193064D01*
X145618625Y-96196112D01*
X145632882Y-96200409D01*
X145642945Y-96206172D01*
X145651606Y-96213612D01*
X145653391Y-96215293D01*
X145660635Y-96222832D01*
X145666277Y-96231850D01*
X145670517Y-96244984D01*
X145673556Y-96264872D01*
X145675594Y-96294151D01*
X145676830Y-96335458D01*
X145677465Y-96391431D01*
X145677700Y-96464707D01*
X145677734Y-96557923D01*
X145677697Y-96630713D01*
X145677448Y-96708889D01*
X145676812Y-96769103D01*
X145675615Y-96813982D01*
X145673684Y-96846152D01*
X145670846Y-96868239D01*
X145666927Y-96882870D01*
X145661755Y-96892670D01*
X145655156Y-96900267D01*
X145651822Y-96903444D01*
X145643300Y-96909554D01*
X145631298Y-96914229D01*
X145613087Y-96917659D01*
X145585940Y-96920036D01*
X145547129Y-96921552D01*
X145493924Y-96922398D01*
X145423598Y-96922765D01*
X145333422Y-96922845D01*
X145291314Y-96922833D01*
X145210167Y-96922651D01*
X145147675Y-96922098D01*
X145101109Y-96920982D01*
X145067741Y-96919113D01*
X145044844Y-96916298D01*
X145029688Y-96912346D01*
X145019546Y-96907066D01*
X145011689Y-96900267D01*
X144996963Y-96878667D01*
X144989111Y-96849467D01*
X144994610Y-96825560D01*
X145011689Y-96798667D01*
X145016668Y-96794059D01*
X145026443Y-96787772D01*
X145040559Y-96783146D01*
X145062054Y-96779930D01*
X145093968Y-96777870D01*
X145139342Y-96776712D01*
X145201213Y-96776202D01*
X145282622Y-96776089D01*
X145530978Y-96776089D01*
X145530978Y-96618045D01*
X145369801Y-96618045D01*
X145333983Y-96617899D01*
X145268359Y-96616176D01*
X145221118Y-96611741D01*
X145189383Y-96603637D01*
X145170277Y-96590906D01*
X145160923Y-96572592D01*
X145158445Y-96547738D01*
X145159242Y-96527482D01*
X145164494Y-96505656D01*
X145177288Y-96490304D01*
X145200628Y-96480309D01*
X145237517Y-96474553D01*
X145290959Y-96471919D01*
X145363958Y-96471289D01*
X145532105Y-96471289D01*
X145528719Y-96406378D01*
X145525334Y-96341467D01*
X145277617Y-96338418D01*
X145215026Y-96337539D01*
X145146565Y-96336095D01*
X145095661Y-96334164D01*
X145059408Y-96331514D01*
X145034901Y-96327910D01*
X145019235Y-96323121D01*
X145009506Y-96316913D01*
X145003491Y-96310510D01*
X144990482Y-96278828D01*
X144994043Y-96243142D01*
X145013818Y-96212084D01*
X145017069Y-96209161D01*
X145026049Y-96202810D01*
X145038153Y-96197957D01*
X145056159Y-96194403D01*
X145082847Y-96191946D01*
X145120997Y-96190385D01*
X145173386Y-96189518D01*
X145242794Y-96189146D01*
X145332001Y-96189067D01*
X145386734Y-96189083D01*
G37*
X136785335Y-96191034D02*
X136765745Y-96198035D01*
X136764990Y-96198377D01*
X136738387Y-96218678D01*
X136723730Y-96239561D01*
X136720862Y-96249352D01*
X136721004Y-96262361D01*
X136725039Y-96280895D01*
X136733854Y-96307257D01*
X136748331Y-96343752D01*
X136769355Y-96392687D01*
X136797812Y-96456365D01*
X136834585Y-96537093D01*
X136854825Y-96581216D01*
X136891375Y-96659985D01*
X136925685Y-96732423D01*
X136956448Y-96795880D01*
X136982352Y-96847708D01*
X137002090Y-96885259D01*
X137014350Y-96905884D01*
X137016776Y-96908733D01*
X137047817Y-96921302D01*
X137082879Y-96919619D01*
X137111000Y-96904332D01*
X137112146Y-96903089D01*
X137123332Y-96886154D01*
X137142096Y-96853170D01*
X137166125Y-96808380D01*
X137193103Y-96756032D01*
X137202799Y-96736742D01*
X137275986Y-96590150D01*
X137355760Y-96749393D01*
X137384233Y-96804415D01*
X137410650Y-96852132D01*
X137432852Y-96888893D01*
X137448681Y-96911044D01*
X137454046Y-96915741D01*
X137495743Y-96922102D01*
X137530151Y-96908733D01*
X137540272Y-96894446D01*
X137557786Y-96862692D01*
X137581265Y-96816597D01*
X137609280Y-96759285D01*
X137640401Y-96693880D01*
X137673201Y-96623507D01*
X137706250Y-96551291D01*
X137738119Y-96480355D01*
X137767381Y-96413825D01*
X137792605Y-96354826D01*
X137812364Y-96306481D01*
X137825228Y-96271915D01*
X137829769Y-96254253D01*
X137829723Y-96253613D01*
X137818674Y-96231388D01*
X137796590Y-96208753D01*
X137795290Y-96207768D01*
X137768147Y-96192425D01*
X137743042Y-96192574D01*
X137733632Y-96195466D01*
X137722166Y-96201718D01*
X137709990Y-96214014D01*
X137695643Y-96234908D01*
X137677664Y-96266949D01*
X137654593Y-96312688D01*
X137624970Y-96374677D01*
X137598255Y-96431898D01*
X137567520Y-96498226D01*
X137539979Y-96557874D01*
X137517062Y-96607725D01*
X137500202Y-96644664D01*
X137490827Y-96665573D01*
X137489460Y-96668845D01*
X137483311Y-96663497D01*
X137469178Y-96641109D01*
X137448943Y-96604946D01*
X137424485Y-96558277D01*
X137414752Y-96539022D01*
X137381783Y-96474004D01*
X137356357Y-96426654D01*
X137336388Y-96394219D01*
X137319790Y-96373946D01*
X137304476Y-96363082D01*
X137288360Y-96358875D01*
X137277857Y-96358400D01*
X137259330Y-96360042D01*
X137243096Y-96366831D01*
X137226965Y-96381566D01*
X137208749Y-96407044D01*
X137186261Y-96446061D01*
X137157311Y-96501414D01*
X137141338Y-96532903D01*
X137115430Y-96583087D01*
X137092833Y-96624704D01*
X137075542Y-96654242D01*
X137065550Y-96668189D01*
X137064191Y-96668770D01*
X137057739Y-96657793D01*
X137043292Y-96629290D01*
X137022297Y-96586244D01*
X136996203Y-96531638D01*
X136966454Y-96468454D01*
X136951820Y-96437071D01*
X136913750Y-96356078D01*
X136883095Y-96293756D01*
X136858263Y-96248071D01*
X136837663Y-96216989D01*
X136819702Y-96198478D01*
X136802790Y-96190504D01*
X136785335Y-96191034D01*
G36*
X136819702Y-96198478D02*
G01*
X136837663Y-96216989D01*
X136858263Y-96248071D01*
X136883095Y-96293756D01*
X136913750Y-96356078D01*
X136951820Y-96437071D01*
X136966454Y-96468454D01*
X136996203Y-96531638D01*
X137022297Y-96586244D01*
X137043292Y-96629290D01*
X137057739Y-96657793D01*
X137064191Y-96668770D01*
X137065550Y-96668189D01*
X137075542Y-96654242D01*
X137092833Y-96624704D01*
X137115430Y-96583087D01*
X137141338Y-96532903D01*
X137157311Y-96501414D01*
X137186261Y-96446061D01*
X137208749Y-96407044D01*
X137226965Y-96381566D01*
X137243096Y-96366831D01*
X137259330Y-96360042D01*
X137277857Y-96358400D01*
X137288360Y-96358875D01*
X137304476Y-96363082D01*
X137319790Y-96373946D01*
X137336388Y-96394219D01*
X137356357Y-96426654D01*
X137381783Y-96474004D01*
X137414752Y-96539022D01*
X137424485Y-96558277D01*
X137448943Y-96604946D01*
X137469178Y-96641109D01*
X137483311Y-96663497D01*
X137489460Y-96668845D01*
X137490827Y-96665573D01*
X137500202Y-96644664D01*
X137517062Y-96607725D01*
X137539979Y-96557874D01*
X137567520Y-96498226D01*
X137598255Y-96431898D01*
X137624970Y-96374677D01*
X137654593Y-96312688D01*
X137677664Y-96266949D01*
X137695643Y-96234908D01*
X137709990Y-96214014D01*
X137722166Y-96201718D01*
X137733632Y-96195466D01*
X137743042Y-96192574D01*
X137768147Y-96192425D01*
X137795290Y-96207768D01*
X137796590Y-96208753D01*
X137818674Y-96231388D01*
X137829723Y-96253613D01*
X137829769Y-96254253D01*
X137825228Y-96271915D01*
X137812364Y-96306481D01*
X137792605Y-96354826D01*
X137767381Y-96413825D01*
X137738119Y-96480355D01*
X137706250Y-96551291D01*
X137673201Y-96623507D01*
X137640401Y-96693880D01*
X137609280Y-96759285D01*
X137581265Y-96816597D01*
X137557786Y-96862692D01*
X137540272Y-96894446D01*
X137530151Y-96908733D01*
X137495743Y-96922102D01*
X137454046Y-96915741D01*
X137448681Y-96911044D01*
X137432852Y-96888893D01*
X137410650Y-96852132D01*
X137384233Y-96804415D01*
X137355760Y-96749393D01*
X137275986Y-96590150D01*
X137202799Y-96736742D01*
X137193103Y-96756032D01*
X137166125Y-96808380D01*
X137142096Y-96853170D01*
X137123332Y-96886154D01*
X137112146Y-96903089D01*
X137111000Y-96904332D01*
X137082879Y-96919619D01*
X137047817Y-96921302D01*
X137016776Y-96908733D01*
X137014350Y-96905884D01*
X137002090Y-96885259D01*
X136982352Y-96847708D01*
X136956448Y-96795880D01*
X136925685Y-96732423D01*
X136891375Y-96659985D01*
X136854825Y-96581216D01*
X136834585Y-96537093D01*
X136797812Y-96456365D01*
X136769355Y-96392687D01*
X136748331Y-96343752D01*
X136733854Y-96307257D01*
X136725039Y-96280895D01*
X136721004Y-96262361D01*
X136720862Y-96249352D01*
X136723730Y-96239561D01*
X136738387Y-96218678D01*
X136764990Y-96198377D01*
X136765745Y-96198035D01*
X136785335Y-96191034D01*
X136802790Y-96190504D01*
X136819702Y-96198478D01*
G37*
X144221703Y-96190351D02*
X144146888Y-96195581D01*
X144077306Y-96203750D01*
X144017002Y-96214550D01*
X143970020Y-96227673D01*
X143940406Y-96242813D01*
X143935860Y-96247269D01*
X143920054Y-96281850D01*
X143924847Y-96317351D01*
X143949364Y-96347725D01*
X143950534Y-96348596D01*
X143964954Y-96357954D01*
X143980008Y-96362876D01*
X144001005Y-96363473D01*
X144033257Y-96359861D01*
X144082073Y-96352154D01*
X144086000Y-96351505D01*
X144158739Y-96342569D01*
X144237217Y-96338161D01*
X144315927Y-96338119D01*
X144389361Y-96342279D01*
X144452011Y-96350479D01*
X144498370Y-96362557D01*
X144501416Y-96363771D01*
X144535048Y-96382615D01*
X144546864Y-96401685D01*
X144537614Y-96420439D01*
X144508047Y-96438337D01*
X144458911Y-96454837D01*
X144390957Y-96469396D01*
X144345645Y-96476406D01*
X144251456Y-96489889D01*
X144176544Y-96502214D01*
X144117717Y-96514449D01*
X144071785Y-96527661D01*
X144035555Y-96542917D01*
X144005838Y-96561285D01*
X143979442Y-96583831D01*
X143958230Y-96605971D01*
X143933065Y-96636819D01*
X143920681Y-96663345D01*
X143916808Y-96696026D01*
X143916667Y-96707995D01*
X143919576Y-96747712D01*
X143931202Y-96777259D01*
X143951323Y-96803486D01*
X143992216Y-96843576D01*
X144037817Y-96874149D01*
X144091513Y-96896203D01*
X144156692Y-96910735D01*
X144236744Y-96918741D01*
X144335057Y-96921218D01*
X144351289Y-96921177D01*
X144416849Y-96919818D01*
X144481866Y-96916730D01*
X144539252Y-96912356D01*
X144581922Y-96907140D01*
X144585372Y-96906541D01*
X144627796Y-96896491D01*
X144663780Y-96883796D01*
X144684150Y-96872190D01*
X144703107Y-96841572D01*
X144704427Y-96805918D01*
X144688085Y-96774144D01*
X144684429Y-96770551D01*
X144669315Y-96759876D01*
X144650415Y-96755276D01*
X144621162Y-96756059D01*
X144585651Y-96760127D01*
X144545970Y-96763762D01*
X144490345Y-96766828D01*
X144425406Y-96769053D01*
X144357785Y-96770164D01*
X144340000Y-96770237D01*
X144272128Y-96769964D01*
X144222454Y-96768646D01*
X144186610Y-96765827D01*
X144160224Y-96761050D01*
X144138926Y-96753857D01*
X144126126Y-96747867D01*
X144098000Y-96731233D01*
X144080068Y-96716168D01*
X144077447Y-96711897D01*
X144082976Y-96694263D01*
X144109260Y-96677192D01*
X144154478Y-96661458D01*
X144216808Y-96647838D01*
X144235171Y-96644804D01*
X144331090Y-96629738D01*
X144407641Y-96617146D01*
X144467780Y-96606111D01*
X144514460Y-96595720D01*
X144550637Y-96585056D01*
X144579265Y-96573205D01*
X144603298Y-96559251D01*
X144625692Y-96542281D01*
X144649402Y-96521378D01*
X144657380Y-96514049D01*
X144685353Y-96486699D01*
X144700160Y-96465029D01*
X144705952Y-96440232D01*
X144706889Y-96408983D01*
X144696575Y-96347705D01*
X144665752Y-96295640D01*
X144614595Y-96252958D01*
X144543283Y-96219825D01*
X144492400Y-96204964D01*
X144437100Y-96195366D01*
X144370853Y-96189936D01*
X144297706Y-96188367D01*
X144221703Y-96190351D01*
G36*
X144370853Y-96189936D02*
G01*
X144437100Y-96195366D01*
X144492400Y-96204964D01*
X144543283Y-96219825D01*
X144614595Y-96252958D01*
X144665752Y-96295640D01*
X144696575Y-96347705D01*
X144706889Y-96408983D01*
X144705952Y-96440232D01*
X144700160Y-96465029D01*
X144685353Y-96486699D01*
X144657380Y-96514049D01*
X144649402Y-96521378D01*
X144625692Y-96542281D01*
X144603298Y-96559251D01*
X144579265Y-96573205D01*
X144550637Y-96585056D01*
X144514460Y-96595720D01*
X144467780Y-96606111D01*
X144407641Y-96617146D01*
X144331090Y-96629738D01*
X144235171Y-96644804D01*
X144216808Y-96647838D01*
X144154478Y-96661458D01*
X144109260Y-96677192D01*
X144082976Y-96694263D01*
X144077447Y-96711897D01*
X144080068Y-96716168D01*
X144098000Y-96731233D01*
X144126126Y-96747867D01*
X144138926Y-96753857D01*
X144160224Y-96761050D01*
X144186610Y-96765827D01*
X144222454Y-96768646D01*
X144272128Y-96769964D01*
X144340000Y-96770237D01*
X144357785Y-96770164D01*
X144425406Y-96769053D01*
X144490345Y-96766828D01*
X144545970Y-96763762D01*
X144585651Y-96760127D01*
X144621162Y-96756059D01*
X144650415Y-96755276D01*
X144669315Y-96759876D01*
X144684429Y-96770551D01*
X144688085Y-96774144D01*
X144704427Y-96805918D01*
X144703107Y-96841572D01*
X144684150Y-96872190D01*
X144663780Y-96883796D01*
X144627796Y-96896491D01*
X144585372Y-96906541D01*
X144581922Y-96907140D01*
X144539252Y-96912356D01*
X144481866Y-96916730D01*
X144416849Y-96919818D01*
X144351289Y-96921177D01*
X144335057Y-96921218D01*
X144236744Y-96918741D01*
X144156692Y-96910735D01*
X144091513Y-96896203D01*
X144037817Y-96874149D01*
X143992216Y-96843576D01*
X143951323Y-96803486D01*
X143931202Y-96777259D01*
X143919576Y-96747712D01*
X143916667Y-96707995D01*
X143916808Y-96696026D01*
X143920681Y-96663345D01*
X143933065Y-96636819D01*
X143958230Y-96605971D01*
X143979442Y-96583831D01*
X144005838Y-96561285D01*
X144035555Y-96542917D01*
X144071785Y-96527661D01*
X144117717Y-96514449D01*
X144176544Y-96502214D01*
X144251456Y-96489889D01*
X144345645Y-96476406D01*
X144390957Y-96469396D01*
X144458911Y-96454837D01*
X144508047Y-96438337D01*
X144537614Y-96420439D01*
X144546864Y-96401685D01*
X144535048Y-96382615D01*
X144501416Y-96363771D01*
X144498370Y-96362557D01*
X144452011Y-96350479D01*
X144389361Y-96342279D01*
X144315927Y-96338119D01*
X144237217Y-96338161D01*
X144158739Y-96342569D01*
X144086000Y-96351505D01*
X144082073Y-96352154D01*
X144033257Y-96359861D01*
X144001005Y-96363473D01*
X143980008Y-96362876D01*
X143964954Y-96357954D01*
X143950534Y-96348596D01*
X143949364Y-96347725D01*
X143924847Y-96317351D01*
X143920054Y-96281850D01*
X143935860Y-96247269D01*
X143940406Y-96242813D01*
X143970020Y-96227673D01*
X144017002Y-96214550D01*
X144077306Y-96203750D01*
X144146888Y-96195581D01*
X144221703Y-96190351D01*
X144297706Y-96188367D01*
X144370853Y-96189936D01*
G37*
X140201571Y-91869071D02*
X140041430Y-91890245D01*
X139877490Y-91930385D01*
X139707687Y-91989889D01*
X139529957Y-92069154D01*
X139518690Y-92074699D01*
X139460995Y-92102725D01*
X139409448Y-92126802D01*
X139367809Y-92145249D01*
X139339838Y-92156386D01*
X139330267Y-92158933D01*
X139311050Y-92163941D01*
X139306439Y-92168147D01*
X139311542Y-92178580D01*
X139327582Y-92204868D01*
X139352712Y-92244257D01*
X139385086Y-92293991D01*
X139422857Y-92351315D01*
X139464178Y-92413476D01*
X139507202Y-92477718D01*
X139550083Y-92541285D01*
X139590974Y-92601425D01*
X139628029Y-92655380D01*
X139659400Y-92700397D01*
X139683241Y-92733721D01*
X139697706Y-92752597D01*
X139699691Y-92754787D01*
X139709809Y-92750138D01*
X139732150Y-92732962D01*
X139762720Y-92706440D01*
X139778464Y-92691964D01*
X139874953Y-92616682D01*
X139981664Y-92561241D01*
X140097168Y-92526141D01*
X140220038Y-92511880D01*
X140289439Y-92513051D01*
X140410577Y-92530212D01*
X140519795Y-92566094D01*
X140617418Y-92620959D01*
X140703772Y-92695070D01*
X140779185Y-92788688D01*
X140843982Y-92902076D01*
X140881399Y-92988667D01*
X140925252Y-93124366D01*
X140957572Y-93271850D01*
X140978443Y-93427314D01*
X140987949Y-93586956D01*
X140986173Y-93746973D01*
X140973197Y-93903561D01*
X140949106Y-94052918D01*
X140913982Y-94191240D01*
X140867908Y-94314724D01*
X140851627Y-94348978D01*
X140783380Y-94463064D01*
X140702921Y-94559557D01*
X140611430Y-94637670D01*
X140510089Y-94696617D01*
X140400080Y-94735612D01*
X140282585Y-94753868D01*
X140241117Y-94755211D01*
X140119559Y-94744290D01*
X139999122Y-94711474D01*
X139881334Y-94657439D01*
X139767723Y-94582865D01*
X139676315Y-94504539D01*
X139629785Y-94460008D01*
X139448517Y-94757271D01*
X139403420Y-94831433D01*
X139362181Y-94899646D01*
X139326265Y-94959459D01*
X139297134Y-95008420D01*
X139276250Y-95044079D01*
X139265076Y-95063984D01*
X139263625Y-95067079D01*
X139271854Y-95076718D01*
X139297433Y-95093999D01*
X139337127Y-95117283D01*
X139387703Y-95144934D01*
X139445926Y-95175315D01*
X139508563Y-95206790D01*
X139572379Y-95237722D01*
X139634140Y-95266473D01*
X139690612Y-95291408D01*
X139738562Y-95310889D01*
X139762014Y-95319318D01*
X139895779Y-95357133D01*
X140033673Y-95382136D01*
X140181378Y-95395140D01*
X140308167Y-95397468D01*
X140376122Y-95396373D01*
X140441723Y-95394275D01*
X140499153Y-95391434D01*
X140542597Y-95388106D01*
X140556702Y-95386422D01*
X140695716Y-95357587D01*
X140837243Y-95312468D01*
X140974725Y-95253750D01*
X141101606Y-95184120D01*
X141179111Y-95131441D01*
X141306519Y-95023239D01*
X141424822Y-94896671D01*
X141531828Y-94754866D01*
X141625348Y-94600951D01*
X141703190Y-94438053D01*
X141747044Y-94320756D01*
X141797292Y-94137128D01*
X141830791Y-93942581D01*
X141847551Y-93741325D01*
X141847584Y-93537568D01*
X141830899Y-93335521D01*
X141797507Y-93139392D01*
X141747420Y-92953391D01*
X141743603Y-92941803D01*
X141680719Y-92779750D01*
X141603972Y-92631832D01*
X141510758Y-92493865D01*
X141398473Y-92361661D01*
X141354608Y-92316399D01*
X141218466Y-92192457D01*
X141078509Y-92089915D01*
X140932589Y-92007656D01*
X140778558Y-91944564D01*
X140614268Y-91899523D01*
X140518711Y-91882033D01*
X140359977Y-91866466D01*
X140201571Y-91869071D01*
G36*
X140518711Y-91882033D02*
G01*
X140614268Y-91899523D01*
X140778558Y-91944564D01*
X140932589Y-92007656D01*
X141078509Y-92089915D01*
X141218466Y-92192457D01*
X141354608Y-92316399D01*
X141398473Y-92361661D01*
X141510758Y-92493865D01*
X141603972Y-92631832D01*
X141680719Y-92779750D01*
X141743603Y-92941803D01*
X141747420Y-92953391D01*
X141797507Y-93139392D01*
X141830899Y-93335521D01*
X141847584Y-93537568D01*
X141847551Y-93741325D01*
X141830791Y-93942581D01*
X141797292Y-94137128D01*
X141747044Y-94320756D01*
X141703190Y-94438053D01*
X141625348Y-94600951D01*
X141531828Y-94754866D01*
X141424822Y-94896671D01*
X141306519Y-95023239D01*
X141179111Y-95131441D01*
X141101606Y-95184120D01*
X140974725Y-95253750D01*
X140837243Y-95312468D01*
X140695716Y-95357587D01*
X140556702Y-95386422D01*
X140542597Y-95388106D01*
X140499153Y-95391434D01*
X140441723Y-95394275D01*
X140376122Y-95396373D01*
X140308167Y-95397468D01*
X140181378Y-95395140D01*
X140033673Y-95382136D01*
X139895779Y-95357133D01*
X139762014Y-95319318D01*
X139738562Y-95310889D01*
X139690612Y-95291408D01*
X139634140Y-95266473D01*
X139572379Y-95237722D01*
X139508563Y-95206790D01*
X139445926Y-95175315D01*
X139387703Y-95144934D01*
X139337127Y-95117283D01*
X139297433Y-95093999D01*
X139271854Y-95076718D01*
X139263625Y-95067079D01*
X139265076Y-95063984D01*
X139276250Y-95044079D01*
X139297134Y-95008420D01*
X139326265Y-94959459D01*
X139362181Y-94899646D01*
X139403420Y-94831433D01*
X139448517Y-94757271D01*
X139629785Y-94460008D01*
X139676315Y-94504539D01*
X139767723Y-94582865D01*
X139881334Y-94657439D01*
X139999122Y-94711474D01*
X140119559Y-94744290D01*
X140241117Y-94755211D01*
X140282585Y-94753868D01*
X140400080Y-94735612D01*
X140510089Y-94696617D01*
X140611430Y-94637670D01*
X140702921Y-94559557D01*
X140783380Y-94463064D01*
X140851627Y-94348978D01*
X140867908Y-94314724D01*
X140913982Y-94191240D01*
X140949106Y-94052918D01*
X140973197Y-93903561D01*
X140986173Y-93746973D01*
X140987949Y-93586956D01*
X140978443Y-93427314D01*
X140957572Y-93271850D01*
X140925252Y-93124366D01*
X140881399Y-92988667D01*
X140843982Y-92902076D01*
X140779185Y-92788688D01*
X140703772Y-92695070D01*
X140617418Y-92620959D01*
X140519795Y-92566094D01*
X140410577Y-92530212D01*
X140289439Y-92513051D01*
X140220038Y-92511880D01*
X140097168Y-92526141D01*
X139981664Y-92561241D01*
X139874953Y-92616682D01*
X139778464Y-92691964D01*
X139762720Y-92706440D01*
X139732150Y-92732962D01*
X139709809Y-92750138D01*
X139699691Y-92754787D01*
X139697706Y-92752597D01*
X139683241Y-92733721D01*
X139659400Y-92700397D01*
X139628029Y-92655380D01*
X139590974Y-92601425D01*
X139550083Y-92541285D01*
X139507202Y-92477718D01*
X139464178Y-92413476D01*
X139422857Y-92351315D01*
X139385086Y-92293991D01*
X139352712Y-92244257D01*
X139327582Y-92204868D01*
X139311542Y-92178580D01*
X139306439Y-92168147D01*
X139311050Y-92163941D01*
X139330267Y-92158933D01*
X139339838Y-92156386D01*
X139367809Y-92145249D01*
X139409448Y-92126802D01*
X139460995Y-92102725D01*
X139518690Y-92074699D01*
X139529957Y-92069154D01*
X139707687Y-91989889D01*
X139877490Y-91930385D01*
X140041430Y-91890245D01*
X140201571Y-91869071D01*
X140359977Y-91866466D01*
X140518711Y-91882033D01*
G37*
X134343493Y-93392245D02*
X134343474Y-93626662D01*
X134343448Y-93839603D01*
X134343375Y-94032168D01*
X134343218Y-94205459D01*
X134342936Y-94360576D01*
X134342491Y-94498620D01*
X134341844Y-94620692D01*
X134340955Y-94727894D01*
X134339787Y-94821326D01*
X134338299Y-94902090D01*
X134336454Y-94971286D01*
X134334211Y-95030015D01*
X134331531Y-95079379D01*
X134328377Y-95120478D01*
X134324708Y-95154413D01*
X134320487Y-95182286D01*
X134315673Y-95205198D01*
X134310227Y-95224249D01*
X134304112Y-95240540D01*
X134297288Y-95255173D01*
X134289715Y-95269249D01*
X134281355Y-95283868D01*
X134276161Y-95292974D01*
X134241896Y-95353689D01*
X135100045Y-95353689D01*
X135100045Y-95257733D01*
X135100776Y-95214370D01*
X135102728Y-95181205D01*
X135105537Y-95163424D01*
X135106779Y-95161778D01*
X135118201Y-95168662D01*
X135140916Y-95186505D01*
X135163615Y-95205879D01*
X135218200Y-95246614D01*
X135287679Y-95287617D01*
X135364730Y-95325123D01*
X135442035Y-95355364D01*
X135472887Y-95365012D01*
X135541384Y-95379578D01*
X135624236Y-95389539D01*
X135713629Y-95394583D01*
X135801752Y-95394396D01*
X135880793Y-95388666D01*
X135918489Y-95382858D01*
X136056586Y-95344797D01*
X136183887Y-95287073D01*
X136299708Y-95210211D01*
X136403363Y-95114739D01*
X136494167Y-95001179D01*
X136560969Y-94890381D01*
X136615836Y-94773625D01*
X136657837Y-94654276D01*
X136687833Y-94528283D01*
X136706689Y-94391594D01*
X136715268Y-94240158D01*
X136715994Y-94162711D01*
X136713900Y-94105934D01*
X135884783Y-94105934D01*
X135884576Y-94199002D01*
X135881663Y-94286692D01*
X135876000Y-94363772D01*
X135867545Y-94425009D01*
X135864962Y-94437350D01*
X135833160Y-94544633D01*
X135791502Y-94631658D01*
X135739637Y-94698642D01*
X135677219Y-94745805D01*
X135603900Y-94773365D01*
X135519331Y-94781541D01*
X135423165Y-94770551D01*
X135359689Y-94754829D01*
X135310546Y-94736639D01*
X135256417Y-94710791D01*
X135215756Y-94687089D01*
X135145200Y-94640721D01*
X135145200Y-93490530D01*
X135212608Y-93446962D01*
X135291133Y-93406040D01*
X135375319Y-93379389D01*
X135460443Y-93367465D01*
X135541784Y-93370722D01*
X135614620Y-93389615D01*
X135646574Y-93405184D01*
X135704499Y-93448181D01*
X135753456Y-93504953D01*
X135794610Y-93577575D01*
X135829126Y-93668121D01*
X135858167Y-93778666D01*
X135859448Y-93784533D01*
X135869619Y-93846788D01*
X135877261Y-93924594D01*
X135882330Y-94012720D01*
X135884783Y-94105934D01*
X136713900Y-94105934D01*
X136708143Y-93949895D01*
X136686198Y-93754059D01*
X136650214Y-93575332D01*
X136600241Y-93413845D01*
X136536332Y-93269726D01*
X136458538Y-93143106D01*
X136366911Y-93034115D01*
X136261503Y-92942883D01*
X136216338Y-92911932D01*
X136115389Y-92855785D01*
X136012099Y-92816174D01*
X135902011Y-92792014D01*
X135780670Y-92782219D01*
X135688164Y-92783265D01*
X135558510Y-92794231D01*
X135445916Y-92816046D01*
X135347125Y-92849714D01*
X135258879Y-92896236D01*
X135210014Y-92930448D01*
X135180647Y-92952362D01*
X135158957Y-92967333D01*
X135150747Y-92971733D01*
X135149132Y-92960904D01*
X135147841Y-92930251D01*
X135146862Y-92882526D01*
X135146183Y-92820479D01*
X135145790Y-92746862D01*
X135145670Y-92664427D01*
X135145812Y-92575925D01*
X135146203Y-92484107D01*
X135146829Y-92391724D01*
X135147680Y-92301528D01*
X135148740Y-92216271D01*
X135149999Y-92138703D01*
X135151444Y-92071576D01*
X135153062Y-92017641D01*
X135154839Y-91979650D01*
X135155331Y-91972667D01*
X135162908Y-91902251D01*
X135174469Y-91847102D01*
X135192208Y-91799981D01*
X135218318Y-91753647D01*
X135224585Y-91744067D01*
X135249017Y-91707378D01*
X134343689Y-91707378D01*
X134343493Y-93392245D01*
G36*
X136715994Y-94162711D02*
G01*
X136715268Y-94240158D01*
X136706689Y-94391594D01*
X136687833Y-94528283D01*
X136657837Y-94654276D01*
X136615836Y-94773625D01*
X136560969Y-94890381D01*
X136494167Y-95001179D01*
X136403363Y-95114739D01*
X136299708Y-95210211D01*
X136183887Y-95287073D01*
X136056586Y-95344797D01*
X135918489Y-95382858D01*
X135880793Y-95388666D01*
X135801752Y-95394396D01*
X135713629Y-95394583D01*
X135624236Y-95389539D01*
X135541384Y-95379578D01*
X135472887Y-95365012D01*
X135442035Y-95355364D01*
X135364730Y-95325123D01*
X135287679Y-95287617D01*
X135218200Y-95246614D01*
X135163615Y-95205879D01*
X135140916Y-95186505D01*
X135118201Y-95168662D01*
X135106779Y-95161778D01*
X135105537Y-95163424D01*
X135102728Y-95181205D01*
X135100776Y-95214370D01*
X135100045Y-95257733D01*
X135100045Y-95353689D01*
X134241896Y-95353689D01*
X134276161Y-95292974D01*
X134281355Y-95283868D01*
X134289715Y-95269249D01*
X134297288Y-95255173D01*
X134304112Y-95240540D01*
X134310227Y-95224249D01*
X134315673Y-95205198D01*
X134320487Y-95182286D01*
X134324708Y-95154413D01*
X134328377Y-95120478D01*
X134331531Y-95079379D01*
X134334211Y-95030015D01*
X134336454Y-94971286D01*
X134338299Y-94902090D01*
X134339787Y-94821326D01*
X134340955Y-94727894D01*
X134341844Y-94620692D01*
X134342491Y-94498620D01*
X134342936Y-94360576D01*
X134343218Y-94205459D01*
X134343375Y-94032168D01*
X134343448Y-93839603D01*
X134343474Y-93626662D01*
X134343485Y-93490530D01*
X135145200Y-93490530D01*
X135145200Y-94640721D01*
X135215756Y-94687089D01*
X135256417Y-94710791D01*
X135310546Y-94736639D01*
X135359689Y-94754829D01*
X135423165Y-94770551D01*
X135519331Y-94781541D01*
X135603900Y-94773365D01*
X135677219Y-94745805D01*
X135739637Y-94698642D01*
X135791502Y-94631658D01*
X135833160Y-94544633D01*
X135864962Y-94437350D01*
X135867545Y-94425009D01*
X135876000Y-94363772D01*
X135881663Y-94286692D01*
X135884576Y-94199002D01*
X135884783Y-94105934D01*
X135882330Y-94012720D01*
X135877261Y-93924594D01*
X135869619Y-93846788D01*
X135859448Y-93784533D01*
X135858167Y-93778666D01*
X135829126Y-93668121D01*
X135794610Y-93577575D01*
X135753456Y-93504953D01*
X135704499Y-93448181D01*
X135646574Y-93405184D01*
X135614620Y-93389615D01*
X135541784Y-93370722D01*
X135460443Y-93367465D01*
X135375319Y-93379389D01*
X135291133Y-93406040D01*
X135212608Y-93446962D01*
X135145200Y-93490530D01*
X134343485Y-93490530D01*
X134343493Y-93392245D01*
X134343689Y-91707378D01*
X135249017Y-91707378D01*
X135224585Y-91744067D01*
X135218318Y-91753647D01*
X135192208Y-91799981D01*
X135174469Y-91847102D01*
X135162908Y-91902251D01*
X135155331Y-91972667D01*
X135154839Y-91979650D01*
X135153062Y-92017641D01*
X135151444Y-92071576D01*
X135149999Y-92138703D01*
X135148740Y-92216271D01*
X135147680Y-92301528D01*
X135146829Y-92391724D01*
X135146203Y-92484107D01*
X135145812Y-92575925D01*
X135145670Y-92664427D01*
X135145790Y-92746862D01*
X135146183Y-92820479D01*
X135146862Y-92882526D01*
X135147841Y-92930251D01*
X135149132Y-92960904D01*
X135150747Y-92971733D01*
X135158957Y-92967333D01*
X135180647Y-92952362D01*
X135210014Y-92930448D01*
X135258879Y-92896236D01*
X135347125Y-92849714D01*
X135445916Y-92816046D01*
X135558510Y-92794231D01*
X135688164Y-92783265D01*
X135780670Y-92782219D01*
X135902011Y-92792014D01*
X136012099Y-92816174D01*
X136115389Y-92855785D01*
X136216338Y-92911932D01*
X136261503Y-92942883D01*
X136366911Y-93034115D01*
X136458538Y-93143106D01*
X136536332Y-93269726D01*
X136600241Y-93413845D01*
X136650214Y-93575332D01*
X136686198Y-93754059D01*
X136708143Y-93949895D01*
X136713900Y-94105934D01*
X136715994Y-94162711D01*
G37*
X137856426Y-92786552D02*
X137704508Y-92806567D01*
X137569244Y-92840202D01*
X137449761Y-92887725D01*
X137345185Y-92949405D01*
X137267576Y-93012965D01*
X137198735Y-93087099D01*
X137144994Y-93166871D01*
X137102090Y-93259091D01*
X137086616Y-93302161D01*
X137073756Y-93341142D01*
X137062554Y-93377289D01*
X137052880Y-93412434D01*
X137044604Y-93448410D01*
X137037597Y-93487050D01*
X137031728Y-93530185D01*
X137026869Y-93579649D01*
X137022890Y-93637273D01*
X137019660Y-93704891D01*
X137017051Y-93784334D01*
X137014933Y-93877436D01*
X137013176Y-93986027D01*
X137011651Y-94111942D01*
X137010228Y-94257012D01*
X137008975Y-94399778D01*
X137007649Y-94555968D01*
X137006444Y-94691239D01*
X137005234Y-94807246D01*
X137003894Y-94905645D01*
X137002300Y-94988093D01*
X137000325Y-95056246D01*
X136997844Y-95111760D01*
X136994731Y-95156292D01*
X136990862Y-95191498D01*
X136986111Y-95219034D01*
X136980352Y-95240556D01*
X136973461Y-95257722D01*
X136965311Y-95272186D01*
X136955777Y-95285606D01*
X136944734Y-95299638D01*
X136940434Y-95305071D01*
X136924614Y-95327910D01*
X136917578Y-95343463D01*
X136917556Y-95343922D01*
X136928433Y-95346121D01*
X136959418Y-95348147D01*
X137008043Y-95349942D01*
X137071837Y-95351451D01*
X137148331Y-95352616D01*
X137235056Y-95353380D01*
X137329543Y-95353686D01*
X137340450Y-95353689D01*
X137763343Y-95353689D01*
X137766605Y-95257622D01*
X137769867Y-95161556D01*
X137831956Y-95212543D01*
X137929286Y-95280057D01*
X138039187Y-95334749D01*
X138125651Y-95364978D01*
X138194722Y-95379666D01*
X138278075Y-95389659D01*
X138367841Y-95394646D01*
X138456155Y-95394313D01*
X138535149Y-95388351D01*
X138571378Y-95382638D01*
X138711397Y-95344776D01*
X138837822Y-95289932D01*
X138949740Y-95218924D01*
X139046238Y-95132568D01*
X139126400Y-95031679D01*
X139189313Y-94917076D01*
X139233688Y-94790984D01*
X139246022Y-94734401D01*
X139253632Y-94672202D01*
X139257261Y-94597363D01*
X139257755Y-94563467D01*
X139257690Y-94560282D01*
X138497752Y-94560282D01*
X138488459Y-94635333D01*
X138460272Y-94699160D01*
X138411803Y-94754798D01*
X138406746Y-94759211D01*
X138358452Y-94794037D01*
X138306743Y-94816620D01*
X138246011Y-94828540D01*
X138170648Y-94831383D01*
X138152541Y-94830978D01*
X138098722Y-94828325D01*
X138058692Y-94822909D01*
X138023676Y-94812745D01*
X137984897Y-94795850D01*
X137974255Y-94790672D01*
X137913604Y-94754844D01*
X137866785Y-94712212D01*
X137854048Y-94696973D01*
X137809378Y-94640462D01*
X137809378Y-94444586D01*
X137809914Y-94365939D01*
X137811604Y-94307988D01*
X137814572Y-94268875D01*
X137818943Y-94246741D01*
X137823028Y-94240274D01*
X137838953Y-94237111D01*
X137872736Y-94234488D01*
X137919660Y-94232655D01*
X137975007Y-94231857D01*
X137983894Y-94231842D01*
X138104670Y-94237096D01*
X138207340Y-94253263D01*
X138293894Y-94280961D01*
X138366319Y-94320808D01*
X138421249Y-94367758D01*
X138465796Y-94425645D01*
X138490520Y-94488693D01*
X138497752Y-94560282D01*
X139257690Y-94560282D01*
X139255822Y-94469712D01*
X139247478Y-94390812D01*
X139231232Y-94319590D01*
X139205595Y-94248864D01*
X139181599Y-94196493D01*
X139122980Y-94101196D01*
X139044883Y-94013170D01*
X138949685Y-93934017D01*
X138839762Y-93865340D01*
X138717490Y-93808741D01*
X138585245Y-93765821D01*
X138520578Y-93750882D01*
X138384396Y-93728777D01*
X138235951Y-93714194D01*
X138084495Y-93707813D01*
X137957936Y-93709445D01*
X137796050Y-93716224D01*
X137803470Y-93657245D01*
X137822762Y-93558092D01*
X137853896Y-93477372D01*
X137897731Y-93414466D01*
X137955129Y-93368756D01*
X138026952Y-93339622D01*
X138114059Y-93326447D01*
X138217314Y-93328611D01*
X138255289Y-93332612D01*
X138396480Y-93357780D01*
X138533293Y-93398814D01*
X138627822Y-93436815D01*
X138672982Y-93456190D01*
X138711415Y-93471760D01*
X138737766Y-93481405D01*
X138745454Y-93483452D01*
X138755198Y-93474374D01*
X138771917Y-93445405D01*
X138795768Y-93396217D01*
X138826907Y-93326484D01*
X138865493Y-93235879D01*
X138872090Y-93220089D01*
X138902147Y-93147772D01*
X138929126Y-93082425D01*
X138951864Y-93026906D01*
X138969194Y-92984072D01*
X138979952Y-92956781D01*
X138983059Y-92947942D01*
X138973060Y-92943187D01*
X138946783Y-92937910D01*
X138918511Y-92934231D01*
X138888354Y-92929474D01*
X138840567Y-92920028D01*
X138779388Y-92906820D01*
X138709054Y-92890776D01*
X138633806Y-92872820D01*
X138605245Y-92865797D01*
X138500184Y-92840209D01*
X138412520Y-92820147D01*
X138337932Y-92804969D01*
X138272097Y-92794035D01*
X138210693Y-92786704D01*
X138149398Y-92782335D01*
X138083890Y-92780287D01*
X138025872Y-92779889D01*
X137856426Y-92786552D01*
G36*
X139257755Y-94563467D02*
G01*
X139257261Y-94597363D01*
X139253632Y-94672202D01*
X139246022Y-94734401D01*
X139233688Y-94790984D01*
X139189313Y-94917076D01*
X139126400Y-95031679D01*
X139046238Y-95132568D01*
X138949740Y-95218924D01*
X138837822Y-95289932D01*
X138711397Y-95344776D01*
X138571378Y-95382638D01*
X138535149Y-95388351D01*
X138456155Y-95394313D01*
X138367841Y-95394646D01*
X138278075Y-95389659D01*
X138194722Y-95379666D01*
X138125651Y-95364978D01*
X138039187Y-95334749D01*
X137929286Y-95280057D01*
X137831956Y-95212543D01*
X137769867Y-95161556D01*
X137766605Y-95257622D01*
X137763343Y-95353689D01*
X137340450Y-95353689D01*
X137329543Y-95353686D01*
X137235056Y-95353380D01*
X137148331Y-95352616D01*
X137071837Y-95351451D01*
X137008043Y-95349942D01*
X136959418Y-95348147D01*
X136928433Y-95346121D01*
X136917556Y-95343922D01*
X136917578Y-95343463D01*
X136924614Y-95327910D01*
X136940434Y-95305071D01*
X136944734Y-95299638D01*
X136955777Y-95285606D01*
X136965311Y-95272186D01*
X136973461Y-95257722D01*
X136980352Y-95240556D01*
X136986111Y-95219034D01*
X136990862Y-95191498D01*
X136994731Y-95156292D01*
X136997844Y-95111760D01*
X137000325Y-95056246D01*
X137002300Y-94988093D01*
X137003894Y-94905645D01*
X137005234Y-94807246D01*
X137006444Y-94691239D01*
X137007649Y-94555968D01*
X137008595Y-94444586D01*
X137809378Y-94444586D01*
X137809378Y-94640462D01*
X137854048Y-94696973D01*
X137866785Y-94712212D01*
X137913604Y-94754844D01*
X137974255Y-94790672D01*
X137984897Y-94795850D01*
X138023676Y-94812745D01*
X138058692Y-94822909D01*
X138098722Y-94828325D01*
X138152541Y-94830978D01*
X138170648Y-94831383D01*
X138246011Y-94828540D01*
X138306743Y-94816620D01*
X138358452Y-94794037D01*
X138406746Y-94759211D01*
X138411803Y-94754798D01*
X138460272Y-94699160D01*
X138488459Y-94635333D01*
X138497752Y-94560282D01*
X138490520Y-94488693D01*
X138465796Y-94425645D01*
X138421249Y-94367758D01*
X138366319Y-94320808D01*
X138293894Y-94280961D01*
X138207340Y-94253263D01*
X138104670Y-94237096D01*
X137983894Y-94231842D01*
X137975007Y-94231857D01*
X137919660Y-94232655D01*
X137872736Y-94234488D01*
X137838953Y-94237111D01*
X137823028Y-94240274D01*
X137818943Y-94246741D01*
X137814572Y-94268875D01*
X137811604Y-94307988D01*
X137809914Y-94365939D01*
X137809378Y-94444586D01*
X137008595Y-94444586D01*
X137008975Y-94399778D01*
X137010228Y-94257012D01*
X137011651Y-94111942D01*
X137013176Y-93986027D01*
X137014933Y-93877436D01*
X137017051Y-93784334D01*
X137019660Y-93704891D01*
X137022890Y-93637273D01*
X137026869Y-93579649D01*
X137031728Y-93530185D01*
X137037597Y-93487050D01*
X137044604Y-93448410D01*
X137052880Y-93412434D01*
X137062554Y-93377289D01*
X137073756Y-93341142D01*
X137086616Y-93302161D01*
X137102090Y-93259091D01*
X137144994Y-93166871D01*
X137198735Y-93087099D01*
X137267576Y-93012965D01*
X137345185Y-92949405D01*
X137449761Y-92887725D01*
X137569244Y-92840202D01*
X137704508Y-92806567D01*
X137856426Y-92786552D01*
X138025872Y-92779889D01*
X138083890Y-92780287D01*
X138149398Y-92782335D01*
X138210693Y-92786704D01*
X138272097Y-92794035D01*
X138337932Y-92804969D01*
X138412520Y-92820147D01*
X138500184Y-92840209D01*
X138605245Y-92865797D01*
X138633806Y-92872820D01*
X138709054Y-92890776D01*
X138779388Y-92906820D01*
X138840567Y-92920028D01*
X138888354Y-92929474D01*
X138918511Y-92934231D01*
X138946783Y-92937910D01*
X138973060Y-92943187D01*
X138983059Y-92947942D01*
X138979952Y-92956781D01*
X138969194Y-92984072D01*
X138951864Y-93026906D01*
X138929126Y-93082425D01*
X138902147Y-93147772D01*
X138872090Y-93220089D01*
X138865493Y-93235879D01*
X138826907Y-93326484D01*
X138795768Y-93396217D01*
X138771917Y-93445405D01*
X138755198Y-93474374D01*
X138745454Y-93483452D01*
X138737766Y-93481405D01*
X138711415Y-93471760D01*
X138672982Y-93456190D01*
X138627822Y-93436815D01*
X138533293Y-93398814D01*
X138396480Y-93357780D01*
X138255289Y-93332612D01*
X138217314Y-93328611D01*
X138114059Y-93326447D01*
X138026952Y-93339622D01*
X137955129Y-93368756D01*
X137897731Y-93414466D01*
X137853896Y-93477372D01*
X137822762Y-93558092D01*
X137803470Y-93657245D01*
X137796050Y-93716224D01*
X137957936Y-93709445D01*
X138084495Y-93707813D01*
X138235951Y-93714194D01*
X138384396Y-93728777D01*
X138520578Y-93750882D01*
X138585245Y-93765821D01*
X138717490Y-93808741D01*
X138839762Y-93865340D01*
X138949685Y-93934017D01*
X139044883Y-94013170D01*
X139122980Y-94101196D01*
X139181599Y-94196493D01*
X139205595Y-94248864D01*
X139231232Y-94319590D01*
X139247478Y-94390812D01*
X139255822Y-94469712D01*
X139257690Y-94560282D01*
X139257755Y-94563467D01*
G37*
X143476400Y-91409054D02*
X143465535Y-91522993D01*
X143433918Y-91630616D01*
X143383015Y-91729615D01*
X143314293Y-91817684D01*
X143229219Y-91892516D01*
X143132232Y-91950384D01*
X143025964Y-91990005D01*
X142918950Y-92008573D01*
X142813300Y-92007434D01*
X142711125Y-91987930D01*
X142614534Y-91951406D01*
X142525638Y-91899205D01*
X142446546Y-91832673D01*
X142379369Y-91753152D01*
X142326217Y-91661987D01*
X142289199Y-91560523D01*
X142270427Y-91450102D01*
X142268489Y-91400206D01*
X142268489Y-91312267D01*
X142216560Y-91312267D01*
X142180253Y-91315111D01*
X142153355Y-91326911D01*
X142126249Y-91350649D01*
X142087867Y-91389031D01*
X142087867Y-93580602D01*
X142087876Y-93842739D01*
X142087908Y-94083241D01*
X142087972Y-94303048D01*
X142088076Y-94503101D01*
X142088227Y-94684344D01*
X142088434Y-94847716D01*
X142088706Y-94994160D01*
X142089050Y-95124617D01*
X142089474Y-95240029D01*
X142089987Y-95341338D01*
X142090597Y-95429484D01*
X142091312Y-95505410D01*
X142092140Y-95570057D01*
X142093089Y-95624367D01*
X142094167Y-95669280D01*
X142095383Y-95705740D01*
X142096745Y-95734687D01*
X142098261Y-95757063D01*
X142099938Y-95773809D01*
X142101786Y-95785868D01*
X142103813Y-95794180D01*
X142106025Y-95799687D01*
X142107108Y-95801537D01*
X142111271Y-95808549D01*
X142114805Y-95814996D01*
X142118635Y-95820900D01*
X142123682Y-95826286D01*
X142130871Y-95831178D01*
X142141123Y-95835598D01*
X142155364Y-95839572D01*
X142174514Y-95843121D01*
X142199499Y-95846270D01*
X142231240Y-95849042D01*
X142270662Y-95851461D01*
X142318686Y-95853551D01*
X142376237Y-95855335D01*
X142444237Y-95856837D01*
X142523610Y-95858080D01*
X142615279Y-95859089D01*
X142720166Y-95859885D01*
X142839196Y-95860494D01*
X142973290Y-95860939D01*
X143123373Y-95861243D01*
X143290367Y-95861430D01*
X143475196Y-95861524D01*
X143678783Y-95861548D01*
X143902050Y-95861525D01*
X144145922Y-95861480D01*
X144411321Y-95861437D01*
X144449704Y-95861432D01*
X144716682Y-95861389D01*
X144962002Y-95861318D01*
X145186583Y-95861213D01*
X145391345Y-95861066D01*
X145577206Y-95860869D01*
X145745088Y-95860616D01*
X145895908Y-95860300D01*
X146030587Y-95859913D01*
X146150044Y-95859447D01*
X146255199Y-95858897D01*
X146346971Y-95858253D01*
X146426279Y-95857511D01*
X146494043Y-95856661D01*
X146551182Y-95855697D01*
X146598617Y-95854611D01*
X146637266Y-95853397D01*
X146668049Y-95852047D01*
X146691885Y-95850555D01*
X146709694Y-95848911D01*
X146722395Y-95847111D01*
X146730908Y-95845145D01*
X146735266Y-95843477D01*
X146743728Y-95839906D01*
X146751497Y-95837270D01*
X146758602Y-95834634D01*
X146765073Y-95831062D01*
X146770939Y-95825621D01*
X146776229Y-95817375D01*
X146780974Y-95805390D01*
X146785202Y-95788731D01*
X146788943Y-95766463D01*
X146792227Y-95737652D01*
X146795083Y-95701363D01*
X146797540Y-95656661D01*
X146799629Y-95602611D01*
X146801378Y-95538279D01*
X146802817Y-95462730D01*
X146803976Y-95375030D01*
X146804883Y-95274243D01*
X146805569Y-95159434D01*
X146806063Y-95029670D01*
X146806395Y-94884015D01*
X146806593Y-94721535D01*
X146806687Y-94541295D01*
X146806708Y-94342360D01*
X146806685Y-94123796D01*
X146806646Y-93884668D01*
X146806622Y-93624040D01*
X146806622Y-93581889D01*
X146806636Y-93318992D01*
X146806661Y-93077732D01*
X146806671Y-92857165D01*
X146806642Y-92656352D01*
X146806548Y-92474349D01*
X146806362Y-92310216D01*
X146806059Y-92163011D01*
X146805614Y-92031792D01*
X146805034Y-91921867D01*
X146502197Y-91921867D01*
X146462407Y-91979711D01*
X146451236Y-91995479D01*
X146441166Y-92009441D01*
X146432138Y-92022784D01*
X146424097Y-92036693D01*
X146416986Y-92052356D01*
X146410747Y-92070958D01*
X146405325Y-92093686D01*
X146400662Y-92121727D01*
X146396701Y-92156267D01*
X146393385Y-92198492D01*
X146390659Y-92249589D01*
X146388464Y-92310744D01*
X146386745Y-92383144D01*
X146385444Y-92467975D01*
X146384505Y-92566422D01*
X146383870Y-92679674D01*
X146383484Y-92808916D01*
X146383288Y-92955334D01*
X146383227Y-93120116D01*
X146383243Y-93304447D01*
X146383280Y-93509513D01*
X146383289Y-93632133D01*
X146383265Y-93849082D01*
X146383231Y-94044642D01*
X146383243Y-94219999D01*
X146383358Y-94376341D01*
X146383630Y-94514857D01*
X146384118Y-94636734D01*
X146384876Y-94743160D01*
X146385962Y-94835322D01*
X146387431Y-94914409D01*
X146389340Y-94981608D01*
X146391744Y-95038107D01*
X146394701Y-95085093D01*
X146398266Y-95123755D01*
X146402495Y-95155280D01*
X146407446Y-95180855D01*
X146413173Y-95201670D01*
X146419733Y-95218911D01*
X146427183Y-95233765D01*
X146435579Y-95247422D01*
X146444976Y-95261069D01*
X146455432Y-95275893D01*
X146461523Y-95284783D01*
X146500296Y-95342400D01*
X145968732Y-95342400D01*
X145845483Y-95342365D01*
X145742987Y-95342215D01*
X145659420Y-95341878D01*
X145592956Y-95341286D01*
X145541771Y-95340367D01*
X145504041Y-95339051D01*
X145477940Y-95337269D01*
X145461644Y-95334951D01*
X145453328Y-95332026D01*
X145451168Y-95328424D01*
X145453339Y-95324075D01*
X145454535Y-95322645D01*
X145479685Y-95285573D01*
X145505583Y-95232772D01*
X145529192Y-95170770D01*
X145537461Y-95144357D01*
X145542078Y-95126416D01*
X145545979Y-95105355D01*
X145549248Y-95079089D01*
X145551966Y-95045532D01*
X145554215Y-95002599D01*
X145556077Y-94948204D01*
X145557636Y-94880262D01*
X145558972Y-94796688D01*
X145560169Y-94695395D01*
X145561308Y-94574300D01*
X145561685Y-94529600D01*
X145562702Y-94404449D01*
X145563460Y-94300082D01*
X145563903Y-94214707D01*
X145563970Y-94146533D01*
X145563605Y-94093765D01*
X145562748Y-94054614D01*
X145561341Y-94027285D01*
X145559325Y-94009986D01*
X145556643Y-94000926D01*
X145553236Y-93998312D01*
X145549044Y-94000351D01*
X145544571Y-94004667D01*
X145534216Y-94017602D01*
X145512158Y-94046676D01*
X145479957Y-94089759D01*
X145439174Y-94144718D01*
X145391370Y-94209423D01*
X145338105Y-94281742D01*
X145280940Y-94359544D01*
X145221437Y-94440698D01*
X145161155Y-94523072D01*
X145101655Y-94604536D01*
X145044498Y-94682957D01*
X144991245Y-94756204D01*
X144943457Y-94822147D01*
X144902693Y-94878654D01*
X144870516Y-94923593D01*
X144848485Y-94954834D01*
X144843917Y-94961466D01*
X144820996Y-94998369D01*
X144794188Y-95046359D01*
X144768789Y-95095897D01*
X144765568Y-95102577D01*
X144743890Y-95150772D01*
X144731304Y-95188334D01*
X144725574Y-95224160D01*
X144724456Y-95266200D01*
X144725090Y-95342400D01*
X143570651Y-95342400D01*
X143661815Y-95248669D01*
X143708612Y-95198775D01*
X143758899Y-95142295D01*
X143804944Y-95088026D01*
X143825369Y-95062673D01*
X143855807Y-95023128D01*
X143895862Y-94969916D01*
X143944361Y-94904667D01*
X144000135Y-94829011D01*
X144062011Y-94744577D01*
X144128819Y-94652994D01*
X144199387Y-94555892D01*
X144272545Y-94454901D01*
X144347121Y-94351650D01*
X144421944Y-94247768D01*
X144495843Y-94144885D01*
X144567646Y-94044631D01*
X144636184Y-93948636D01*
X144700284Y-93858527D01*
X144758775Y-93775936D01*
X144810486Y-93702492D01*
X144854247Y-93639824D01*
X144888885Y-93589561D01*
X144913230Y-93553334D01*
X144926111Y-93532771D01*
X144927869Y-93528668D01*
X144919910Y-93517342D01*
X144899115Y-93490162D01*
X144866847Y-93448829D01*
X144824470Y-93395044D01*
X144773347Y-93330506D01*
X144714841Y-93256918D01*
X144650314Y-93175978D01*
X144581131Y-93089388D01*
X144508653Y-92998848D01*
X144434246Y-92906060D01*
X144374517Y-92831702D01*
X143363511Y-92831702D01*
X143357602Y-92844659D01*
X143343272Y-92866908D01*
X143342225Y-92868391D01*
X143323438Y-92898544D01*
X143303791Y-92935375D01*
X143299892Y-92943511D01*
X143296356Y-92951940D01*
X143293230Y-92962059D01*
X143290486Y-92975260D01*
X143288092Y-92992938D01*
X143286019Y-93016484D01*
X143284235Y-93047293D01*
X143282712Y-93086757D01*
X143281419Y-93136269D01*
X143280326Y-93197223D01*
X143279403Y-93271011D01*
X143278619Y-93359028D01*
X143277945Y-93462665D01*
X143277350Y-93583316D01*
X143276805Y-93722374D01*
X143276279Y-93881232D01*
X143275745Y-94060089D01*
X143275206Y-94245207D01*
X143274772Y-94409145D01*
X143274509Y-94553303D01*
X143274484Y-94679079D01*
X143274765Y-94787871D01*
X143275419Y-94881077D01*
X143276514Y-94960097D01*
X143278118Y-95026328D01*
X143280297Y-95081170D01*
X143283119Y-95126021D01*
X143286651Y-95162278D01*
X143290961Y-95191341D01*
X143296117Y-95214609D01*
X143302185Y-95233479D01*
X143309233Y-95249351D01*
X143317329Y-95263622D01*
X143326540Y-95277691D01*
X143335040Y-95290158D01*
X143352176Y-95316452D01*
X143362322Y-95334037D01*
X143363511Y-95337257D01*
X143352604Y-95338334D01*
X143321411Y-95339335D01*
X143272223Y-95340235D01*
X143207333Y-95341010D01*
X143129030Y-95341637D01*
X143039607Y-95342091D01*
X142941356Y-95342349D01*
X142872445Y-95342400D01*
X142767452Y-95342180D01*
X142670610Y-95341548D01*
X142584107Y-95340549D01*
X142510132Y-95339227D01*
X142450874Y-95337626D01*
X142408520Y-95335791D01*
X142385260Y-95333765D01*
X142381378Y-95332493D01*
X142389076Y-95317591D01*
X142397074Y-95309560D01*
X142410246Y-95292434D01*
X142427485Y-95262183D01*
X142439407Y-95237622D01*
X142466045Y-95178711D01*
X142469120Y-94001845D01*
X142472195Y-92824978D01*
X142917853Y-92824978D01*
X143015670Y-92825142D01*
X143106064Y-92825611D01*
X143186630Y-92826347D01*
X143254962Y-92827316D01*
X143308656Y-92828480D01*
X143345305Y-92829803D01*
X143362504Y-92831249D01*
X143363511Y-92831702D01*
X144374517Y-92831702D01*
X144359270Y-92812722D01*
X144285090Y-92720537D01*
X144213069Y-92631204D01*
X144144569Y-92546424D01*
X144080955Y-92467898D01*
X144023588Y-92397326D01*
X143973833Y-92336409D01*
X143933052Y-92286847D01*
X143915888Y-92266178D01*
X143829596Y-92165516D01*
X143752997Y-92082259D01*
X143684183Y-92014438D01*
X143621248Y-91960089D01*
X143611867Y-91952722D01*
X143572356Y-91922117D01*
X144704116Y-91921867D01*
X144698827Y-91969844D01*
X144702130Y-92027188D01*
X144723661Y-92095463D01*
X144763635Y-92175212D01*
X144808943Y-92247495D01*
X144825161Y-92270140D01*
X144853214Y-92307696D01*
X144891430Y-92358021D01*
X144938137Y-92418973D01*
X144991661Y-92488411D01*
X145050331Y-92564194D01*
X145112475Y-92644180D01*
X145176421Y-92726228D01*
X145240495Y-92808196D01*
X145303027Y-92887943D01*
X145362343Y-92963327D01*
X145416771Y-93032207D01*
X145464639Y-93092442D01*
X145504275Y-93141889D01*
X145534006Y-93178408D01*
X145552161Y-93199858D01*
X145555220Y-93203156D01*
X145558079Y-93195149D01*
X145560293Y-93164855D01*
X145561857Y-93112556D01*
X145562767Y-93038531D01*
X145563020Y-92943063D01*
X145562613Y-92826434D01*
X145561704Y-92706445D01*
X145560382Y-92574333D01*
X145558857Y-92462594D01*
X145556881Y-92369025D01*
X145554206Y-92291419D01*
X145550582Y-92227574D01*
X145545761Y-92175283D01*
X145539494Y-92132344D01*
X145531532Y-92096551D01*
X145521627Y-92065700D01*
X145509531Y-92037586D01*
X145494993Y-92010005D01*
X145480311Y-91984966D01*
X145442314Y-91921867D01*
X146502197Y-91921867D01*
X146805034Y-91921867D01*
X146805001Y-91915617D01*
X146804195Y-91813544D01*
X146803170Y-91724633D01*
X146801900Y-91647941D01*
X146800360Y-91582527D01*
X146798524Y-91527449D01*
X146796367Y-91481765D01*
X146793863Y-91444534D01*
X146790987Y-91414813D01*
X146787713Y-91391662D01*
X146784015Y-91374139D01*
X146779869Y-91361301D01*
X146775247Y-91352208D01*
X146770126Y-91345918D01*
X146764478Y-91341488D01*
X146758279Y-91337978D01*
X146751504Y-91334445D01*
X146745508Y-91330876D01*
X146740275Y-91328300D01*
X146732099Y-91325972D01*
X146719886Y-91323878D01*
X146702541Y-91322007D01*
X146678969Y-91320347D01*
X146648077Y-91318884D01*
X146608768Y-91317608D01*
X146559950Y-91316504D01*
X146500527Y-91315561D01*
X146429404Y-91314767D01*
X146345488Y-91314109D01*
X146247683Y-91313575D01*
X146134894Y-91313153D01*
X146006029Y-91312829D01*
X145859991Y-91312592D01*
X145695686Y-91312430D01*
X145512020Y-91312330D01*
X145307897Y-91312280D01*
X145096753Y-91312267D01*
X143476400Y-91312267D01*
X143476400Y-91409054D01*
G36*
X146805614Y-92031792D02*
G01*
X146806059Y-92163011D01*
X146806362Y-92310216D01*
X146806548Y-92474349D01*
X146806642Y-92656352D01*
X146806671Y-92857165D01*
X146806661Y-93077732D01*
X146806636Y-93318992D01*
X146806622Y-93581889D01*
X146806622Y-93624040D01*
X146806646Y-93884668D01*
X146806685Y-94123796D01*
X146806708Y-94342360D01*
X146806687Y-94541295D01*
X146806593Y-94721535D01*
X146806395Y-94884015D01*
X146806063Y-95029670D01*
X146805569Y-95159434D01*
X146804883Y-95274243D01*
X146803976Y-95375030D01*
X146802817Y-95462730D01*
X146801378Y-95538279D01*
X146799629Y-95602611D01*
X146797540Y-95656661D01*
X146795083Y-95701363D01*
X146792227Y-95737652D01*
X146788943Y-95766463D01*
X146785202Y-95788731D01*
X146780974Y-95805390D01*
X146776229Y-95817375D01*
X146770939Y-95825621D01*
X146765073Y-95831062D01*
X146758602Y-95834634D01*
X146751497Y-95837270D01*
X146743728Y-95839906D01*
X146735266Y-95843477D01*
X146730908Y-95845145D01*
X146722395Y-95847111D01*
X146709694Y-95848911D01*
X146691885Y-95850555D01*
X146668049Y-95852047D01*
X146637266Y-95853397D01*
X146598617Y-95854611D01*
X146551182Y-95855697D01*
X146494043Y-95856661D01*
X146426279Y-95857511D01*
X146346971Y-95858253D01*
X146255199Y-95858897D01*
X146150044Y-95859447D01*
X146030587Y-95859913D01*
X145895908Y-95860300D01*
X145745088Y-95860616D01*
X145577206Y-95860869D01*
X145391345Y-95861066D01*
X145186583Y-95861213D01*
X144962002Y-95861318D01*
X144716682Y-95861389D01*
X144449704Y-95861432D01*
X144411321Y-95861437D01*
X144145922Y-95861480D01*
X143902050Y-95861525D01*
X143678783Y-95861548D01*
X143475196Y-95861524D01*
X143290367Y-95861430D01*
X143123373Y-95861243D01*
X142973290Y-95860939D01*
X142839196Y-95860494D01*
X142720166Y-95859885D01*
X142615279Y-95859089D01*
X142523610Y-95858080D01*
X142444237Y-95856837D01*
X142376237Y-95855335D01*
X142318686Y-95853551D01*
X142270662Y-95851461D01*
X142231240Y-95849042D01*
X142199499Y-95846270D01*
X142174514Y-95843121D01*
X142155364Y-95839572D01*
X142141123Y-95835598D01*
X142130871Y-95831178D01*
X142123682Y-95826286D01*
X142118635Y-95820900D01*
X142114805Y-95814996D01*
X142111271Y-95808549D01*
X142107108Y-95801537D01*
X142106025Y-95799687D01*
X142103813Y-95794180D01*
X142101786Y-95785868D01*
X142099938Y-95773809D01*
X142098261Y-95757063D01*
X142096745Y-95734687D01*
X142095383Y-95705740D01*
X142094167Y-95669280D01*
X142093089Y-95624367D01*
X142092140Y-95570057D01*
X142091312Y-95505410D01*
X142090597Y-95429484D01*
X142089987Y-95341338D01*
X142089942Y-95332493D01*
X142381378Y-95332493D01*
X142385260Y-95333765D01*
X142408520Y-95335791D01*
X142450874Y-95337626D01*
X142510132Y-95339227D01*
X142584107Y-95340549D01*
X142670610Y-95341548D01*
X142767452Y-95342180D01*
X142872445Y-95342400D01*
X143570651Y-95342400D01*
X144725090Y-95342400D01*
X144724456Y-95266200D01*
X144725574Y-95224160D01*
X144731304Y-95188334D01*
X144743890Y-95150772D01*
X144765568Y-95102577D01*
X144768789Y-95095897D01*
X144794188Y-95046359D01*
X144820996Y-94998369D01*
X144843917Y-94961466D01*
X144848485Y-94954834D01*
X144870516Y-94923593D01*
X144902693Y-94878654D01*
X144943457Y-94822147D01*
X144991245Y-94756204D01*
X145044498Y-94682957D01*
X145101655Y-94604536D01*
X145161155Y-94523072D01*
X145221437Y-94440698D01*
X145280940Y-94359544D01*
X145338105Y-94281742D01*
X145391370Y-94209423D01*
X145439174Y-94144718D01*
X145479957Y-94089759D01*
X145512158Y-94046676D01*
X145534216Y-94017602D01*
X145544571Y-94004667D01*
X145549044Y-94000351D01*
X145553236Y-93998312D01*
X145556643Y-94000926D01*
X145559325Y-94009986D01*
X145561341Y-94027285D01*
X145562748Y-94054614D01*
X145563605Y-94093765D01*
X145563970Y-94146533D01*
X145563903Y-94214707D01*
X145563460Y-94300082D01*
X145562702Y-94404449D01*
X145561685Y-94529600D01*
X145561308Y-94574300D01*
X145560169Y-94695395D01*
X145558972Y-94796688D01*
X145557636Y-94880262D01*
X145556077Y-94948204D01*
X145554215Y-95002599D01*
X145551966Y-95045532D01*
X145549248Y-95079089D01*
X145545979Y-95105355D01*
X145542078Y-95126416D01*
X145537461Y-95144357D01*
X145529192Y-95170770D01*
X145505583Y-95232772D01*
X145479685Y-95285573D01*
X145454535Y-95322645D01*
X145453339Y-95324075D01*
X145451168Y-95328424D01*
X145453328Y-95332026D01*
X145461644Y-95334951D01*
X145477940Y-95337269D01*
X145504041Y-95339051D01*
X145541771Y-95340367D01*
X145592956Y-95341286D01*
X145659420Y-95341878D01*
X145742987Y-95342215D01*
X145845483Y-95342365D01*
X145968732Y-95342400D01*
X146500296Y-95342400D01*
X146461523Y-95284783D01*
X146455432Y-95275893D01*
X146444976Y-95261069D01*
X146435579Y-95247422D01*
X146427183Y-95233765D01*
X146419733Y-95218911D01*
X146413173Y-95201670D01*
X146407446Y-95180855D01*
X146402495Y-95155280D01*
X146398266Y-95123755D01*
X146394701Y-95085093D01*
X146391744Y-95038107D01*
X146389340Y-94981608D01*
X146387431Y-94914409D01*
X146385962Y-94835322D01*
X146384876Y-94743160D01*
X146384118Y-94636734D01*
X146383630Y-94514857D01*
X146383358Y-94376341D01*
X146383243Y-94219999D01*
X146383231Y-94044642D01*
X146383265Y-93849082D01*
X146383289Y-93632133D01*
X146383280Y-93509513D01*
X146383243Y-93304447D01*
X146383227Y-93120116D01*
X146383288Y-92955334D01*
X146383484Y-92808916D01*
X146383870Y-92679674D01*
X146384505Y-92566422D01*
X146385444Y-92467975D01*
X146386745Y-92383144D01*
X146388464Y-92310744D01*
X146390659Y-92249589D01*
X146393385Y-92198492D01*
X146396701Y-92156267D01*
X146400662Y-92121727D01*
X146405325Y-92093686D01*
X146410747Y-92070958D01*
X146416986Y-92052356D01*
X146424097Y-92036693D01*
X146432138Y-92022784D01*
X146441166Y-92009441D01*
X146451236Y-91995479D01*
X146462407Y-91979711D01*
X146502197Y-91921867D01*
X145442314Y-91921867D01*
X145480311Y-91984966D01*
X145494993Y-92010005D01*
X145509531Y-92037586D01*
X145521627Y-92065700D01*
X145531532Y-92096551D01*
X145539494Y-92132344D01*
X145545761Y-92175283D01*
X145550582Y-92227574D01*
X145554206Y-92291419D01*
X145556881Y-92369025D01*
X145558857Y-92462594D01*
X145560382Y-92574333D01*
X145561704Y-92706445D01*
X145562613Y-92826434D01*
X145563020Y-92943063D01*
X145562767Y-93038531D01*
X145561857Y-93112556D01*
X145560293Y-93164855D01*
X145558079Y-93195149D01*
X145555220Y-93203156D01*
X145552161Y-93199858D01*
X145534006Y-93178408D01*
X145504275Y-93141889D01*
X145464639Y-93092442D01*
X145416771Y-93032207D01*
X145362343Y-92963327D01*
X145303027Y-92887943D01*
X145240495Y-92808196D01*
X145176421Y-92726228D01*
X145112475Y-92644180D01*
X145050331Y-92564194D01*
X144991661Y-92488411D01*
X144938137Y-92418973D01*
X144891430Y-92358021D01*
X144853214Y-92307696D01*
X144825161Y-92270140D01*
X144808943Y-92247495D01*
X144763635Y-92175212D01*
X144723661Y-92095463D01*
X144702130Y-92027188D01*
X144698827Y-91969844D01*
X144704116Y-91921867D01*
X143572356Y-91922117D01*
X143611867Y-91952722D01*
X143621248Y-91960089D01*
X143684183Y-92014438D01*
X143752997Y-92082259D01*
X143829596Y-92165516D01*
X143915888Y-92266178D01*
X143933052Y-92286847D01*
X143973833Y-92336409D01*
X144023588Y-92397326D01*
X144080955Y-92467898D01*
X144144569Y-92546424D01*
X144213069Y-92631204D01*
X144285090Y-92720537D01*
X144359270Y-92812722D01*
X144374517Y-92831702D01*
X144434246Y-92906060D01*
X144508653Y-92998848D01*
X144581131Y-93089388D01*
X144650314Y-93175978D01*
X144714841Y-93256918D01*
X144773347Y-93330506D01*
X144824470Y-93395044D01*
X144866847Y-93448829D01*
X144899115Y-93490162D01*
X144919910Y-93517342D01*
X144927869Y-93528668D01*
X144926111Y-93532771D01*
X144913230Y-93553334D01*
X144888885Y-93589561D01*
X144854247Y-93639824D01*
X144810486Y-93702492D01*
X144758775Y-93775936D01*
X144700284Y-93858527D01*
X144636184Y-93948636D01*
X144567646Y-94044631D01*
X144495843Y-94144885D01*
X144421944Y-94247768D01*
X144347121Y-94351650D01*
X144272545Y-94454901D01*
X144199387Y-94555892D01*
X144128819Y-94652994D01*
X144062011Y-94744577D01*
X144000135Y-94829011D01*
X143944361Y-94904667D01*
X143895862Y-94969916D01*
X143855807Y-95023128D01*
X143825369Y-95062673D01*
X143804944Y-95088026D01*
X143758899Y-95142295D01*
X143708612Y-95198775D01*
X143661815Y-95248669D01*
X143570651Y-95342400D01*
X142872445Y-95342400D01*
X142941356Y-95342349D01*
X143039607Y-95342091D01*
X143129030Y-95341637D01*
X143207333Y-95341010D01*
X143272223Y-95340235D01*
X143321411Y-95339335D01*
X143352604Y-95338334D01*
X143363511Y-95337257D01*
X143362322Y-95334037D01*
X143352176Y-95316452D01*
X143335040Y-95290158D01*
X143326540Y-95277691D01*
X143317329Y-95263622D01*
X143309233Y-95249351D01*
X143302185Y-95233479D01*
X143296117Y-95214609D01*
X143290961Y-95191341D01*
X143286651Y-95162278D01*
X143283119Y-95126021D01*
X143280297Y-95081170D01*
X143278118Y-95026328D01*
X143276514Y-94960097D01*
X143275419Y-94881077D01*
X143274765Y-94787871D01*
X143274484Y-94679079D01*
X143274509Y-94553303D01*
X143274772Y-94409145D01*
X143275206Y-94245207D01*
X143275745Y-94060089D01*
X143276279Y-93881232D01*
X143276805Y-93722374D01*
X143277350Y-93583316D01*
X143277945Y-93462665D01*
X143278619Y-93359028D01*
X143279403Y-93271011D01*
X143280326Y-93197223D01*
X143281419Y-93136269D01*
X143282712Y-93086757D01*
X143284235Y-93047293D01*
X143286019Y-93016484D01*
X143288092Y-92992938D01*
X143290486Y-92975260D01*
X143293230Y-92962059D01*
X143296356Y-92951940D01*
X143299892Y-92943511D01*
X143303791Y-92935375D01*
X143323438Y-92898544D01*
X143342225Y-92868391D01*
X143343272Y-92866908D01*
X143357602Y-92844659D01*
X143363511Y-92831702D01*
X143362504Y-92831249D01*
X143345305Y-92829803D01*
X143308656Y-92828480D01*
X143254962Y-92827316D01*
X143186630Y-92826347D01*
X143106064Y-92825611D01*
X143015670Y-92825142D01*
X142917853Y-92824978D01*
X142472195Y-92824978D01*
X142469120Y-94001845D01*
X142466045Y-95178711D01*
X142439407Y-95237622D01*
X142427485Y-95262183D01*
X142410246Y-95292434D01*
X142397074Y-95309560D01*
X142389076Y-95317591D01*
X142381378Y-95332493D01*
X142089942Y-95332493D01*
X142089474Y-95240029D01*
X142089050Y-95124617D01*
X142088706Y-94994160D01*
X142088434Y-94847716D01*
X142088227Y-94684344D01*
X142088076Y-94503101D01*
X142087972Y-94303048D01*
X142087908Y-94083241D01*
X142087876Y-93842739D01*
X142087867Y-93580602D01*
X142087867Y-91389031D01*
X142126249Y-91350649D01*
X142153355Y-91326911D01*
X142180253Y-91315111D01*
X142216560Y-91312267D01*
X142268489Y-91312267D01*
X142268489Y-91400206D01*
X142270427Y-91450102D01*
X142289199Y-91560523D01*
X142326217Y-91661987D01*
X142379369Y-91753152D01*
X142446546Y-91832673D01*
X142525638Y-91899205D01*
X142614534Y-91951406D01*
X142711125Y-91987930D01*
X142813300Y-92007434D01*
X142918950Y-92008573D01*
X143025964Y-91990005D01*
X143132232Y-91950384D01*
X143229219Y-91892516D01*
X143314293Y-91817684D01*
X143383015Y-91729615D01*
X143433918Y-91630616D01*
X143465535Y-91522993D01*
X143476400Y-91409054D01*
X143476400Y-91312267D01*
X145096753Y-91312267D01*
X145307897Y-91312280D01*
X145512020Y-91312330D01*
X145695686Y-91312430D01*
X145859991Y-91312592D01*
X146006029Y-91312829D01*
X146134894Y-91313153D01*
X146247683Y-91313575D01*
X146345488Y-91314109D01*
X146429404Y-91314767D01*
X146500527Y-91315561D01*
X146559950Y-91316504D01*
X146608768Y-91317608D01*
X146648077Y-91318884D01*
X146678969Y-91320347D01*
X146702541Y-91322007D01*
X146719886Y-91323878D01*
X146732099Y-91325972D01*
X146740275Y-91328300D01*
X146745508Y-91330876D01*
X146751504Y-91334445D01*
X146758279Y-91337978D01*
X146764478Y-91341488D01*
X146770126Y-91345918D01*
X146775247Y-91352208D01*
X146779869Y-91361301D01*
X146784015Y-91374139D01*
X146787713Y-91391662D01*
X146790987Y-91414813D01*
X146793863Y-91444534D01*
X146796367Y-91481765D01*
X146798524Y-91527449D01*
X146800360Y-91582527D01*
X146801900Y-91647941D01*
X146803170Y-91724633D01*
X146804195Y-91813544D01*
X146805001Y-91915617D01*
X146805034Y-91921867D01*
X146805614Y-92031792D01*
G37*
%TD*%
M02*
