%TF.GenerationSoftware,KiCad,Pcbnew,10.0.3*%
%TF.CreationDate,2026-07-21T18:44:11+05:30*%
%TF.ProjectId,Tranformerless_powersupply,5472616e-666f-4726-9d65-726c6573735f,rev?*%
%TF.SameCoordinates,Original*%
%TF.FileFunction,Soldermask,Bot*%
%TF.FilePolarity,Negative*%
%FSLAX46Y46*%
G04 Gerber Fmt 4.6, Leading zero omitted, Abs format (unit mm)*
G04 Created by KiCad (PCBNEW 10.0.3) date 2026-07-21 18:44:11*
%MOMM*%
%LPD*%
G01*
G04 APERTURE LIST*
G04 Aperture macros list*
%AMRoundRect*
0 Rectangle with rounded corners*
0 $1 Rounding radius*
0 $2 $3 $4 $5 $6 $7 $8 $9 X,Y pos of 4 corners*
0 Add a 4 corners polygon primitive as box body*
4,1,4,$2,$3,$4,$5,$6,$7,$8,$9,$2,$3,0*
0 Add four circle primitives for the rounded corners*
1,1,$1+$1,$2,$3*
1,1,$1+$1,$4,$5*
1,1,$1+$1,$6,$7*
1,1,$1+$1,$8,$9*
0 Add four rect primitives between the rounded corners*
20,1,$1+$1,$2,$3,$4,$5,0*
20,1,$1+$1,$4,$5,$6,$7,0*
20,1,$1+$1,$6,$7,$8,$9,0*
20,1,$1+$1,$8,$9,$2,$3,0*%
G04 Aperture macros list end*
%ADD10C,1.600000*%
%ADD11RoundRect,0.249999X-0.850001X0.850001X-0.850001X-0.850001X0.850001X-0.850001X0.850001X0.850001X0*%
%ADD12C,2.200000*%
%ADD13RoundRect,0.250000X0.750000X0.750000X-0.750000X0.750000X-0.750000X-0.750000X0.750000X-0.750000X0*%
%ADD14C,2.000000*%
%ADD15RoundRect,0.250000X-1.050000X1.050000X-1.050000X-1.050000X1.050000X-1.050000X1.050000X1.050000X0*%
%ADD16C,2.600000*%
%ADD17C,2.400000*%
%ADD18RoundRect,0.250000X1.050000X-1.050000X1.050000X1.050000X-1.050000X1.050000X-1.050000X-1.050000X0*%
%ADD19RoundRect,0.250000X-0.650000X0.650000X-0.650000X-0.650000X0.650000X-0.650000X0.650000X0.650000X0*%
%ADD20C,1.800000*%
%ADD21R,1.800000X1.800000*%
%ADD22RoundRect,0.250000X-0.750000X0.750000X-0.750000X-0.750000X0.750000X-0.750000X0.750000X0.750000X0*%
%ADD23R,1.905000X2.000000*%
%ADD24O,1.905000X2.000000*%
G04 APERTURE END LIST*
D10*
%TO.C,R4*%
X136500000Y-102690000D03*
X136500000Y-110310000D03*
%TD*%
%TO.C,R2*%
X161810000Y-105132323D03*
X154190000Y-105132323D03*
%TD*%
D11*
%TO.C,D1*%
X142000000Y-88840000D03*
D12*
X142000000Y-99000000D03*
%TD*%
D10*
%TO.C,R3*%
X161810000Y-110132323D03*
X154190000Y-110132323D03*
%TD*%
D11*
%TO.C,D4*%
X149000000Y-102840000D03*
D12*
X149000000Y-113000000D03*
%TD*%
D13*
%TO.C,C4*%
X177767677Y-88500000D03*
D14*
X173967677Y-88500000D03*
%TD*%
D15*
%TO.C,J1*%
X132500000Y-91000000D03*
D16*
X132500000Y-96000000D03*
%TD*%
D17*
%TO.C,C1*%
X137500000Y-80500000D03*
X152500000Y-80500000D03*
%TD*%
D10*
%TO.C,R1*%
X132000000Y-86000000D03*
X132000000Y-78380000D03*
%TD*%
%TO.C,C2*%
X155000000Y-89000000D03*
X160000000Y-89000000D03*
%TD*%
D18*
%TO.C,J2*%
X176000000Y-107000000D03*
D16*
X176000000Y-102000000D03*
%TD*%
D19*
%TO.C,D5*%
X167000000Y-89690000D03*
D20*
X167000000Y-97310000D03*
%TD*%
D19*
%TO.C,D6*%
X167000000Y-102190000D03*
D20*
X167000000Y-109810000D03*
%TD*%
D11*
%TO.C,D3*%
X149000000Y-88840000D03*
D12*
X149000000Y-99000000D03*
%TD*%
D11*
%TO.C,D2*%
X142000000Y-102840000D03*
D12*
X142000000Y-113000000D03*
%TD*%
D21*
%TO.C,D7*%
X128960000Y-106500000D03*
D20*
X131500000Y-106500000D03*
%TD*%
D22*
%TO.C,C3*%
X157500000Y-94632323D03*
D14*
X157500000Y-99632323D03*
%TD*%
D23*
%TO.C,U1*%
X160920000Y-82000000D03*
D24*
X163460000Y-82000000D03*
X166000000Y-82000000D03*
%TD*%
M02*
