%TF.GenerationSoftware,KiCad,Pcbnew,10.0.3*%
%TF.CreationDate,2026-07-21T18:44:11+05:30*%
%TF.ProjectId,Tranformerless_powersupply,5472616e-666f-4726-9d65-726c6573735f,rev?*%
%TF.SameCoordinates,Original*%
%TF.FileFunction,Copper,L1,Top*%
%TF.FilePolarity,Positive*%
%FSLAX46Y46*%
G04 Gerber Fmt 4.6, Leading zero omitted, Abs format (unit mm)*
G04 Created by KiCad (PCBNEW 10.0.3) date 2026-07-21 18:44:11*
%MOMM*%
%LPD*%
G01*
G04 APERTURE LIST*
G04 Aperture macros list*
%AMRoundRect*
0 Rectangle with rounded corners*
0 $1 Rounding radius*
0 $2 $3 $4 $5 $6 $7 $8 $9 X,Y pos of 4 corners*
0 Add a 4 corners polygon primitive as box body*
4,1,4,$2,$3,$4,$5,$6,$7,$8,$9,$2,$3,0*
0 Add four circle primitives for the rounded corners*
1,1,$1+$1,$2,$3*
1,1,$1+$1,$4,$5*
1,1,$1+$1,$6,$7*
1,1,$1+$1,$8,$9*
0 Add four rect primitives between the rounded corners*
20,1,$1+$1,$2,$3,$4,$5,0*
20,1,$1+$1,$4,$5,$6,$7,0*
20,1,$1+$1,$6,$7,$8,$9,0*
20,1,$1+$1,$8,$9,$2,$3,0*%
G04 Aperture macros list end*
%TA.AperFunction,ComponentPad*%
%ADD10C,1.600000*%
%TD*%
%TA.AperFunction,ComponentPad*%
%ADD11RoundRect,0.249999X-0.850001X0.850001X-0.850001X-0.850001X0.850001X-0.850001X0.850001X0.850001X0*%
%TD*%
%TA.AperFunction,ComponentPad*%
%ADD12C,2.200000*%
%TD*%
%TA.AperFunction,ComponentPad*%
%ADD13RoundRect,0.250000X0.750000X0.750000X-0.750000X0.750000X-0.750000X-0.750000X0.750000X-0.750000X0*%
%TD*%
%TA.AperFunction,ComponentPad*%
%ADD14C,2.000000*%
%TD*%
%TA.AperFunction,ComponentPad*%
%ADD15RoundRect,0.250000X-1.050000X1.050000X-1.050000X-1.050000X1.050000X-1.050000X1.050000X1.050000X0*%
%TD*%
%TA.AperFunction,ComponentPad*%
%ADD16C,2.600000*%
%TD*%
%TA.AperFunction,ComponentPad*%
%ADD17C,2.400000*%
%TD*%
%TA.AperFunction,ComponentPad*%
%ADD18RoundRect,0.250000X1.050000X-1.050000X1.050000X1.050000X-1.050000X1.050000X-1.050000X-1.050000X0*%
%TD*%
%TA.AperFunction,ComponentPad*%
%ADD19RoundRect,0.250000X-0.650000X0.650000X-0.650000X-0.650000X0.650000X-0.650000X0.650000X0.650000X0*%
%TD*%
%TA.AperFunction,ComponentPad*%
%ADD20C,1.800000*%
%TD*%
%TA.AperFunction,ComponentPad*%
%ADD21R,1.800000X1.800000*%
%TD*%
%TA.AperFunction,ComponentPad*%
%ADD22RoundRect,0.250000X-0.750000X0.750000X-0.750000X-0.750000X0.750000X-0.750000X0.750000X0.750000X0*%
%TD*%
%TA.AperFunction,ComponentPad*%
%ADD23R,1.905000X2.000000*%
%TD*%
%TA.AperFunction,ComponentPad*%
%ADD24O,1.905000X2.000000*%
%TD*%
%TA.AperFunction,Conductor*%
%ADD25C,1.000000*%
%TD*%
G04 APERTURE END LIST*
D10*
%TO.P,R4,1*%
%TO.N,Net-(D1-K)*%
X136500000Y-102690000D03*
%TO.P,R4,2*%
%TO.N,Net-(D7-A)*%
X136500000Y-110310000D03*
%TD*%
%TO.P,R2,1*%
%TO.N,Net-(D5-A)*%
X161810000Y-105132323D03*
%TO.P,R2,2*%
%TO.N,GND*%
X154190000Y-105132323D03*
%TD*%
D11*
%TO.P,D1,1,K_1*%
%TO.N,Net-(D1-K)*%
X142000000Y-88840000D03*
D12*
%TO.P,D1,2,A_2*%
%TO.N,Net-(D1-A)*%
X142000000Y-99000000D03*
%TD*%
D10*
%TO.P,R3,1*%
%TO.N,Net-(D6-A)*%
X161810000Y-110132323D03*
%TO.P,R3,2*%
%TO.N,GND*%
X154190000Y-110132323D03*
%TD*%
D11*
%TO.P,D4,1,K_1*%
%TO.N,Net-(D3-A)*%
X149000000Y-102840000D03*
D12*
%TO.P,D4,2,A_2*%
%TO.N,GND*%
X149000000Y-113000000D03*
%TD*%
D13*
%TO.P,C4,1*%
%TO.N,/5V*%
X177767677Y-88500000D03*
D14*
%TO.P,C4,2*%
%TO.N,GND*%
X173967677Y-88500000D03*
%TD*%
D15*
%TO.P,J1,1,Pin_1_1*%
%TO.N,Net-(D3-A)*%
X132500000Y-91000000D03*
D16*
%TO.P,J1,2,Pin_2_2*%
%TO.N,Net-(J1-Pin_2)*%
X132500000Y-96000000D03*
%TD*%
D17*
%TO.P,C1,1*%
%TO.N,Net-(J1-Pin_2)*%
X137500000Y-80500000D03*
%TO.P,C1,2*%
%TO.N,Net-(D1-A)*%
X152500000Y-80500000D03*
%TD*%
D10*
%TO.P,R1,1*%
%TO.N,Net-(J1-Pin_2)*%
X132000000Y-86000000D03*
%TO.P,R1,2*%
%TO.N,Net-(D1-A)*%
X132000000Y-78380000D03*
%TD*%
%TO.P,C2,1*%
%TO.N,Net-(D1-K)*%
X155000000Y-89000000D03*
%TO.P,C2,2*%
%TO.N,GND*%
X160000000Y-89000000D03*
%TD*%
D18*
%TO.P,J2,1,Pin_1_1*%
%TO.N,/5V*%
X176000000Y-107000000D03*
D16*
%TO.P,J2,2,Pin_2_2*%
%TO.N,GND*%
X176000000Y-102000000D03*
%TD*%
D19*
%TO.P,D5,1,K_1*%
%TO.N,Net-(D1-K)*%
X167000000Y-89690000D03*
D20*
%TO.P,D5,2,A_2*%
%TO.N,Net-(D5-A)*%
X167000000Y-97310000D03*
%TD*%
D19*
%TO.P,D6,1,K_1*%
%TO.N,Net-(D1-K)*%
X167000000Y-102190000D03*
D20*
%TO.P,D6,2,A_2*%
%TO.N,Net-(D6-A)*%
X167000000Y-109810000D03*
%TD*%
D11*
%TO.P,D3,1,K_1*%
%TO.N,Net-(D1-K)*%
X149000000Y-88840000D03*
D12*
%TO.P,D3,2,A_2*%
%TO.N,Net-(D3-A)*%
X149000000Y-99000000D03*
%TD*%
D11*
%TO.P,D2,1,K_1*%
%TO.N,Net-(D1-A)*%
X142000000Y-102840000D03*
D12*
%TO.P,D2,2,A_2*%
%TO.N,GND*%
X142000000Y-113000000D03*
%TD*%
D21*
%TO.P,D7,1,K_1*%
%TO.N,GND*%
X128960000Y-106500000D03*
D20*
%TO.P,D7,2,A_2*%
%TO.N,Net-(D7-A)*%
X131500000Y-106500000D03*
%TD*%
D22*
%TO.P,C3,1*%
%TO.N,Net-(D1-K)*%
X157500000Y-94632323D03*
D14*
%TO.P,C3,2*%
%TO.N,GND*%
X157500000Y-99632323D03*
%TD*%
D23*
%TO.P,U1,1,VI_1*%
%TO.N,Net-(D1-K)*%
X160920000Y-82000000D03*
D24*
%TO.P,U1,2,GND_2*%
%TO.N,GND*%
X163460000Y-82000000D03*
%TO.P,U1,3,VO_3*%
%TO.N,/5V*%
X166000000Y-82000000D03*
%TD*%
%TO.N,Net-(D1-A)*%
D25*
X132000000Y-82000000D02*
X135500000Y-85500000D01*
X150500000Y-80500000D02*
X152500000Y-80500000D01*
X132000000Y-78380000D02*
X132000000Y-82000000D01*
X135500000Y-85500000D02*
X145500000Y-85500000D01*
X145500000Y-85500000D02*
X150500000Y-80500000D01*
X145500000Y-95500000D02*
X145500000Y-85500000D01*
X142000000Y-99000000D02*
X145500000Y-95500000D01*
%TO.N,Net-(D1-K)*%
X152000000Y-107500000D02*
X151500000Y-108000000D01*
X152000000Y-102000000D02*
X152000000Y-107500000D01*
X151500000Y-108000000D02*
X141810000Y-108000000D01*
X157500000Y-94632323D02*
X157500000Y-96500000D01*
X141810000Y-108000000D02*
X136500000Y-102690000D01*
X157500000Y-96500000D02*
X152000000Y-102000000D01*
%TD*%
%TA.AperFunction,Conductor*%
%TO.N,GND*%
G36*
X179767481Y-75520185D02*
G01*
X179813236Y-75572989D01*
X179823180Y-75642147D01*
X179794155Y-75705703D01*
X179747895Y-75739061D01*
X179651330Y-75779059D01*
X179651319Y-75779064D01*
X179433955Y-75904561D01*
X179234834Y-76057351D01*
X179234827Y-76057357D01*
X179057357Y-76234827D01*
X179057351Y-76234834D01*
X178904561Y-76433955D01*
X178779064Y-76651319D01*
X178779059Y-76651330D01*
X178683011Y-76883210D01*
X178618047Y-77125659D01*
X178585286Y-77374495D01*
X178585286Y-77625504D01*
X178603683Y-77765237D01*
X178618048Y-77874344D01*
X178650529Y-77995564D01*
X178683011Y-78116789D01*
X178779059Y-78348669D01*
X178779064Y-78348680D01*
X178814072Y-78409314D01*
X178904558Y-78566040D01*
X178904560Y-78566043D01*
X178904561Y-78566044D01*
X179057351Y-78765165D01*
X179057357Y-78765172D01*
X179234827Y-78942642D01*
X179234833Y-78942647D01*
X179433960Y-79095442D01*
X179573661Y-79176099D01*
X179651319Y-79220935D01*
X179651324Y-79220937D01*
X179651327Y-79220939D01*
X179883215Y-79316990D01*
X180125656Y-79381952D01*
X180374503Y-79414714D01*
X180374510Y-79414714D01*
X180625490Y-79414714D01*
X180625497Y-79414714D01*
X180874344Y-79381952D01*
X181116785Y-79316990D01*
X181348673Y-79220939D01*
X181566040Y-79095442D01*
X181765167Y-78942647D01*
X181942647Y-78765167D01*
X182095442Y-78566040D01*
X182220939Y-78348673D01*
X182248715Y-78281614D01*
X182260939Y-78252105D01*
X182304780Y-78197702D01*
X182371074Y-78175637D01*
X182438773Y-78192916D01*
X182486384Y-78244053D01*
X182499500Y-78299558D01*
X182499500Y-112442636D01*
X182479815Y-112509675D01*
X182427011Y-112555430D01*
X182357853Y-112565374D01*
X182294297Y-112536349D01*
X182256523Y-112477571D01*
X182255725Y-112474730D01*
X182249099Y-112450000D01*
X182231204Y-112383215D01*
X182135153Y-112151327D01*
X182135151Y-112151324D01*
X182135149Y-112151319D01*
X182082021Y-112059300D01*
X182009656Y-111933960D01*
X181856861Y-111734833D01*
X181856856Y-111734827D01*
X181679386Y-111557357D01*
X181679379Y-111557351D01*
X181480258Y-111404561D01*
X181480257Y-111404560D01*
X181480254Y-111404558D01*
X181364181Y-111337543D01*
X181262894Y-111279064D01*
X181262883Y-111279059D01*
X181031003Y-111183011D01*
X180811868Y-111124294D01*
X180788558Y-111118048D01*
X180788557Y-111118047D01*
X180788554Y-111118047D01*
X180539718Y-111085286D01*
X180539711Y-111085286D01*
X180288717Y-111085286D01*
X180288709Y-111085286D01*
X180039873Y-111118047D01*
X179797424Y-111183011D01*
X179565544Y-111279059D01*
X179565533Y-111279064D01*
X179348169Y-111404561D01*
X179149048Y-111557351D01*
X179149041Y-111557357D01*
X178971571Y-111734827D01*
X178971565Y-111734834D01*
X178818775Y-111933955D01*
X178693278Y-112151319D01*
X178693273Y-112151330D01*
X178597225Y-112383210D01*
X178532261Y-112625659D01*
X178499500Y-112874495D01*
X178499500Y-113125504D01*
X178532261Y-113374340D01*
X178532262Y-113374344D01*
X178548536Y-113435080D01*
X178597225Y-113616789D01*
X178693273Y-113848669D01*
X178693278Y-113848680D01*
X178768737Y-113979377D01*
X178818772Y-114066040D01*
X178818774Y-114066043D01*
X178818775Y-114066044D01*
X178971565Y-114265165D01*
X178971571Y-114265172D01*
X179149041Y-114442642D01*
X179149048Y-114442648D01*
X179266028Y-114532409D01*
X179348174Y-114595442D01*
X179487875Y-114676099D01*
X179565533Y-114720935D01*
X179565538Y-114720937D01*
X179565541Y-114720939D01*
X179609610Y-114739193D01*
X179662109Y-114760939D01*
X179716512Y-114804780D01*
X179738577Y-114871074D01*
X179721298Y-114938773D01*
X179670161Y-114986384D01*
X179614656Y-114999500D01*
X128299558Y-114999500D01*
X128232519Y-114979815D01*
X128186764Y-114927011D01*
X128176820Y-114857853D01*
X128205845Y-114794297D01*
X128252105Y-114760939D01*
X128281614Y-114748715D01*
X128348673Y-114720939D01*
X128566040Y-114595442D01*
X128765167Y-114442647D01*
X128942647Y-114265167D01*
X128970105Y-114229382D01*
X129014517Y-114171505D01*
X129053491Y-114120710D01*
X129095442Y-114066040D01*
X129220939Y-113848673D01*
X129316990Y-113616785D01*
X129381952Y-113374344D01*
X129414714Y-113125497D01*
X129414714Y-112874503D01*
X129414657Y-112874071D01*
X140400000Y-112874071D01*
X140400000Y-113125928D01*
X140439397Y-113374669D01*
X140517219Y-113614184D01*
X140631557Y-113838583D01*
X140705748Y-113940697D01*
X140705748Y-113940698D01*
X141476212Y-113170234D01*
X141487482Y-113212292D01*
X141559890Y-113337708D01*
X141662292Y-113440110D01*
X141787708Y-113512518D01*
X141829765Y-113523787D01*
X141059300Y-114294250D01*
X141161416Y-114368442D01*
X141385815Y-114482780D01*
X141625330Y-114560602D01*
X141874072Y-114600000D01*
X142125928Y-114600000D01*
X142374669Y-114560602D01*
X142614184Y-114482780D01*
X142838575Y-114368446D01*
X142838581Y-114368442D01*
X142940697Y-114294250D01*
X142940698Y-114294250D01*
X142170234Y-113523787D01*
X142212292Y-113512518D01*
X142337708Y-113440110D01*
X142440110Y-113337708D01*
X142512518Y-113212292D01*
X142523787Y-113170234D01*
X143294250Y-113940698D01*
X143294250Y-113940697D01*
X143368442Y-113838581D01*
X143368446Y-113838575D01*
X143482780Y-113614184D01*
X143560602Y-113374669D01*
X143600000Y-113125928D01*
X143600000Y-112874071D01*
X147400000Y-112874071D01*
X147400000Y-113125928D01*
X147439397Y-113374669D01*
X147517219Y-113614184D01*
X147631557Y-113838583D01*
X147705748Y-113940697D01*
X147705748Y-113940698D01*
X148476212Y-113170234D01*
X148487482Y-113212292D01*
X148559890Y-113337708D01*
X148662292Y-113440110D01*
X148787708Y-113512518D01*
X148829765Y-113523787D01*
X148059300Y-114294250D01*
X148161416Y-114368442D01*
X148385815Y-114482780D01*
X148625330Y-114560602D01*
X148874072Y-114600000D01*
X149125928Y-114600000D01*
X149374669Y-114560602D01*
X149614184Y-114482780D01*
X149838575Y-114368446D01*
X149838581Y-114368442D01*
X149940697Y-114294250D01*
X149940698Y-114294250D01*
X149170234Y-113523787D01*
X149212292Y-113512518D01*
X149337708Y-113440110D01*
X149440110Y-113337708D01*
X149512518Y-113212292D01*
X149523787Y-113170235D01*
X150294250Y-113940698D01*
X150294250Y-113940697D01*
X150368442Y-113838581D01*
X150368446Y-113838575D01*
X150482780Y-113614184D01*
X150560602Y-113374669D01*
X150600000Y-113125928D01*
X150600000Y-112874071D01*
X150560602Y-112625330D01*
X150482780Y-112385815D01*
X150368442Y-112161416D01*
X150294250Y-112059301D01*
X150294250Y-112059300D01*
X149523787Y-112829764D01*
X149512518Y-112787708D01*
X149440110Y-112662292D01*
X149337708Y-112559890D01*
X149212292Y-112487482D01*
X149170232Y-112476212D01*
X149940698Y-111705748D01*
X149838583Y-111631557D01*
X149614184Y-111517219D01*
X149374669Y-111439397D01*
X149125928Y-111400000D01*
X148874072Y-111400000D01*
X148625330Y-111439397D01*
X148385815Y-111517219D01*
X148161413Y-111631559D01*
X148059301Y-111705747D01*
X148059300Y-111705748D01*
X148829765Y-112476212D01*
X148787708Y-112487482D01*
X148662292Y-112559890D01*
X148559890Y-112662292D01*
X148487482Y-112787708D01*
X148476212Y-112829765D01*
X147705748Y-112059300D01*
X147705747Y-112059301D01*
X147631559Y-112161413D01*
X147517219Y-112385815D01*
X147439397Y-112625330D01*
X147400000Y-112874071D01*
X143600000Y-112874071D01*
X143560602Y-112625330D01*
X143482780Y-112385815D01*
X143368442Y-112161416D01*
X143294250Y-112059301D01*
X143294250Y-112059300D01*
X142523787Y-112829764D01*
X142512518Y-112787708D01*
X142440110Y-112662292D01*
X142337708Y-112559890D01*
X142212292Y-112487482D01*
X142170232Y-112476212D01*
X142940698Y-111705748D01*
X142838583Y-111631557D01*
X142614184Y-111517219D01*
X142374669Y-111439397D01*
X142125928Y-111400000D01*
X141874072Y-111400000D01*
X141625330Y-111439397D01*
X141385815Y-111517219D01*
X141161413Y-111631559D01*
X141059301Y-111705747D01*
X141059300Y-111705748D01*
X141829765Y-112476212D01*
X141787708Y-112487482D01*
X141662292Y-112559890D01*
X141559890Y-112662292D01*
X141487482Y-112787708D01*
X141476212Y-112829765D01*
X140705748Y-112059300D01*
X140705747Y-112059301D01*
X140631559Y-112161413D01*
X140517219Y-112385815D01*
X140439397Y-112625330D01*
X140400000Y-112874071D01*
X129414657Y-112874071D01*
X129381952Y-112625656D01*
X129316990Y-112383215D01*
X129220939Y-112151327D01*
X129220937Y-112151324D01*
X129220935Y-112151319D01*
X129167807Y-112059300D01*
X129095442Y-111933960D01*
X129078817Y-111912295D01*
X129014516Y-111828494D01*
X128942648Y-111734834D01*
X128942642Y-111734827D01*
X128765172Y-111557357D01*
X128765165Y-111557351D01*
X128566044Y-111404561D01*
X128566043Y-111404560D01*
X128566040Y-111404558D01*
X128449967Y-111337543D01*
X128348680Y-111279064D01*
X128348669Y-111279059D01*
X128116789Y-111183011D01*
X127897654Y-111124294D01*
X127874344Y-111118048D01*
X127874343Y-111118047D01*
X127874340Y-111118047D01*
X127625504Y-111085286D01*
X127625497Y-111085286D01*
X127374503Y-111085286D01*
X127374495Y-111085286D01*
X127125659Y-111118047D01*
X126883210Y-111183011D01*
X126651330Y-111279059D01*
X126651319Y-111279064D01*
X126433955Y-111404561D01*
X126234834Y-111557351D01*
X126234827Y-111557357D01*
X126057357Y-111734827D01*
X126057351Y-111734834D01*
X125904561Y-111933955D01*
X125779064Y-112151319D01*
X125779059Y-112151331D01*
X125739061Y-112247894D01*
X125695220Y-112302297D01*
X125628925Y-112324362D01*
X125561226Y-112307083D01*
X125513616Y-112255945D01*
X125500500Y-112200441D01*
X125500500Y-110207648D01*
X135199500Y-110207648D01*
X135199500Y-110412351D01*
X135231522Y-110614534D01*
X135294781Y-110809223D01*
X135387715Y-110991613D01*
X135508028Y-111157213D01*
X135652786Y-111301971D01*
X135787714Y-111400000D01*
X135818390Y-111422287D01*
X135934607Y-111481503D01*
X136000776Y-111515218D01*
X136000778Y-111515218D01*
X136000781Y-111515220D01*
X136105137Y-111549127D01*
X136195465Y-111578477D01*
X136296557Y-111594488D01*
X136397648Y-111610500D01*
X136397649Y-111610500D01*
X136602351Y-111610500D01*
X136602352Y-111610500D01*
X136804534Y-111578477D01*
X136999219Y-111515220D01*
X137181610Y-111422287D01*
X137298891Y-111337078D01*
X137347213Y-111301971D01*
X137347215Y-111301968D01*
X137347219Y-111301966D01*
X137491966Y-111157219D01*
X137491968Y-111157215D01*
X137491971Y-111157213D01*
X137539603Y-111091653D01*
X137600513Y-111007815D01*
X137612287Y-110991610D01*
X137705220Y-110809219D01*
X137768477Y-110614534D01*
X137800500Y-110412352D01*
X137800500Y-110207648D01*
X137772364Y-110030005D01*
X152890000Y-110030005D01*
X152890000Y-110234640D01*
X152922009Y-110436740D01*
X152985244Y-110631354D01*
X153078141Y-110813673D01*
X153078147Y-110813682D01*
X153110523Y-110858244D01*
X153110524Y-110858245D01*
X153790000Y-110178769D01*
X153790000Y-110184984D01*
X153817259Y-110286717D01*
X153869920Y-110377929D01*
X153944394Y-110452403D01*
X154035606Y-110505064D01*
X154137339Y-110532323D01*
X154143553Y-110532323D01*
X153464076Y-111211797D01*
X153508650Y-111244182D01*
X153690968Y-111337078D01*
X153885582Y-111400313D01*
X154087683Y-111432323D01*
X154292317Y-111432323D01*
X154494417Y-111400313D01*
X154689031Y-111337078D01*
X154871349Y-111244182D01*
X154915921Y-111211797D01*
X154236447Y-110532323D01*
X154242661Y-110532323D01*
X154344394Y-110505064D01*
X154435606Y-110452403D01*
X154510080Y-110377929D01*
X154562741Y-110286717D01*
X154590000Y-110184984D01*
X154590000Y-110178770D01*
X155269474Y-110858244D01*
X155301859Y-110813672D01*
X155394755Y-110631354D01*
X155457990Y-110436740D01*
X155490000Y-110234640D01*
X155490000Y-110030005D01*
X155489995Y-110029971D01*
X160509500Y-110029971D01*
X160509500Y-110234674D01*
X160541522Y-110436857D01*
X160604781Y-110631546D01*
X160668691Y-110756976D01*
X160697585Y-110813682D01*
X160697715Y-110813936D01*
X160818028Y-110979536D01*
X160962786Y-111124294D01*
X161081441Y-111210500D01*
X161128390Y-111244610D01*
X161196010Y-111279064D01*
X161310776Y-111337541D01*
X161310778Y-111337541D01*
X161310781Y-111337543D01*
X161415137Y-111371450D01*
X161505465Y-111400800D01*
X161606557Y-111416811D01*
X161707648Y-111432823D01*
X161707649Y-111432823D01*
X161912351Y-111432823D01*
X161912352Y-111432823D01*
X162114534Y-111400800D01*
X162309219Y-111337543D01*
X162491610Y-111244610D01*
X162586025Y-111176014D01*
X162657213Y-111124294D01*
X162657215Y-111124291D01*
X162657219Y-111124289D01*
X162801966Y-110979542D01*
X162801968Y-110979538D01*
X162801971Y-110979536D01*
X162854732Y-110906913D01*
X162922287Y-110813933D01*
X163015220Y-110631542D01*
X163078477Y-110436857D01*
X163110500Y-110234675D01*
X163110500Y-110029971D01*
X163093117Y-109920221D01*
X163078477Y-109827788D01*
X163047751Y-109733225D01*
X163036884Y-109699778D01*
X165599500Y-109699778D01*
X165599500Y-109920221D01*
X165633985Y-110137952D01*
X165702103Y-110347603D01*
X165702104Y-110347606D01*
X165802187Y-110544025D01*
X165931752Y-110722358D01*
X165931756Y-110722363D01*
X166087636Y-110878243D01*
X166087641Y-110878247D01*
X166227055Y-110979536D01*
X166265978Y-111007815D01*
X166394375Y-111073237D01*
X166462393Y-111107895D01*
X166462396Y-111107896D01*
X166567221Y-111141955D01*
X166672049Y-111176015D01*
X166889778Y-111210500D01*
X166889779Y-111210500D01*
X167110221Y-111210500D01*
X167110222Y-111210500D01*
X167327951Y-111176015D01*
X167537606Y-111107895D01*
X167734022Y-111007815D01*
X167912365Y-110878242D01*
X168068242Y-110722365D01*
X168197815Y-110544022D01*
X168297895Y-110347606D01*
X168366015Y-110137951D01*
X168400500Y-109920222D01*
X168400500Y-109699778D01*
X168366015Y-109482049D01*
X168312722Y-109318028D01*
X168297896Y-109272396D01*
X168297895Y-109272393D01*
X168230615Y-109140351D01*
X168197815Y-109075978D01*
X168157486Y-109020470D01*
X168068247Y-108897641D01*
X168068243Y-108897636D01*
X167912363Y-108741756D01*
X167912358Y-108741752D01*
X167734025Y-108612187D01*
X167734024Y-108612186D01*
X167734022Y-108612185D01*
X167671096Y-108580122D01*
X167537606Y-108512104D01*
X167537603Y-108512103D01*
X167327952Y-108443985D01*
X167219086Y-108426742D01*
X167110222Y-108409500D01*
X166889778Y-108409500D01*
X166817201Y-108420995D01*
X166672047Y-108443985D01*
X166462396Y-108512103D01*
X166462393Y-108512104D01*
X166265974Y-108612187D01*
X166087641Y-108741752D01*
X166087636Y-108741756D01*
X165931756Y-108897636D01*
X165931752Y-108897641D01*
X165802187Y-109075974D01*
X165702104Y-109272393D01*
X165702103Y-109272396D01*
X165633985Y-109482047D01*
X165599500Y-109699778D01*
X163036884Y-109699778D01*
X163015220Y-109633104D01*
X162922287Y-109450713D01*
X162890092Y-109406400D01*
X162801971Y-109285109D01*
X162657213Y-109140351D01*
X162491613Y-109020038D01*
X162491612Y-109020037D01*
X162491610Y-109020036D01*
X162434653Y-108991014D01*
X162309223Y-108927104D01*
X162114534Y-108863845D01*
X161939995Y-108836201D01*
X161912352Y-108831823D01*
X161707648Y-108831823D01*
X161683329Y-108835674D01*
X161505465Y-108863845D01*
X161310776Y-108927104D01*
X161128386Y-109020038D01*
X160962786Y-109140351D01*
X160818028Y-109285109D01*
X160697715Y-109450709D01*
X160604781Y-109633099D01*
X160541522Y-109827788D01*
X160509500Y-110029971D01*
X155489995Y-110029971D01*
X155457990Y-109827905D01*
X155394755Y-109633291D01*
X155301859Y-109450973D01*
X155269474Y-109406400D01*
X155269474Y-109406399D01*
X154590000Y-110085874D01*
X154590000Y-110079662D01*
X154562741Y-109977929D01*
X154510080Y-109886717D01*
X154435606Y-109812243D01*
X154344394Y-109759582D01*
X154242661Y-109732323D01*
X154236446Y-109732323D01*
X154915922Y-109052847D01*
X154915921Y-109052846D01*
X154871359Y-109020470D01*
X154871350Y-109020464D01*
X154689031Y-108927567D01*
X154494417Y-108864332D01*
X154292317Y-108832323D01*
X154087683Y-108832323D01*
X153885582Y-108864332D01*
X153690968Y-108927567D01*
X153508644Y-109020466D01*
X153464077Y-109052846D01*
X153464077Y-109052847D01*
X154143554Y-109732323D01*
X154137339Y-109732323D01*
X154035606Y-109759582D01*
X153944394Y-109812243D01*
X153869920Y-109886717D01*
X153817259Y-109977929D01*
X153790000Y-110079662D01*
X153790000Y-110085876D01*
X153110524Y-109406400D01*
X153110523Y-109406400D01*
X153078143Y-109450967D01*
X152985244Y-109633291D01*
X152922009Y-109827905D01*
X152890000Y-110030005D01*
X137772364Y-110030005D01*
X137768477Y-110005466D01*
X137705220Y-109810781D01*
X137705218Y-109810778D01*
X137705218Y-109810776D01*
X137665702Y-109733223D01*
X137612287Y-109628390D01*
X137604556Y-109617749D01*
X137491971Y-109462786D01*
X137347213Y-109318028D01*
X137181613Y-109197715D01*
X137181612Y-109197714D01*
X137181610Y-109197713D01*
X137124653Y-109168691D01*
X136999223Y-109104781D01*
X136804534Y-109041522D01*
X136629995Y-109013878D01*
X136602352Y-109009500D01*
X136397648Y-109009500D01*
X136373329Y-109013351D01*
X136195465Y-109041522D01*
X136000776Y-109104781D01*
X135818386Y-109197715D01*
X135652786Y-109318028D01*
X135508028Y-109462786D01*
X135387715Y-109628386D01*
X135294781Y-109810776D01*
X135231522Y-110005465D01*
X135199500Y-110207648D01*
X125500500Y-110207648D01*
X125500500Y-105552155D01*
X127560000Y-105552155D01*
X127560000Y-106250000D01*
X128584722Y-106250000D01*
X128540667Y-106326306D01*
X128510000Y-106440756D01*
X128510000Y-106559244D01*
X128540667Y-106673694D01*
X128584722Y-106750000D01*
X127560000Y-106750000D01*
X127560000Y-107447844D01*
X127566401Y-107507372D01*
X127566403Y-107507379D01*
X127616645Y-107642086D01*
X127616649Y-107642093D01*
X127702809Y-107757187D01*
X127702812Y-107757190D01*
X127817906Y-107843350D01*
X127817913Y-107843354D01*
X127952620Y-107893596D01*
X127952627Y-107893598D01*
X128012155Y-107899999D01*
X128012172Y-107900000D01*
X128710000Y-107900000D01*
X128710000Y-106875277D01*
X128786306Y-106919333D01*
X128900756Y-106950000D01*
X129019244Y-106950000D01*
X129133694Y-106919333D01*
X129210000Y-106875277D01*
X129210000Y-107900000D01*
X129907828Y-107900000D01*
X129907844Y-107899999D01*
X129967372Y-107893598D01*
X129967379Y-107893596D01*
X130102086Y-107843354D01*
X130102093Y-107843350D01*
X130217187Y-107757190D01*
X130217190Y-107757187D01*
X130303350Y-107642093D01*
X130303354Y-107642086D01*
X130333213Y-107562031D01*
X130375084Y-107506097D01*
X130440548Y-107481680D01*
X130508821Y-107496531D01*
X130537076Y-107517683D01*
X130587636Y-107568243D01*
X130587641Y-107568247D01*
X130743192Y-107681260D01*
X130765978Y-107697815D01*
X130882501Y-107757187D01*
X130962393Y-107797895D01*
X130962396Y-107797896D01*
X131067221Y-107831955D01*
X131172049Y-107866015D01*
X131389778Y-107900500D01*
X131389779Y-107900500D01*
X131610221Y-107900500D01*
X131610222Y-107900500D01*
X131827951Y-107866015D01*
X132037606Y-107797895D01*
X132234022Y-107697815D01*
X132412365Y-107568242D01*
X132568242Y-107412365D01*
X132697815Y-107234022D01*
X132797895Y-107037606D01*
X132866015Y-106827951D01*
X132900500Y-106610222D01*
X132900500Y-106389778D01*
X132866015Y-106172049D01*
X132831955Y-106067221D01*
X132797896Y-105962396D01*
X132797895Y-105962393D01*
X132744827Y-105858244D01*
X132697815Y-105765978D01*
X132600145Y-105631546D01*
X132568247Y-105587641D01*
X132568243Y-105587636D01*
X132412363Y-105431756D01*
X132412358Y-105431752D01*
X132234025Y-105302187D01*
X132234024Y-105302186D01*
X132234022Y-105302185D01*
X132161406Y-105265185D01*
X132037606Y-105202104D01*
X132037603Y-105202103D01*
X131827952Y-105133985D01*
X131719086Y-105116742D01*
X131610222Y-105099500D01*
X131389778Y-105099500D01*
X131317201Y-105110995D01*
X131172047Y-105133985D01*
X130962396Y-105202103D01*
X130962393Y-105202104D01*
X130765974Y-105302187D01*
X130587641Y-105431752D01*
X130587636Y-105431756D01*
X130537075Y-105482317D01*
X130475752Y-105515801D01*
X130406060Y-105510816D01*
X130350127Y-105468945D01*
X130333213Y-105437968D01*
X130303354Y-105357913D01*
X130303350Y-105357906D01*
X130217190Y-105242812D01*
X130217187Y-105242809D01*
X130102093Y-105156649D01*
X130102086Y-105156645D01*
X129967379Y-105106403D01*
X129967372Y-105106401D01*
X129907844Y-105100000D01*
X129210000Y-105100000D01*
X129210000Y-106124722D01*
X129133694Y-106080667D01*
X129019244Y-106050000D01*
X128900756Y-106050000D01*
X128786306Y-106080667D01*
X128710000Y-106124722D01*
X128710000Y-105100000D01*
X128012155Y-105100000D01*
X127952627Y-105106401D01*
X127952620Y-105106403D01*
X127817913Y-105156645D01*
X127817906Y-105156649D01*
X127702812Y-105242809D01*
X127702809Y-105242812D01*
X127616649Y-105357906D01*
X127616645Y-105357913D01*
X127566403Y-105492620D01*
X127566401Y-105492627D01*
X127560000Y-105552155D01*
X125500500Y-105552155D01*
X125500500Y-102587648D01*
X135199500Y-102587648D01*
X135199500Y-102792351D01*
X135231522Y-102994534D01*
X135294781Y-103189223D01*
X135387715Y-103371613D01*
X135508028Y-103537213D01*
X135652786Y-103681971D01*
X135772849Y-103769200D01*
X135818390Y-103802287D01*
X135934607Y-103861503D01*
X136000776Y-103895218D01*
X136000778Y-103895218D01*
X136000781Y-103895220D01*
X136098907Y-103927103D01*
X136195465Y-103958477D01*
X136272966Y-103970751D01*
X136343513Y-103981925D01*
X136406648Y-104011854D01*
X136411797Y-104016717D01*
X141029735Y-108634655D01*
X141029764Y-108634686D01*
X141172214Y-108777136D01*
X141172218Y-108777139D01*
X141336079Y-108886628D01*
X141336092Y-108886635D01*
X141464833Y-108939961D01*
X141507744Y-108957735D01*
X141518164Y-108962051D01*
X141614812Y-108981275D01*
X141663135Y-108990887D01*
X141711458Y-109000500D01*
X141711459Y-109000500D01*
X151598542Y-109000500D01*
X151614648Y-108997295D01*
X151695188Y-108981275D01*
X151791836Y-108962051D01*
X151845165Y-108939961D01*
X151973914Y-108886632D01*
X152137782Y-108777139D01*
X152277139Y-108637782D01*
X152277140Y-108637779D01*
X152284206Y-108630714D01*
X152284209Y-108630710D01*
X152637778Y-108277141D01*
X152637782Y-108277139D01*
X152777139Y-108137782D01*
X152886632Y-107973914D01*
X152962051Y-107791835D01*
X152991837Y-107642093D01*
X153000500Y-107598543D01*
X153000500Y-105983728D01*
X153020185Y-105916689D01*
X153072989Y-105870934D01*
X153103170Y-105865599D01*
X153790000Y-105178769D01*
X153790000Y-105184984D01*
X153817259Y-105286717D01*
X153869920Y-105377929D01*
X153944394Y-105452403D01*
X154035606Y-105505064D01*
X154137339Y-105532323D01*
X154143553Y-105532323D01*
X153464076Y-106211797D01*
X153508650Y-106244182D01*
X153690968Y-106337078D01*
X153885582Y-106400313D01*
X154087683Y-106432323D01*
X154292317Y-106432323D01*
X154494417Y-106400313D01*
X154689031Y-106337078D01*
X154871349Y-106244182D01*
X154915921Y-106211797D01*
X154236447Y-105532323D01*
X154242661Y-105532323D01*
X154344394Y-105505064D01*
X154435606Y-105452403D01*
X154510080Y-105377929D01*
X154562741Y-105286717D01*
X154590000Y-105184984D01*
X154590000Y-105178770D01*
X155269474Y-105858244D01*
X155301859Y-105813672D01*
X155394755Y-105631354D01*
X155457990Y-105436740D01*
X155490000Y-105234640D01*
X155490000Y-105030005D01*
X155489995Y-105029971D01*
X160509500Y-105029971D01*
X160509500Y-105234674D01*
X160541522Y-105436857D01*
X160604781Y-105631546D01*
X160697715Y-105813936D01*
X160818028Y-105979536D01*
X160962786Y-106124294D01*
X161083226Y-106211797D01*
X161128390Y-106244610D01*
X161244607Y-106303826D01*
X161310776Y-106337541D01*
X161310778Y-106337541D01*
X161310781Y-106337543D01*
X161415137Y-106371450D01*
X161505465Y-106400800D01*
X161606557Y-106416811D01*
X161707648Y-106432823D01*
X161707649Y-106432823D01*
X161912351Y-106432823D01*
X161912352Y-106432823D01*
X162114534Y-106400800D01*
X162309219Y-106337543D01*
X162491610Y-106244610D01*
X162584590Y-106177055D01*
X162657213Y-106124294D01*
X162657215Y-106124291D01*
X162657219Y-106124289D01*
X162801966Y-105979542D01*
X162859769Y-105899983D01*
X174199500Y-105899983D01*
X174199500Y-108100001D01*
X174199501Y-108100018D01*
X174210000Y-108202796D01*
X174210001Y-108202799D01*
X174236979Y-108284212D01*
X174265186Y-108369334D01*
X174357288Y-108518656D01*
X174481344Y-108642712D01*
X174630666Y-108734814D01*
X174797203Y-108789999D01*
X174899991Y-108800500D01*
X177100008Y-108800499D01*
X177202797Y-108789999D01*
X177369334Y-108734814D01*
X177518656Y-108642712D01*
X177642712Y-108518656D01*
X177734814Y-108369334D01*
X177789999Y-108202797D01*
X177800500Y-108100009D01*
X177800499Y-105899992D01*
X177789999Y-105797203D01*
X177734814Y-105630666D01*
X177642712Y-105481344D01*
X177518656Y-105357288D01*
X177369334Y-105265186D01*
X177202797Y-105210001D01*
X177202795Y-105210000D01*
X177100010Y-105199500D01*
X174899998Y-105199500D01*
X174899981Y-105199501D01*
X174797203Y-105210000D01*
X174797200Y-105210001D01*
X174630668Y-105265185D01*
X174630663Y-105265187D01*
X174481342Y-105357289D01*
X174357289Y-105481342D01*
X174265187Y-105630663D01*
X174265185Y-105630668D01*
X174264894Y-105631546D01*
X174210001Y-105797203D01*
X174210001Y-105797204D01*
X174210000Y-105797204D01*
X174199500Y-105899983D01*
X162859769Y-105899983D01*
X162884750Y-105865599D01*
X162915011Y-105823949D01*
X162922285Y-105813936D01*
X162930811Y-105797204D01*
X163015220Y-105631542D01*
X163078477Y-105436857D01*
X163110500Y-105234675D01*
X163110500Y-105029971D01*
X163102257Y-104977929D01*
X163078477Y-104827788D01*
X163047458Y-104732323D01*
X163015220Y-104633104D01*
X163015218Y-104633101D01*
X163015218Y-104633099D01*
X162922419Y-104450973D01*
X162922287Y-104450713D01*
X162890092Y-104406400D01*
X162801971Y-104285109D01*
X162657213Y-104140351D01*
X162491613Y-104020038D01*
X162491612Y-104020037D01*
X162491610Y-104020036D01*
X162416813Y-103981925D01*
X162309223Y-103927104D01*
X162114534Y-103863845D01*
X161939995Y-103836201D01*
X161912352Y-103831823D01*
X161707648Y-103831823D01*
X161683329Y-103835674D01*
X161505465Y-103863845D01*
X161310776Y-103927104D01*
X161128386Y-104020038D01*
X160962786Y-104140351D01*
X160818028Y-104285109D01*
X160697715Y-104450709D01*
X160604781Y-104633099D01*
X160541522Y-104827788D01*
X160509500Y-105029971D01*
X155489995Y-105029971D01*
X155457990Y-104827905D01*
X155394755Y-104633291D01*
X155301859Y-104450973D01*
X155269474Y-104406400D01*
X155269474Y-104406399D01*
X154590000Y-105085874D01*
X154590000Y-105079662D01*
X154562741Y-104977929D01*
X154510080Y-104886717D01*
X154435606Y-104812243D01*
X154344394Y-104759582D01*
X154242661Y-104732323D01*
X154236446Y-104732323D01*
X154915922Y-104052847D01*
X154915921Y-104052846D01*
X154871359Y-104020470D01*
X154871350Y-104020464D01*
X154689031Y-103927567D01*
X154494417Y-103864332D01*
X154292317Y-103832323D01*
X154087683Y-103832323D01*
X153885582Y-103864332D01*
X153690968Y-103927567D01*
X153508644Y-104020466D01*
X153464077Y-104052846D01*
X153464077Y-104052847D01*
X154143554Y-104732323D01*
X154137339Y-104732323D01*
X154035606Y-104759582D01*
X153944394Y-104812243D01*
X153869920Y-104886717D01*
X153817259Y-104977929D01*
X153790000Y-105079662D01*
X153790000Y-105085876D01*
X153107661Y-104403537D01*
X153106853Y-104403654D01*
X153087100Y-104394633D01*
X153065850Y-104390169D01*
X153055946Y-104380405D01*
X153043297Y-104374629D01*
X153031557Y-104356361D01*
X153016094Y-104341117D01*
X153012267Y-104326346D01*
X153005523Y-104315851D01*
X153000500Y-104280916D01*
X153000500Y-102465781D01*
X153020185Y-102398742D01*
X153036814Y-102378105D01*
X153924936Y-101489983D01*
X165599500Y-101489983D01*
X165599500Y-102890001D01*
X165599501Y-102890018D01*
X165610000Y-102992796D01*
X165610001Y-102992799D01*
X165665185Y-103159331D01*
X165665187Y-103159336D01*
X165700069Y-103215888D01*
X165757288Y-103308656D01*
X165881344Y-103432712D01*
X166030666Y-103524814D01*
X166197203Y-103579999D01*
X166299991Y-103590500D01*
X167700008Y-103590499D01*
X167802797Y-103579999D01*
X167969334Y-103524814D01*
X168118656Y-103432712D01*
X168242712Y-103308656D01*
X168334814Y-103159334D01*
X168389999Y-102992797D01*
X168400500Y-102890009D01*
X168400499Y-101882014D01*
X174200000Y-101882014D01*
X174200000Y-102117985D01*
X174230799Y-102351914D01*
X174291870Y-102579837D01*
X174382160Y-102797819D01*
X174382165Y-102797828D01*
X174500144Y-103002171D01*
X174500145Y-103002172D01*
X174562721Y-103083723D01*
X175398958Y-102247487D01*
X175423978Y-102307890D01*
X175495112Y-102414351D01*
X175585649Y-102504888D01*
X175692110Y-102576022D01*
X175752511Y-102601041D01*
X174916275Y-103437277D01*
X174997827Y-103499854D01*
X174997828Y-103499855D01*
X175202171Y-103617834D01*
X175202180Y-103617839D01*
X175420163Y-103708129D01*
X175420161Y-103708129D01*
X175648085Y-103769200D01*
X175882014Y-103799999D01*
X175882029Y-103800000D01*
X176117971Y-103800000D01*
X176117985Y-103799999D01*
X176351914Y-103769200D01*
X176579837Y-103708129D01*
X176797819Y-103617839D01*
X176797828Y-103617834D01*
X177002181Y-103499850D01*
X177083723Y-103437279D01*
X177083723Y-103437276D01*
X176247487Y-102601041D01*
X176307890Y-102576022D01*
X176414351Y-102504888D01*
X176504888Y-102414351D01*
X176576022Y-102307890D01*
X176601041Y-102247488D01*
X177437276Y-103083723D01*
X177437279Y-103083723D01*
X177499850Y-103002181D01*
X177617834Y-102797828D01*
X177617839Y-102797819D01*
X177708129Y-102579837D01*
X177769200Y-102351914D01*
X177799999Y-102117985D01*
X177800000Y-102117971D01*
X177800000Y-101882028D01*
X177799999Y-101882014D01*
X177769200Y-101648085D01*
X177708129Y-101420162D01*
X177617839Y-101202180D01*
X177617834Y-101202171D01*
X177499855Y-100997828D01*
X177499854Y-100997827D01*
X177437277Y-100916275D01*
X176601041Y-101752511D01*
X176576022Y-101692110D01*
X176504888Y-101585649D01*
X176414351Y-101495112D01*
X176307890Y-101423978D01*
X176247488Y-101398958D01*
X177083723Y-100562721D01*
X177002172Y-100500145D01*
X177002171Y-100500144D01*
X176797828Y-100382165D01*
X176797819Y-100382160D01*
X176579836Y-100291870D01*
X176579838Y-100291870D01*
X176351914Y-100230799D01*
X176117985Y-100200000D01*
X175882014Y-100200000D01*
X175648085Y-100230799D01*
X175420162Y-100291870D01*
X175202180Y-100382160D01*
X175202171Y-100382165D01*
X174997828Y-100500144D01*
X174997818Y-100500150D01*
X174916275Y-100562720D01*
X174916275Y-100562721D01*
X175752512Y-101398958D01*
X175692110Y-101423978D01*
X175585649Y-101495112D01*
X175495112Y-101585649D01*
X175423978Y-101692110D01*
X175398958Y-101752511D01*
X174562721Y-100916275D01*
X174562720Y-100916275D01*
X174500150Y-100997818D01*
X174500144Y-100997828D01*
X174382165Y-101202171D01*
X174382160Y-101202180D01*
X174291870Y-101420162D01*
X174230799Y-101648085D01*
X174200000Y-101882014D01*
X168400499Y-101882014D01*
X168400499Y-101489992D01*
X168389999Y-101387203D01*
X168334814Y-101220666D01*
X168242712Y-101071344D01*
X168118656Y-100947288D01*
X167969334Y-100855186D01*
X167802797Y-100800001D01*
X167802795Y-100800000D01*
X167700010Y-100789500D01*
X166299998Y-100789500D01*
X166299981Y-100789501D01*
X166197203Y-100800000D01*
X166197200Y-100800001D01*
X166030668Y-100855185D01*
X166030663Y-100855187D01*
X165881342Y-100947289D01*
X165757289Y-101071342D01*
X165665187Y-101220663D01*
X165665185Y-101220668D01*
X165655465Y-101250001D01*
X165610001Y-101387203D01*
X165610001Y-101387204D01*
X165610000Y-101387204D01*
X165599500Y-101489983D01*
X153924936Y-101489983D01*
X155788322Y-99626598D01*
X155849642Y-99593115D01*
X155919334Y-99598099D01*
X155975267Y-99639971D01*
X155999684Y-99705435D01*
X156000000Y-99714281D01*
X156000000Y-99750375D01*
X156036934Y-99983570D01*
X156109897Y-100208125D01*
X156217087Y-100418497D01*
X156277338Y-100501427D01*
X156277340Y-100501428D01*
X157017037Y-99761731D01*
X157034075Y-99825316D01*
X157099901Y-99939330D01*
X157192993Y-100032422D01*
X157307007Y-100098248D01*
X157370590Y-100115285D01*
X156630893Y-100854981D01*
X156713828Y-100915237D01*
X156924197Y-101022425D01*
X157148752Y-101095388D01*
X157148751Y-101095388D01*
X157381948Y-101132323D01*
X157618052Y-101132323D01*
X157851247Y-101095388D01*
X158075802Y-101022425D01*
X158286163Y-100915241D01*
X158286169Y-100915237D01*
X158369104Y-100854981D01*
X158369105Y-100854981D01*
X157629408Y-100115285D01*
X157692993Y-100098248D01*
X157807007Y-100032422D01*
X157900099Y-99939330D01*
X157965925Y-99825316D01*
X157982962Y-99761732D01*
X158722658Y-100501428D01*
X158782914Y-100418492D01*
X158782918Y-100418486D01*
X158890102Y-100208125D01*
X158963065Y-99983570D01*
X159000000Y-99750375D01*
X159000000Y-99514270D01*
X158963065Y-99281075D01*
X158890102Y-99056520D01*
X158782914Y-98846151D01*
X158722658Y-98763217D01*
X158722658Y-98763216D01*
X157982962Y-99502913D01*
X157965925Y-99439330D01*
X157900099Y-99325316D01*
X157807007Y-99232224D01*
X157692993Y-99166398D01*
X157629408Y-99149360D01*
X158369105Y-98409663D01*
X158369104Y-98409661D01*
X158286174Y-98349410D01*
X158075802Y-98242220D01*
X157851247Y-98169257D01*
X157851248Y-98169257D01*
X157618052Y-98132323D01*
X157581959Y-98132323D01*
X157514920Y-98112638D01*
X157469165Y-98059834D01*
X157459221Y-97990676D01*
X157488246Y-97927120D01*
X157494266Y-97920654D01*
X158215143Y-97199778D01*
X165599500Y-97199778D01*
X165599500Y-97420221D01*
X165633985Y-97637952D01*
X165702103Y-97847603D01*
X165702104Y-97847606D01*
X165802187Y-98044025D01*
X165931752Y-98222358D01*
X165931756Y-98222363D01*
X166087636Y-98378243D01*
X166087641Y-98378247D01*
X166243192Y-98491260D01*
X166265978Y-98507815D01*
X166394375Y-98573237D01*
X166462393Y-98607895D01*
X166462396Y-98607896D01*
X166515697Y-98625214D01*
X166672049Y-98676015D01*
X166889778Y-98710500D01*
X166889779Y-98710500D01*
X167110221Y-98710500D01*
X167110222Y-98710500D01*
X167327951Y-98676015D01*
X167537606Y-98607895D01*
X167734022Y-98507815D01*
X167912365Y-98378242D01*
X168068242Y-98222365D01*
X168197815Y-98044022D01*
X168297895Y-97847606D01*
X168366015Y-97637951D01*
X168400500Y-97420222D01*
X168400500Y-97199778D01*
X168366015Y-96982049D01*
X168306231Y-96798049D01*
X168297896Y-96772396D01*
X168297895Y-96772393D01*
X168263237Y-96704375D01*
X168197815Y-96575978D01*
X168181260Y-96553192D01*
X168068247Y-96397641D01*
X168068243Y-96397636D01*
X167912363Y-96241756D01*
X167912358Y-96241752D01*
X167734025Y-96112187D01*
X167734024Y-96112186D01*
X167734022Y-96112185D01*
X167656502Y-96072686D01*
X167537606Y-96012104D01*
X167537603Y-96012103D01*
X167327952Y-95943985D01*
X167219086Y-95926742D01*
X167110222Y-95909500D01*
X166889778Y-95909500D01*
X166817201Y-95920995D01*
X166672047Y-95943985D01*
X166462396Y-96012103D01*
X166462393Y-96012104D01*
X166265974Y-96112187D01*
X166087641Y-96241752D01*
X166087636Y-96241756D01*
X165931756Y-96397636D01*
X165931752Y-96397641D01*
X165802187Y-96575974D01*
X165702104Y-96772393D01*
X165702103Y-96772396D01*
X165633985Y-96982047D01*
X165599500Y-97199778D01*
X158215143Y-97199778D01*
X158277140Y-97137781D01*
X158386632Y-96973914D01*
X158462052Y-96791835D01*
X158500501Y-96598540D01*
X158500501Y-96401459D01*
X158500501Y-96396349D01*
X158500500Y-96396323D01*
X158500500Y-96178231D01*
X158520185Y-96111192D01*
X158564271Y-96072686D01*
X158563187Y-96070928D01*
X158569332Y-96067137D01*
X158569334Y-96067137D01*
X158718656Y-95975035D01*
X158842712Y-95850979D01*
X158934814Y-95701657D01*
X158989999Y-95535120D01*
X159000500Y-95432332D01*
X159000499Y-93832315D01*
X158989999Y-93729526D01*
X158934814Y-93562989D01*
X158842712Y-93413667D01*
X158718656Y-93289611D01*
X158569334Y-93197509D01*
X158402797Y-93142324D01*
X158402795Y-93142323D01*
X158300010Y-93131823D01*
X156699998Y-93131823D01*
X156699981Y-93131824D01*
X156597203Y-93142323D01*
X156597200Y-93142324D01*
X156430668Y-93197508D01*
X156430663Y-93197510D01*
X156281342Y-93289612D01*
X156157289Y-93413665D01*
X156065187Y-93562986D01*
X156065186Y-93562989D01*
X156010001Y-93729526D01*
X156010001Y-93729527D01*
X156010000Y-93729527D01*
X155999500Y-93832306D01*
X155999500Y-95432324D01*
X155999501Y-95432341D01*
X156010000Y-95535119D01*
X156010001Y-95535122D01*
X156031017Y-95598543D01*
X156065186Y-95701657D01*
X156157288Y-95850979D01*
X156281344Y-95975035D01*
X156341444Y-96012105D01*
X156351169Y-96018103D01*
X156397894Y-96070051D01*
X156409117Y-96139013D01*
X156381274Y-96203095D01*
X156373754Y-96211323D01*
X152601509Y-99983570D01*
X151362220Y-101222859D01*
X151362218Y-101222861D01*
X151292538Y-101292540D01*
X151222859Y-101362219D01*
X151113371Y-101526079D01*
X151113366Y-101526089D01*
X151091983Y-101577713D01*
X151063513Y-101646446D01*
X151060038Y-101654835D01*
X151037949Y-101708161D01*
X151037947Y-101708167D01*
X151021770Y-101789500D01*
X151021770Y-101789501D01*
X150999500Y-101901457D01*
X150999500Y-106875500D01*
X150979815Y-106942539D01*
X150927011Y-106988294D01*
X150875500Y-106999500D01*
X142275782Y-106999500D01*
X142208743Y-106979815D01*
X142188101Y-106963181D01*
X137826717Y-102601797D01*
X137793232Y-102540474D01*
X137791925Y-102533513D01*
X137781197Y-102465781D01*
X137768477Y-102385466D01*
X137705220Y-102190781D01*
X137705218Y-102190778D01*
X137705218Y-102190776D01*
X137671071Y-102123761D01*
X137612287Y-102008390D01*
X137606192Y-102000001D01*
X137562586Y-101939982D01*
X140399500Y-101939982D01*
X140399500Y-103740017D01*
X140410000Y-103842796D01*
X140465185Y-104009332D01*
X140465187Y-104009337D01*
X140472054Y-104020470D01*
X140557288Y-104158656D01*
X140681344Y-104282712D01*
X140830665Y-104374814D01*
X140997202Y-104429999D01*
X141099990Y-104440500D01*
X141099995Y-104440500D01*
X142900005Y-104440500D01*
X142900010Y-104440500D01*
X143002798Y-104429999D01*
X143169335Y-104374814D01*
X143318656Y-104282712D01*
X143442712Y-104158656D01*
X143534814Y-104009335D01*
X143589999Y-103842798D01*
X143600500Y-103740010D01*
X143600500Y-101939990D01*
X143600499Y-101939982D01*
X147399500Y-101939982D01*
X147399500Y-103740017D01*
X147410000Y-103842796D01*
X147465185Y-104009332D01*
X147465187Y-104009337D01*
X147472054Y-104020470D01*
X147557288Y-104158656D01*
X147681344Y-104282712D01*
X147830665Y-104374814D01*
X147997202Y-104429999D01*
X148099990Y-104440500D01*
X148099995Y-104440500D01*
X149900005Y-104440500D01*
X149900010Y-104440500D01*
X150002798Y-104429999D01*
X150169335Y-104374814D01*
X150318656Y-104282712D01*
X150442712Y-104158656D01*
X150534814Y-104009335D01*
X150589999Y-103842798D01*
X150600500Y-103740010D01*
X150600500Y-101939990D01*
X150589999Y-101837202D01*
X150534814Y-101670665D01*
X150442712Y-101521344D01*
X150318656Y-101397288D01*
X150169335Y-101305186D01*
X150002798Y-101250001D01*
X150002796Y-101250000D01*
X149900017Y-101239500D01*
X149900010Y-101239500D01*
X148099990Y-101239500D01*
X148099982Y-101239500D01*
X147997203Y-101250000D01*
X147997202Y-101250001D01*
X147914669Y-101277349D01*
X147830667Y-101305185D01*
X147830662Y-101305187D01*
X147681342Y-101397289D01*
X147557289Y-101521342D01*
X147465187Y-101670662D01*
X147465186Y-101670665D01*
X147410001Y-101837202D01*
X147410001Y-101837203D01*
X147410000Y-101837203D01*
X147399500Y-101939982D01*
X143600499Y-101939982D01*
X143589999Y-101837202D01*
X143534814Y-101670665D01*
X143442712Y-101521344D01*
X143318656Y-101397288D01*
X143169335Y-101305186D01*
X143002798Y-101250001D01*
X143002796Y-101250000D01*
X142900017Y-101239500D01*
X142900010Y-101239500D01*
X141099990Y-101239500D01*
X141099982Y-101239500D01*
X140997203Y-101250000D01*
X140997202Y-101250001D01*
X140914669Y-101277349D01*
X140830667Y-101305185D01*
X140830662Y-101305187D01*
X140681342Y-101397289D01*
X140557289Y-101521342D01*
X140465187Y-101670662D01*
X140465186Y-101670665D01*
X140410001Y-101837202D01*
X140410001Y-101837203D01*
X140410000Y-101837203D01*
X140399500Y-101939982D01*
X137562586Y-101939982D01*
X137491971Y-101842787D01*
X137491967Y-101842782D01*
X137347213Y-101698028D01*
X137181613Y-101577715D01*
X137181612Y-101577714D01*
X137181610Y-101577713D01*
X137124653Y-101548691D01*
X136999223Y-101484781D01*
X136804534Y-101421522D01*
X136629995Y-101393878D01*
X136602352Y-101389500D01*
X136397648Y-101389500D01*
X136373329Y-101393351D01*
X136195465Y-101421522D01*
X136000776Y-101484781D01*
X135818386Y-101577715D01*
X135652786Y-101698028D01*
X135508028Y-101842786D01*
X135387715Y-102008386D01*
X135294781Y-102190776D01*
X135231522Y-102385465D01*
X135199500Y-102587648D01*
X125500500Y-102587648D01*
X125500500Y-95881995D01*
X130699500Y-95881995D01*
X130699500Y-96118004D01*
X130699501Y-96118020D01*
X130730306Y-96352010D01*
X130791394Y-96579993D01*
X130881714Y-96798045D01*
X130881719Y-96798056D01*
X130952677Y-96920957D01*
X130999727Y-97002450D01*
X130999729Y-97002453D01*
X130999730Y-97002454D01*
X131143406Y-97189697D01*
X131143412Y-97189704D01*
X131310295Y-97356587D01*
X131310302Y-97356593D01*
X131362847Y-97396912D01*
X131497550Y-97500273D01*
X131628918Y-97576118D01*
X131701943Y-97618280D01*
X131701948Y-97618282D01*
X131701951Y-97618284D01*
X131920007Y-97708606D01*
X132147986Y-97769693D01*
X132381989Y-97800500D01*
X132381996Y-97800500D01*
X132618004Y-97800500D01*
X132618011Y-97800500D01*
X132852014Y-97769693D01*
X133079993Y-97708606D01*
X133298049Y-97618284D01*
X133502450Y-97500273D01*
X133689699Y-97356592D01*
X133856592Y-97189699D01*
X134000273Y-97002450D01*
X134118284Y-96798049D01*
X134208606Y-96579993D01*
X134269693Y-96352014D01*
X134300500Y-96118011D01*
X134300500Y-95881989D01*
X134269693Y-95647986D01*
X134208606Y-95420007D01*
X134118284Y-95201951D01*
X134118282Y-95201948D01*
X134118280Y-95201943D01*
X134072065Y-95121898D01*
X134000273Y-94997550D01*
X133856592Y-94810301D01*
X133856587Y-94810295D01*
X133689704Y-94643412D01*
X133689697Y-94643406D01*
X133502454Y-94499730D01*
X133502453Y-94499729D01*
X133502450Y-94499727D01*
X133420957Y-94452677D01*
X133298056Y-94381719D01*
X133298045Y-94381714D01*
X133079993Y-94291394D01*
X132852010Y-94230306D01*
X132618020Y-94199501D01*
X132618017Y-94199500D01*
X132618011Y-94199500D01*
X132381989Y-94199500D01*
X132381983Y-94199500D01*
X132381979Y-94199501D01*
X132147989Y-94230306D01*
X131920006Y-94291394D01*
X131701954Y-94381714D01*
X131701943Y-94381719D01*
X131497545Y-94499730D01*
X131310302Y-94643406D01*
X131310295Y-94643412D01*
X131143412Y-94810295D01*
X131143406Y-94810302D01*
X130999730Y-94997545D01*
X130881719Y-95201943D01*
X130881714Y-95201954D01*
X130791394Y-95420006D01*
X130730306Y-95647989D01*
X130699501Y-95881979D01*
X130699500Y-95881995D01*
X125500500Y-95881995D01*
X125500500Y-89899983D01*
X130699500Y-89899983D01*
X130699500Y-92100001D01*
X130699501Y-92100018D01*
X130710000Y-92202796D01*
X130710001Y-92202799D01*
X130765185Y-92369331D01*
X130765186Y-92369334D01*
X130857288Y-92518656D01*
X130981344Y-92642712D01*
X131130666Y-92734814D01*
X131297203Y-92789999D01*
X131399991Y-92800500D01*
X133600008Y-92800499D01*
X133702797Y-92789999D01*
X133869334Y-92734814D01*
X134018656Y-92642712D01*
X134142712Y-92518656D01*
X134234814Y-92369334D01*
X134289999Y-92202797D01*
X134300500Y-92100009D01*
X134300499Y-89899992D01*
X134289999Y-89797203D01*
X134234814Y-89630666D01*
X134142712Y-89481344D01*
X134018656Y-89357288D01*
X133869334Y-89265186D01*
X133702797Y-89210001D01*
X133702795Y-89210000D01*
X133600010Y-89199500D01*
X131399998Y-89199500D01*
X131399981Y-89199501D01*
X131297203Y-89210000D01*
X131297200Y-89210001D01*
X131130668Y-89265185D01*
X131130663Y-89265187D01*
X130981342Y-89357289D01*
X130857289Y-89481342D01*
X130765187Y-89630663D01*
X130765186Y-89630666D01*
X130710001Y-89797203D01*
X130710001Y-89797204D01*
X130710000Y-89797204D01*
X130699500Y-89899983D01*
X125500500Y-89899983D01*
X125500500Y-87939982D01*
X140399500Y-87939982D01*
X140399500Y-89740017D01*
X140410000Y-89842796D01*
X140428950Y-89899983D01*
X140465186Y-90009335D01*
X140557288Y-90158656D01*
X140681344Y-90282712D01*
X140830665Y-90374814D01*
X140997202Y-90429999D01*
X141099990Y-90440500D01*
X141099995Y-90440500D01*
X142900005Y-90440500D01*
X142900010Y-90440500D01*
X143002798Y-90429999D01*
X143169335Y-90374814D01*
X143318656Y-90282712D01*
X143442712Y-90158656D01*
X143534814Y-90009335D01*
X143589999Y-89842798D01*
X143600500Y-89740010D01*
X143600500Y-87939990D01*
X143589999Y-87837202D01*
X143534814Y-87670665D01*
X143442712Y-87521344D01*
X143318656Y-87397288D01*
X143169335Y-87305186D01*
X143002798Y-87250001D01*
X143002796Y-87250000D01*
X142900017Y-87239500D01*
X142900010Y-87239500D01*
X141099990Y-87239500D01*
X141099982Y-87239500D01*
X140997203Y-87250000D01*
X140997202Y-87250001D01*
X140914705Y-87277338D01*
X140830667Y-87305185D01*
X140830662Y-87305187D01*
X140681342Y-87397289D01*
X140557289Y-87521342D01*
X140465187Y-87670662D01*
X140465185Y-87670667D01*
X140437861Y-87753127D01*
X140410001Y-87837202D01*
X140410001Y-87837203D01*
X140410000Y-87837203D01*
X140399500Y-87939982D01*
X125500500Y-87939982D01*
X125500500Y-85897648D01*
X130699500Y-85897648D01*
X130699500Y-86102351D01*
X130731522Y-86304534D01*
X130794781Y-86499223D01*
X130887715Y-86681613D01*
X131008028Y-86847213D01*
X131152786Y-86991971D01*
X131307749Y-87104556D01*
X131318390Y-87112287D01*
X131434607Y-87171503D01*
X131500776Y-87205218D01*
X131500778Y-87205218D01*
X131500781Y-87205220D01*
X131605137Y-87239127D01*
X131695465Y-87268477D01*
X131776691Y-87281342D01*
X131897648Y-87300500D01*
X131897649Y-87300500D01*
X132102351Y-87300500D01*
X132102352Y-87300500D01*
X132304534Y-87268477D01*
X132499219Y-87205220D01*
X132681610Y-87112287D01*
X132822396Y-87010001D01*
X132847213Y-86991971D01*
X132847215Y-86991968D01*
X132847219Y-86991966D01*
X132991966Y-86847219D01*
X132991968Y-86847215D01*
X132991971Y-86847213D01*
X133044732Y-86774590D01*
X133112287Y-86681610D01*
X133205220Y-86499219D01*
X133268477Y-86304534D01*
X133300500Y-86102352D01*
X133300500Y-85897648D01*
X133268477Y-85695466D01*
X133205220Y-85500781D01*
X133205218Y-85500778D01*
X133205218Y-85500776D01*
X133171503Y-85434607D01*
X133112287Y-85318390D01*
X133104556Y-85307749D01*
X132991971Y-85152786D01*
X132847213Y-85008028D01*
X132681613Y-84887715D01*
X132681612Y-84887714D01*
X132681610Y-84887713D01*
X132624653Y-84858691D01*
X132499223Y-84794781D01*
X132304534Y-84731522D01*
X132129995Y-84703878D01*
X132102352Y-84699500D01*
X131897648Y-84699500D01*
X131873329Y-84703351D01*
X131695465Y-84731522D01*
X131500776Y-84794781D01*
X131318386Y-84887715D01*
X131152786Y-85008028D01*
X131008028Y-85152786D01*
X130887715Y-85318386D01*
X130794781Y-85500776D01*
X130731522Y-85695465D01*
X130699500Y-85897648D01*
X125500500Y-85897648D01*
X125500500Y-78299558D01*
X125520185Y-78232519D01*
X125572989Y-78186764D01*
X125642147Y-78176820D01*
X125705703Y-78205845D01*
X125739061Y-78252105D01*
X125779059Y-78348669D01*
X125779064Y-78348680D01*
X125814072Y-78409314D01*
X125904558Y-78566040D01*
X125904560Y-78566043D01*
X125904561Y-78566044D01*
X126057351Y-78765165D01*
X126057357Y-78765172D01*
X126234827Y-78942642D01*
X126234833Y-78942647D01*
X126433960Y-79095442D01*
X126573661Y-79176099D01*
X126651319Y-79220935D01*
X126651324Y-79220937D01*
X126651327Y-79220939D01*
X126883215Y-79316990D01*
X127125656Y-79381952D01*
X127374503Y-79414714D01*
X127374510Y-79414714D01*
X127625490Y-79414714D01*
X127625497Y-79414714D01*
X127874344Y-79381952D01*
X128116785Y-79316990D01*
X128348673Y-79220939D01*
X128566040Y-79095442D01*
X128765167Y-78942647D01*
X128942647Y-78765167D01*
X129095442Y-78566040D01*
X129220939Y-78348673D01*
X129250359Y-78277648D01*
X130699500Y-78277648D01*
X130699500Y-78482351D01*
X130731522Y-78684534D01*
X130794781Y-78879223D01*
X130887713Y-79061610D01*
X130975819Y-79182877D01*
X130999298Y-79248681D01*
X130999500Y-79255761D01*
X130999500Y-82098541D01*
X130999500Y-82098543D01*
X130999499Y-82098543D01*
X131037947Y-82291829D01*
X131037950Y-82291839D01*
X131113364Y-82473907D01*
X131113371Y-82473920D01*
X131222859Y-82637780D01*
X131222860Y-82637781D01*
X131222861Y-82637782D01*
X131362218Y-82777139D01*
X131362219Y-82777139D01*
X131369286Y-82784206D01*
X131369285Y-82784206D01*
X131369288Y-82784208D01*
X134722860Y-86137781D01*
X134722861Y-86137782D01*
X134862218Y-86277139D01*
X134862219Y-86277140D01*
X135026079Y-86386628D01*
X135026086Y-86386632D01*
X135122450Y-86426547D01*
X135208164Y-86462051D01*
X135395019Y-86499219D01*
X135401454Y-86500499D01*
X135401457Y-86500500D01*
X135401459Y-86500500D01*
X144375500Y-86500500D01*
X144442539Y-86520185D01*
X144488294Y-86572989D01*
X144499500Y-86624500D01*
X144499500Y-95034217D01*
X144479815Y-95101256D01*
X144463181Y-95121898D01*
X142221651Y-97363427D01*
X142160328Y-97396912D01*
X142130834Y-97398919D01*
X142130834Y-97399500D01*
X142125962Y-97399500D01*
X141874038Y-97399500D01*
X141749626Y-97419205D01*
X141625214Y-97438910D01*
X141385616Y-97516760D01*
X141161151Y-97631132D01*
X140957350Y-97779201D01*
X140957345Y-97779205D01*
X140779205Y-97957345D01*
X140779201Y-97957350D01*
X140631132Y-98161151D01*
X140516760Y-98385616D01*
X140444537Y-98607896D01*
X140438910Y-98625215D01*
X140399500Y-98874038D01*
X140399500Y-99125962D01*
X140416330Y-99232224D01*
X140438910Y-99374785D01*
X140516760Y-99614383D01*
X140631132Y-99838848D01*
X140779201Y-100042649D01*
X140779205Y-100042654D01*
X140957345Y-100220794D01*
X140957350Y-100220798D01*
X141055173Y-100291870D01*
X141161155Y-100368870D01*
X141258544Y-100418492D01*
X141385616Y-100483239D01*
X141385618Y-100483239D01*
X141385621Y-100483241D01*
X141625215Y-100561090D01*
X141874038Y-100600500D01*
X141874039Y-100600500D01*
X142125961Y-100600500D01*
X142125962Y-100600500D01*
X142374785Y-100561090D01*
X142614379Y-100483241D01*
X142838845Y-100368870D01*
X143042656Y-100220793D01*
X143220793Y-100042656D01*
X143368870Y-99838845D01*
X143483241Y-99614379D01*
X143561090Y-99374785D01*
X143600500Y-99125962D01*
X143600500Y-98874038D01*
X147399500Y-98874038D01*
X147399500Y-99125962D01*
X147416330Y-99232224D01*
X147438910Y-99374785D01*
X147516760Y-99614383D01*
X147631132Y-99838848D01*
X147779201Y-100042649D01*
X147779205Y-100042654D01*
X147957345Y-100220794D01*
X147957350Y-100220798D01*
X148055173Y-100291870D01*
X148161155Y-100368870D01*
X148258544Y-100418492D01*
X148385616Y-100483239D01*
X148385618Y-100483239D01*
X148385621Y-100483241D01*
X148625215Y-100561090D01*
X148874038Y-100600500D01*
X148874039Y-100600500D01*
X149125961Y-100600500D01*
X149125962Y-100600500D01*
X149374785Y-100561090D01*
X149614379Y-100483241D01*
X149838845Y-100368870D01*
X150042656Y-100220793D01*
X150220793Y-100042656D01*
X150368870Y-99838845D01*
X150483241Y-99614379D01*
X150561090Y-99374785D01*
X150600500Y-99125962D01*
X150600500Y-98874038D01*
X150561090Y-98625215D01*
X150483241Y-98385621D01*
X150483239Y-98385618D01*
X150483239Y-98385616D01*
X150441747Y-98304184D01*
X150368870Y-98161155D01*
X150347922Y-98132323D01*
X150220798Y-97957350D01*
X150220794Y-97957345D01*
X150042654Y-97779205D01*
X150042649Y-97779201D01*
X149838848Y-97631132D01*
X149838847Y-97631131D01*
X149838845Y-97631130D01*
X149768747Y-97595413D01*
X149614383Y-97516760D01*
X149374785Y-97438910D01*
X149125962Y-97399500D01*
X148874038Y-97399500D01*
X148749626Y-97419205D01*
X148625214Y-97438910D01*
X148385616Y-97516760D01*
X148161151Y-97631132D01*
X147957350Y-97779201D01*
X147957345Y-97779205D01*
X147779205Y-97957345D01*
X147779201Y-97957350D01*
X147631132Y-98161151D01*
X147516760Y-98385616D01*
X147444537Y-98607896D01*
X147438910Y-98625215D01*
X147399500Y-98874038D01*
X143600500Y-98874038D01*
X143600500Y-98869166D01*
X143602028Y-98869166D01*
X143614979Y-98807415D01*
X143636568Y-98778351D01*
X146277139Y-96137782D01*
X146351772Y-96026085D01*
X146386632Y-95973914D01*
X146462051Y-95791835D01*
X146500500Y-95598541D01*
X146500500Y-87939982D01*
X147399500Y-87939982D01*
X147399500Y-89740017D01*
X147410000Y-89842796D01*
X147428950Y-89899983D01*
X147465186Y-90009335D01*
X147557288Y-90158656D01*
X147681344Y-90282712D01*
X147830665Y-90374814D01*
X147997202Y-90429999D01*
X148099990Y-90440500D01*
X148099995Y-90440500D01*
X149900005Y-90440500D01*
X149900010Y-90440500D01*
X150002798Y-90429999D01*
X150169335Y-90374814D01*
X150318656Y-90282712D01*
X150442712Y-90158656D01*
X150534814Y-90009335D01*
X150589999Y-89842798D01*
X150600500Y-89740010D01*
X150600500Y-88897648D01*
X153699500Y-88897648D01*
X153699500Y-89102351D01*
X153731522Y-89304534D01*
X153794781Y-89499223D01*
X153830505Y-89569334D01*
X153887585Y-89681359D01*
X153887715Y-89681613D01*
X154008028Y-89847213D01*
X154152786Y-89991971D01*
X154273226Y-90079474D01*
X154318390Y-90112287D01*
X154434607Y-90171503D01*
X154500776Y-90205218D01*
X154500778Y-90205218D01*
X154500781Y-90205220D01*
X154605137Y-90239127D01*
X154695465Y-90268477D01*
X154785328Y-90282710D01*
X154897648Y-90300500D01*
X154897649Y-90300500D01*
X155102351Y-90300500D01*
X155102352Y-90300500D01*
X155304534Y-90268477D01*
X155499219Y-90205220D01*
X155681610Y-90112287D01*
X155823310Y-90009337D01*
X155847213Y-89991971D01*
X155847215Y-89991968D01*
X155847219Y-89991966D01*
X155991966Y-89847219D01*
X155991968Y-89847215D01*
X155991971Y-89847213D01*
X156069857Y-89740010D01*
X156112287Y-89681610D01*
X156205220Y-89499219D01*
X156268477Y-89304534D01*
X156300500Y-89102352D01*
X156300500Y-88897682D01*
X158700000Y-88897682D01*
X158700000Y-89102317D01*
X158732009Y-89304417D01*
X158795244Y-89499031D01*
X158888141Y-89681350D01*
X158888147Y-89681359D01*
X158920523Y-89725921D01*
X158920524Y-89725922D01*
X159600000Y-89046446D01*
X159600000Y-89052661D01*
X159627259Y-89154394D01*
X159679920Y-89245606D01*
X159754394Y-89320080D01*
X159845606Y-89372741D01*
X159947339Y-89400000D01*
X159953553Y-89400000D01*
X159274076Y-90079474D01*
X159318650Y-90111859D01*
X159500968Y-90204755D01*
X159695582Y-90267990D01*
X159897683Y-90300000D01*
X160102317Y-90300000D01*
X160304417Y-90267990D01*
X160499031Y-90204755D01*
X160681349Y-90111859D01*
X160725921Y-90079474D01*
X160046447Y-89400000D01*
X160052661Y-89400000D01*
X160154394Y-89372741D01*
X160245606Y-89320080D01*
X160320080Y-89245606D01*
X160372741Y-89154394D01*
X160400000Y-89052661D01*
X160400000Y-89046447D01*
X161079474Y-89725921D01*
X161111859Y-89681349D01*
X161204755Y-89499031D01*
X161267990Y-89304417D01*
X161300000Y-89102317D01*
X161300000Y-88989983D01*
X165599500Y-88989983D01*
X165599500Y-90390001D01*
X165599501Y-90390018D01*
X165610000Y-90492796D01*
X165610001Y-90492799D01*
X165665185Y-90659331D01*
X165665186Y-90659334D01*
X165757288Y-90808656D01*
X165881344Y-90932712D01*
X166030666Y-91024814D01*
X166197203Y-91079999D01*
X166299991Y-91090500D01*
X167700008Y-91090499D01*
X167802797Y-91079999D01*
X167969334Y-91024814D01*
X168118656Y-90932712D01*
X168242712Y-90808656D01*
X168334814Y-90659334D01*
X168389999Y-90492797D01*
X168400500Y-90390009D01*
X168400499Y-88989992D01*
X168389999Y-88887203D01*
X168334814Y-88720666D01*
X168242712Y-88571344D01*
X168118656Y-88447288D01*
X168012721Y-88381947D01*
X172467677Y-88381947D01*
X172467677Y-88618052D01*
X172504611Y-88851247D01*
X172577574Y-89075802D01*
X172684764Y-89286174D01*
X172745015Y-89369104D01*
X172745017Y-89369105D01*
X173484714Y-88629408D01*
X173501752Y-88692993D01*
X173567578Y-88807007D01*
X173660670Y-88900099D01*
X173774684Y-88965925D01*
X173838267Y-88982962D01*
X173098570Y-89722658D01*
X173181505Y-89782914D01*
X173391874Y-89890102D01*
X173616429Y-89963065D01*
X173616428Y-89963065D01*
X173849625Y-90000000D01*
X174085729Y-90000000D01*
X174318924Y-89963065D01*
X174543479Y-89890102D01*
X174753840Y-89782918D01*
X174753846Y-89782914D01*
X174836781Y-89722658D01*
X174836782Y-89722658D01*
X174097085Y-88982962D01*
X174160670Y-88965925D01*
X174274684Y-88900099D01*
X174367776Y-88807007D01*
X174433602Y-88692993D01*
X174450639Y-88629408D01*
X175190335Y-89369105D01*
X175190335Y-89369104D01*
X175250591Y-89286169D01*
X175250595Y-89286163D01*
X175357779Y-89075802D01*
X175430742Y-88851247D01*
X175467677Y-88618052D01*
X175467677Y-88381947D01*
X175430742Y-88148752D01*
X175357779Y-87924197D01*
X175270616Y-87753129D01*
X175270615Y-87753127D01*
X175250593Y-87713830D01*
X175240532Y-87699983D01*
X176267177Y-87699983D01*
X176267177Y-89300001D01*
X176267178Y-89300018D01*
X176277677Y-89402796D01*
X176277678Y-89402799D01*
X176303705Y-89481342D01*
X176332863Y-89569334D01*
X176424965Y-89718656D01*
X176549021Y-89842712D01*
X176698343Y-89934814D01*
X176864880Y-89989999D01*
X176967668Y-90000500D01*
X178567685Y-90000499D01*
X178670474Y-89989999D01*
X178837011Y-89934814D01*
X178986333Y-89842712D01*
X179110389Y-89718656D01*
X179202491Y-89569334D01*
X179257676Y-89402797D01*
X179268177Y-89300009D01*
X179268176Y-87699992D01*
X179265180Y-87670667D01*
X179257676Y-87597203D01*
X179257675Y-87597200D01*
X179202491Y-87430666D01*
X179110389Y-87281344D01*
X178986333Y-87157288D01*
X178837011Y-87065186D01*
X178670474Y-87010001D01*
X178670472Y-87010000D01*
X178567687Y-86999500D01*
X176967675Y-86999500D01*
X176967658Y-86999501D01*
X176864880Y-87010000D01*
X176864877Y-87010001D01*
X176698345Y-87065185D01*
X176698340Y-87065187D01*
X176549019Y-87157289D01*
X176424966Y-87281342D01*
X176332864Y-87430663D01*
X176332863Y-87430666D01*
X176277678Y-87597203D01*
X176277678Y-87597204D01*
X176277677Y-87597204D01*
X176267177Y-87699983D01*
X175240532Y-87699983D01*
X175190335Y-87630894D01*
X175190335Y-87630893D01*
X174450639Y-88370590D01*
X174433602Y-88307007D01*
X174367776Y-88192993D01*
X174274684Y-88099901D01*
X174160670Y-88034075D01*
X174097086Y-88017037D01*
X174836782Y-87277340D01*
X174836781Y-87277338D01*
X174753851Y-87217087D01*
X174543479Y-87109897D01*
X174318924Y-87036934D01*
X174318925Y-87036934D01*
X174085729Y-87000000D01*
X173849625Y-87000000D01*
X173616429Y-87036934D01*
X173391874Y-87109897D01*
X173181507Y-87217084D01*
X173098571Y-87277340D01*
X173838268Y-88017037D01*
X173774684Y-88034075D01*
X173660670Y-88099901D01*
X173567578Y-88192993D01*
X173501752Y-88307007D01*
X173484714Y-88370590D01*
X172745017Y-87630894D01*
X172684761Y-87713830D01*
X172577574Y-87924197D01*
X172504611Y-88148752D01*
X172467677Y-88381947D01*
X168012721Y-88381947D01*
X167969334Y-88355186D01*
X167802797Y-88300001D01*
X167802795Y-88300000D01*
X167700010Y-88289500D01*
X166299998Y-88289500D01*
X166299981Y-88289501D01*
X166197203Y-88300000D01*
X166197200Y-88300001D01*
X166030668Y-88355185D01*
X166030663Y-88355187D01*
X165881342Y-88447289D01*
X165757289Y-88571342D01*
X165665187Y-88720663D01*
X165665185Y-88720668D01*
X165637349Y-88804670D01*
X165610001Y-88887203D01*
X165610001Y-88887204D01*
X165610000Y-88887204D01*
X165599500Y-88989983D01*
X161300000Y-88989983D01*
X161300000Y-88897682D01*
X161267990Y-88695582D01*
X161204755Y-88500968D01*
X161111859Y-88318650D01*
X161079474Y-88274077D01*
X161079474Y-88274076D01*
X160400000Y-88953551D01*
X160400000Y-88947339D01*
X160372741Y-88845606D01*
X160320080Y-88754394D01*
X160245606Y-88679920D01*
X160154394Y-88627259D01*
X160052661Y-88600000D01*
X160046446Y-88600000D01*
X160725922Y-87920524D01*
X160725921Y-87920523D01*
X160681359Y-87888147D01*
X160681350Y-87888141D01*
X160499031Y-87795244D01*
X160304417Y-87732009D01*
X160102317Y-87700000D01*
X159897683Y-87700000D01*
X159695582Y-87732009D01*
X159500968Y-87795244D01*
X159318644Y-87888143D01*
X159274077Y-87920523D01*
X159274077Y-87920524D01*
X159953554Y-88600000D01*
X159947339Y-88600000D01*
X159845606Y-88627259D01*
X159754394Y-88679920D01*
X159679920Y-88754394D01*
X159627259Y-88845606D01*
X159600000Y-88947339D01*
X159600000Y-88953553D01*
X158920524Y-88274077D01*
X158920523Y-88274077D01*
X158888143Y-88318644D01*
X158795244Y-88500968D01*
X158732009Y-88695582D01*
X158700000Y-88897682D01*
X156300500Y-88897682D01*
X156300500Y-88897648D01*
X156286144Y-88807007D01*
X156268477Y-88695465D01*
X156226354Y-88565826D01*
X156205220Y-88500781D01*
X156205218Y-88500778D01*
X156205218Y-88500776D01*
X156144671Y-88381947D01*
X156112287Y-88318390D01*
X156091298Y-88289501D01*
X155991971Y-88152786D01*
X155847213Y-88008028D01*
X155681613Y-87887715D01*
X155681612Y-87887714D01*
X155681610Y-87887713D01*
X155582477Y-87837202D01*
X155499223Y-87794781D01*
X155304534Y-87731522D01*
X155129995Y-87703878D01*
X155102352Y-87699500D01*
X154897648Y-87699500D01*
X154873329Y-87703351D01*
X154695465Y-87731522D01*
X154500776Y-87794781D01*
X154318386Y-87887715D01*
X154152786Y-88008028D01*
X154008028Y-88152786D01*
X153887715Y-88318386D01*
X153794781Y-88500776D01*
X153731522Y-88695465D01*
X153699500Y-88897648D01*
X150600500Y-88897648D01*
X150600500Y-87939990D01*
X150589999Y-87837202D01*
X150534814Y-87670665D01*
X150442712Y-87521344D01*
X150318656Y-87397288D01*
X150169335Y-87305186D01*
X150002798Y-87250001D01*
X150002796Y-87250000D01*
X149900017Y-87239500D01*
X149900010Y-87239500D01*
X148099990Y-87239500D01*
X148099982Y-87239500D01*
X147997203Y-87250000D01*
X147997202Y-87250001D01*
X147914705Y-87277338D01*
X147830667Y-87305185D01*
X147830662Y-87305187D01*
X147681342Y-87397289D01*
X147557289Y-87521342D01*
X147465187Y-87670662D01*
X147465185Y-87670667D01*
X147437861Y-87753127D01*
X147410001Y-87837202D01*
X147410001Y-87837203D01*
X147410000Y-87837203D01*
X147399500Y-87939982D01*
X146500500Y-87939982D01*
X146500500Y-85965782D01*
X146520185Y-85898743D01*
X146536819Y-85878101D01*
X150878101Y-81536819D01*
X150905028Y-81522115D01*
X150930847Y-81505523D01*
X150937047Y-81504631D01*
X150939424Y-81503334D01*
X150965782Y-81500500D01*
X151063127Y-81500500D01*
X151130166Y-81520185D01*
X151161503Y-81549014D01*
X151218751Y-81623622D01*
X151218757Y-81623629D01*
X151376370Y-81781242D01*
X151376376Y-81781247D01*
X151553226Y-81916948D01*
X151746274Y-82028405D01*
X151852509Y-82072409D01*
X151915602Y-82098543D01*
X151952219Y-82113710D01*
X152167537Y-82171404D01*
X152388543Y-82200500D01*
X152388550Y-82200500D01*
X152611450Y-82200500D01*
X152611457Y-82200500D01*
X152832463Y-82171404D01*
X153047781Y-82113710D01*
X153253726Y-82028405D01*
X153446774Y-81916948D01*
X153623624Y-81781247D01*
X153781247Y-81623624D01*
X153916948Y-81446774D01*
X154028405Y-81253726D01*
X154113710Y-81047781D01*
X154139338Y-80952135D01*
X159467000Y-80952135D01*
X159467000Y-83047870D01*
X159467001Y-83047876D01*
X159473408Y-83107483D01*
X159523702Y-83242328D01*
X159523706Y-83242335D01*
X159609952Y-83357544D01*
X159609955Y-83357547D01*
X159725164Y-83443793D01*
X159725171Y-83443797D01*
X159860017Y-83494091D01*
X159860016Y-83494091D01*
X159866944Y-83494835D01*
X159919627Y-83500500D01*
X161920372Y-83500499D01*
X161979983Y-83494091D01*
X162114831Y-83443796D01*
X162230046Y-83357546D01*
X162316296Y-83242331D01*
X162326872Y-83213974D01*
X162368740Y-83158041D01*
X162434204Y-83133622D01*
X162502477Y-83148472D01*
X162515940Y-83156988D01*
X162698723Y-83289788D01*
X162902429Y-83393582D01*
X163119871Y-83464234D01*
X163210000Y-83478509D01*
X163210000Y-82490747D01*
X163247708Y-82512518D01*
X163387591Y-82550000D01*
X163532409Y-82550000D01*
X163672292Y-82512518D01*
X163710000Y-82490747D01*
X163710000Y-83478508D01*
X163800128Y-83464234D01*
X164017570Y-83393582D01*
X164221276Y-83289788D01*
X164406242Y-83155402D01*
X164567905Y-82993739D01*
X164629371Y-82909137D01*
X164684701Y-82866470D01*
X164754314Y-82860491D01*
X164816109Y-82893096D01*
X164830007Y-82909134D01*
X164891714Y-82994066D01*
X165053434Y-83155786D01*
X165238462Y-83290217D01*
X165370599Y-83357544D01*
X165442244Y-83394049D01*
X165659751Y-83464721D01*
X165659752Y-83464721D01*
X165659755Y-83464722D01*
X165885646Y-83500500D01*
X165885647Y-83500500D01*
X166114353Y-83500500D01*
X166114354Y-83500500D01*
X166340245Y-83464722D01*
X166340248Y-83464721D01*
X166340249Y-83464721D01*
X166557755Y-83394049D01*
X166557755Y-83394048D01*
X166557758Y-83394048D01*
X166761538Y-83290217D01*
X166946566Y-83155786D01*
X167108286Y-82994066D01*
X167242717Y-82809038D01*
X167346548Y-82605258D01*
X167389224Y-82473914D01*
X167417221Y-82387749D01*
X167417221Y-82387748D01*
X167417222Y-82387745D01*
X167453000Y-82161854D01*
X167453000Y-81838146D01*
X167417222Y-81612255D01*
X167417221Y-81612251D01*
X167417221Y-81612250D01*
X167346549Y-81394744D01*
X167346548Y-81394742D01*
X167242717Y-81190962D01*
X167108286Y-81005934D01*
X166946566Y-80844214D01*
X166761538Y-80709783D01*
X166557755Y-80605950D01*
X166340248Y-80535278D01*
X166154812Y-80505908D01*
X166114354Y-80499500D01*
X165885646Y-80499500D01*
X165845188Y-80505908D01*
X165659753Y-80535278D01*
X165659750Y-80535278D01*
X165442244Y-80605950D01*
X165238461Y-80709783D01*
X165172550Y-80757671D01*
X165053434Y-80844214D01*
X165053432Y-80844216D01*
X165053431Y-80844216D01*
X164891716Y-81005931D01*
X164891709Y-81005940D01*
X164830007Y-81090864D01*
X164774677Y-81133530D01*
X164705063Y-81139508D01*
X164643269Y-81106901D01*
X164629372Y-81090863D01*
X164567907Y-81006263D01*
X164567902Y-81006257D01*
X164406242Y-80844597D01*
X164221276Y-80710211D01*
X164017568Y-80606417D01*
X163800124Y-80535765D01*
X163710000Y-80521490D01*
X163710000Y-81509252D01*
X163672292Y-81487482D01*
X163532409Y-81450000D01*
X163387591Y-81450000D01*
X163247708Y-81487482D01*
X163210000Y-81509252D01*
X163210000Y-80521490D01*
X163209999Y-80521490D01*
X163119875Y-80535765D01*
X162902431Y-80606417D01*
X162698719Y-80710213D01*
X162515939Y-80843010D01*
X162450132Y-80866490D01*
X162382079Y-80850664D01*
X162333384Y-80800558D01*
X162326875Y-80786033D01*
X162316296Y-80757669D01*
X162316295Y-80757667D01*
X162316293Y-80757664D01*
X162230047Y-80642455D01*
X162230044Y-80642452D01*
X162114835Y-80556206D01*
X162114828Y-80556202D01*
X161979982Y-80505908D01*
X161979983Y-80505908D01*
X161920383Y-80499501D01*
X161920381Y-80499500D01*
X161920373Y-80499500D01*
X161920364Y-80499500D01*
X159919629Y-80499500D01*
X159919623Y-80499501D01*
X159860016Y-80505908D01*
X159725171Y-80556202D01*
X159725164Y-80556206D01*
X159609955Y-80642452D01*
X159609952Y-80642455D01*
X159523706Y-80757664D01*
X159523702Y-80757671D01*
X159473408Y-80892517D01*
X159467001Y-80952116D01*
X159467000Y-80952135D01*
X154139338Y-80952135D01*
X154171404Y-80832463D01*
X154200500Y-80611457D01*
X154200500Y-80388543D01*
X154171404Y-80167537D01*
X154113710Y-79952219D01*
X154028405Y-79746274D01*
X153916948Y-79553226D01*
X153781247Y-79376376D01*
X153781242Y-79376370D01*
X153623629Y-79218757D01*
X153623622Y-79218751D01*
X153446782Y-79083058D01*
X153446780Y-79083057D01*
X153446774Y-79083052D01*
X153253726Y-78971595D01*
X153253722Y-78971593D01*
X153047790Y-78886293D01*
X153047783Y-78886291D01*
X153047781Y-78886290D01*
X152832463Y-78828596D01*
X152832457Y-78828595D01*
X152832452Y-78828594D01*
X152611466Y-78799501D01*
X152611463Y-78799500D01*
X152611457Y-78799500D01*
X152388543Y-78799500D01*
X152388537Y-78799500D01*
X152388533Y-78799501D01*
X152167547Y-78828594D01*
X152167540Y-78828595D01*
X152167537Y-78828596D01*
X151978594Y-78879223D01*
X151952219Y-78886290D01*
X151952209Y-78886293D01*
X151746277Y-78971593D01*
X151746273Y-78971595D01*
X151553226Y-79083052D01*
X151553217Y-79083058D01*
X151376377Y-79218751D01*
X151376370Y-79218757D01*
X151218757Y-79376370D01*
X151218751Y-79376377D01*
X151161503Y-79450986D01*
X151105076Y-79492189D01*
X151063127Y-79499500D01*
X150401455Y-79499500D01*
X150309300Y-79517831D01*
X150309296Y-79517832D01*
X150304812Y-79518724D01*
X150208164Y-79537949D01*
X150157903Y-79558768D01*
X150150870Y-79561680D01*
X150150863Y-79561683D01*
X150026092Y-79613364D01*
X150026079Y-79613371D01*
X149862219Y-79722859D01*
X149792540Y-79792538D01*
X149722861Y-79862218D01*
X149722858Y-79862221D01*
X147413675Y-82171405D01*
X145121899Y-84463181D01*
X145060576Y-84496666D01*
X145034218Y-84499500D01*
X135965783Y-84499500D01*
X135898744Y-84479815D01*
X135878102Y-84463181D01*
X133036819Y-81621898D01*
X133003334Y-81560575D01*
X133000500Y-81534217D01*
X133000500Y-80388549D01*
X135799500Y-80388549D01*
X135799500Y-80611450D01*
X135799501Y-80611466D01*
X135828594Y-80832452D01*
X135828595Y-80832457D01*
X135828596Y-80832463D01*
X135886290Y-81047780D01*
X135886293Y-81047790D01*
X135945597Y-81190962D01*
X135971595Y-81253726D01*
X136083052Y-81446774D01*
X136083057Y-81446780D01*
X136083058Y-81446782D01*
X136218751Y-81623622D01*
X136218757Y-81623629D01*
X136376370Y-81781242D01*
X136376376Y-81781247D01*
X136553226Y-81916948D01*
X136746274Y-82028405D01*
X136852509Y-82072409D01*
X136915602Y-82098543D01*
X136952219Y-82113710D01*
X137167537Y-82171404D01*
X137388543Y-82200500D01*
X137388550Y-82200500D01*
X137611450Y-82200500D01*
X137611457Y-82200500D01*
X137832463Y-82171404D01*
X138047781Y-82113710D01*
X138253726Y-82028405D01*
X138446774Y-81916948D01*
X138623624Y-81781247D01*
X138781247Y-81623624D01*
X138916948Y-81446774D01*
X139028405Y-81253726D01*
X139113710Y-81047781D01*
X139171404Y-80832463D01*
X139200500Y-80611457D01*
X139200500Y-80388543D01*
X139171404Y-80167537D01*
X139113710Y-79952219D01*
X139028405Y-79746274D01*
X138916948Y-79553226D01*
X138781247Y-79376376D01*
X138781242Y-79376370D01*
X138623629Y-79218757D01*
X138623622Y-79218751D01*
X138446782Y-79083058D01*
X138446780Y-79083057D01*
X138446774Y-79083052D01*
X138253726Y-78971595D01*
X138253722Y-78971593D01*
X138047790Y-78886293D01*
X138047783Y-78886291D01*
X138047781Y-78886290D01*
X137832463Y-78828596D01*
X137832457Y-78828595D01*
X137832452Y-78828594D01*
X137611466Y-78799501D01*
X137611463Y-78799500D01*
X137611457Y-78799500D01*
X137388543Y-78799500D01*
X137388537Y-78799500D01*
X137388533Y-78799501D01*
X137167547Y-78828594D01*
X137167540Y-78828595D01*
X137167537Y-78828596D01*
X136978594Y-78879223D01*
X136952219Y-78886290D01*
X136952209Y-78886293D01*
X136746277Y-78971593D01*
X136746273Y-78971595D01*
X136553226Y-79083052D01*
X136553217Y-79083058D01*
X136376377Y-79218751D01*
X136376370Y-79218757D01*
X136218757Y-79376370D01*
X136218751Y-79376377D01*
X136083058Y-79553217D01*
X136083052Y-79553226D01*
X135971595Y-79746273D01*
X135971593Y-79746277D01*
X135886293Y-79952209D01*
X135886290Y-79952219D01*
X135828597Y-80167534D01*
X135828594Y-80167547D01*
X135799501Y-80388533D01*
X135799500Y-80388549D01*
X133000500Y-80388549D01*
X133000500Y-79255761D01*
X133020185Y-79188722D01*
X133024165Y-79182899D01*
X133112287Y-79061610D01*
X133205220Y-78879219D01*
X133268477Y-78684534D01*
X133300500Y-78482352D01*
X133300500Y-78277648D01*
X133275022Y-78116789D01*
X133268477Y-78075465D01*
X133205218Y-77880776D01*
X133146347Y-77765237D01*
X133112287Y-77698390D01*
X133059328Y-77625497D01*
X132991971Y-77532786D01*
X132847213Y-77388028D01*
X132681613Y-77267715D01*
X132681612Y-77267714D01*
X132681610Y-77267713D01*
X132616942Y-77234763D01*
X132499223Y-77174781D01*
X132304534Y-77111522D01*
X132129995Y-77083878D01*
X132102352Y-77079500D01*
X131897648Y-77079500D01*
X131873329Y-77083351D01*
X131695465Y-77111522D01*
X131500776Y-77174781D01*
X131318386Y-77267715D01*
X131152786Y-77388028D01*
X131008028Y-77532786D01*
X130887715Y-77698386D01*
X130794781Y-77880776D01*
X130731522Y-78075465D01*
X130699500Y-78277648D01*
X129250359Y-78277648D01*
X129272032Y-78225324D01*
X129272032Y-78225323D01*
X129316990Y-78116785D01*
X129381952Y-77874344D01*
X129414714Y-77625497D01*
X129414714Y-77374503D01*
X129381952Y-77125656D01*
X129316990Y-76883215D01*
X129220939Y-76651327D01*
X129220937Y-76651324D01*
X129220935Y-76651319D01*
X129176099Y-76573661D01*
X129095442Y-76433960D01*
X128942647Y-76234833D01*
X128942642Y-76234827D01*
X128765172Y-76057357D01*
X128765165Y-76057351D01*
X128566044Y-75904561D01*
X128566043Y-75904560D01*
X128566040Y-75904558D01*
X128479377Y-75854523D01*
X128348680Y-75779064D01*
X128348669Y-75779059D01*
X128252105Y-75739061D01*
X128197702Y-75695220D01*
X128175637Y-75628926D01*
X128192916Y-75561227D01*
X128244053Y-75513616D01*
X128299558Y-75500500D01*
X179700442Y-75500500D01*
X179767481Y-75520185D01*
G37*
%TD.AperFunction*%
%TD*%
M02*
